<svg xmlns="http://www.w3.org/2000/svg" width="20" height="15" viewBox="0 0 20 15">
  <metadata><?xpacket begin="﻿" id="W5M0MpCehiHzreSzNTczkc9d"?>
<x:xmpmeta xmlns:x="adobe:ns:meta/" x:xmptk="Adobe XMP Core 5.6-c138 79.159824, 2016/09/14-01:09:01        ">
   <rdf:RDF xmlns:rdf="http://www.w3.org/1999/02/22-rdf-syntax-ns#">
      <rdf:Description rdf:about=""/>
   </rdf:RDF>
</x:xmpmeta>
                                                                                                    
                                                                                                    
                                                                                                    
                                                                                                    
                                                                                                    
                                                                                                    
                                                                                                    
                                                                                                    
                                                                                                    
                                                                                                    
                                                                                                    
                                                                                                    
                                                                                                    
                                                                                                    
                                                                                                    
                                                                                                    
                                                                                                    
                                                                                                    
                                                                                                    
                                                                                                    
                           
<?xpacket end="w"?></metadata>
<defs>
    <style>
      .cls-1 {
        fill: #fff;
        fill-rule: evenodd;
      }
    </style>
  </defs>
  <path id="Forma_1" data-name="Forma 1" class="cls-1" d="M455.082,2290H436.917a0.928,0.928,0,0,0-.917.94v13.12a0.928,0.928,0,0,0,.917.94h18.165a0.929,0.929,0,0,0,.918-0.94v-13.12A0.929,0.929,0,0,0,455.082,2290Zm-0.6,13.45H437.514v-6.54h16.972v6.54h0Zm0-9.74H437.514v-2.16h16.972v2.16h0Zm-5.436,8.54a1.545,1.545,0,0,1,2.312,0,1.6,1.6,0,0,0,0-3.2,1.526,1.526,0,0,1-2.312,0A1.6,1.6,0,0,0,449.05,2302.25Z" transform="translate(-436 -2290)"/>
</svg>
