<svg xmlns="http://www.w3.org/2000/svg" width="16" height="16" viewBox="0 0 16 16">
  <metadata><?xpacket begin="﻿" id="W5M0MpCehiHzreSzNTczkc9d"?>
<x:xmpmeta xmlns:x="adobe:ns:meta/" x:xmptk="Adobe XMP Core 5.6-c138 79.159824, 2016/09/14-01:09:01        ">
   <rdf:RDF xmlns:rdf="http://www.w3.org/1999/02/22-rdf-syntax-ns#">
      <rdf:Description rdf:about=""/>
   </rdf:RDF>
</x:xmpmeta>
                                                                                                    
                                                                                                    
                                                                                                    
                                                                                                    
                                                                                                    
                                                                                                    
                                                                                                    
                                                                                                    
                                                                                                    
                                                                                                    
                                                                                                    
                                                                                                    
                                                                                                    
                                                                                                    
                                                                                                    
                                                                                                    
                                                                                                    
                                                                                                    
                                                                                                    
                                                                                                    
                           
<?xpacket end="w"?></metadata>
<defs>
    <style>
      .cls-1 {
        fill: #fff;
        fill-rule: evenodd;
      }
    </style>
  </defs>
  <path id="Фигура_904_копия" data-name="Фигура 904 копия" class="cls-1" d="M763.8,1043.8a1.6,1.6,0,1,0,1.6,1.6A1.6,1.6,0,0,0,763.8,1043.8ZM759,1031v1.6h1.6l2.88,6.08-1.12,1.92a2.842,2.842,0,0,0-.16.8,1.6,1.6,0,0,0,1.6,1.6h9.6v-1.6h-9.28a0.172,0.172,0,0,1-.16-0.16v-0.08l0.72-1.36h5.92a1.459,1.459,0,0,0,1.36-.8l2.88-5.2a0.44,0.44,0,0,0,.16-0.4,0.756,0.756,0,0,0-.8-0.8H762.36l-0.72-1.6H759Zm12.8,12.8a1.6,1.6,0,1,0,1.6,1.6A1.6,1.6,0,0,0,771.8,1043.8Z" transform="translate(-759 -1031)"/>
</svg>
