<svg xmlns="http://www.w3.org/2000/svg" width="12" height="11.968" viewBox="0 0 12 11.968">
  <metadata><?xpacket begin="﻿" id="W5M0MpCehiHzreSzNTczkc9d"?>
<x:xmpmeta xmlns:x="adobe:ns:meta/" x:xmptk="Adobe XMP Core 5.6-c138 79.159824, 2016/09/14-01:09:01        ">
   <rdf:RDF xmlns:rdf="http://www.w3.org/1999/02/22-rdf-syntax-ns#">
      <rdf:Description rdf:about=""/>
   </rdf:RDF>
</x:xmpmeta>
                                                                                                    
                                                                                                    
                                                                                                    
                                                                                                    
                                                                                                    
                                                                                                    
                                                                                                    
                                                                                                    
                                                                                                    
                                                                                                    
                                                                                                    
                                                                                                    
                                                                                                    
                                                                                                    
                                                                                                    
                                                                                                    
                                                                                                    
                                                                                                    
                                                                                                    
                                                                                                    
                           
<?xpacket end="w"?></metadata>
<defs>
    <style>
      .cls-1 {
        fill: #fff;
        fill-rule: evenodd;
      }
    </style>
  </defs>
  <path id="Фигура_904_копия" data-name="Фигура 904 копия" class="cls-1" d="M270.1,667.4a1.2,1.2,0,1,0,1.2,1.2A1.2,1.2,0,0,0,270.1,667.4Zm-3.6-9.589v1.2h1.2l2.159,4.554L269.018,665a2.125,2.125,0,0,0-.12.6,1.2,1.2,0,0,0,1.2,1.2h7.195v-1.2h-6.955a0.13,0.13,0,0,1-.12-0.12v-0.06l0.54-1.019h4.437a1.1,1.1,0,0,0,1.019-.6l2.158-3.9a0.33,0.33,0,0,0,.12-0.3,0.566,0.566,0,0,0-.6-0.6h-8.874l-0.539-1.2H266.5Zm9.593,9.589a1.2,1.2,0,1,0,1.2,1.2A1.2,1.2,0,0,0,276.093,667.4Z" transform="translate(-266.5 -657.813)"/>
</svg>
