<svg xmlns="http://www.w3.org/2000/svg" width="12" height="12" viewBox="0 0 12 12">
  <metadata><?xpacket begin="﻿" id="W5M0MpCehiHzreSzNTczkc9d"?>
<x:xmpmeta xmlns:x="adobe:ns:meta/" x:xmptk="Adobe XMP Core 5.6-c138 79.159824, 2016/09/14-01:09:01        ">
   <rdf:RDF xmlns:rdf="http://www.w3.org/1999/02/22-rdf-syntax-ns#">
      <rdf:Description rdf:about=""/>
   </rdf:RDF>
</x:xmpmeta>
                                                                                                    
                                                                                                    
                                                                                                    
                                                                                                    
                                                                                                    
                                                                                                    
                                                                                                    
                                                                                                    
                                                                                                    
                                                                                                    
                                                                                                    
                                                                                                    
                                                                                                    
                                                                                                    
                                                                                                    
                                                                                                    
                                                                                                    
                                                                                                    
                                                                                                    
                                                                                                    
                           
<?xpacket end="w"?></metadata>
<defs>
    <style>
      .cls-1 {
        fill: #e3a3cc;
        fill-rule: evenodd;
      }
    </style>
  </defs>
  <path id="Фигура_904_копия_2" data-name="Фигура 904 копия 2" class="cls-1" d="M110.6,264.222a1.2,1.2,0,1,0,1.2,1.2A1.2,1.2,0,0,0,110.6,264.222Zm-3.6-9.6v1.2h1.2l2.16,4.562-0.84,1.441a2.125,2.125,0,0,0-.12.6,1.2,1.2,0,0,0,1.2,1.2h7.2v-1.2h-6.96a0.129,0.129,0,0,1-.12-0.12v-0.06l0.54-1.021h4.44a1.094,1.094,0,0,0,1.02-.6l2.16-3.9a0.33,0.33,0,0,0,.12-0.3,0.567,0.567,0,0,0-.6-0.6h-8.88l-0.54-1.2H107Zm9.6,9.6a1.2,1.2,0,1,0,1.2,1.2A1.2,1.2,0,0,0,116.6,264.222Z" transform="translate(-107 -254.625)"/>
</svg>
