<svg xmlns="http://www.w3.org/2000/svg" width="47" height="29" viewBox="0 0 47 29">
  <metadata><?xpacket begin="﻿" id="W5M0MpCehiHzreSzNTczkc9d"?>
<x:xmpmeta xmlns:x="adobe:ns:meta/" x:xmptk="Adobe XMP Core 5.6-c138 79.159824, 2016/09/14-01:09:01        ">
   <rdf:RDF xmlns:rdf="http://www.w3.org/1999/02/22-rdf-syntax-ns#">
      <rdf:Description rdf:about=""/>
   </rdf:RDF>
</x:xmpmeta>
                                                                                                    
                                                                                                    
                                                                                                    
                                                                                                    
                                                                                                    
                                                                                                    
                                                                                                    
                                                                                                    
                                                                                                    
                                                                                                    
                                                                                                    
                                                                                                    
                                                                                                    
                                                                                                    
                                                                                                    
                                                                                                    
                                                                                                    
                                                                                                    
                                                                                                    
                                                                                                    
                           
<?xpacket end="w"?></metadata>
<defs>
    <style>
      .cls-1 {
        fill-rule: evenodd;
      }
    </style>
  </defs>
  <path class="cls-1" d="M1121.11,815.884c-0.92-1.9-4.22-4.535-7.41-7.081-1.78-1.419-3.46-2.761-4.53-3.819a0.982,0.982,0,0,0-1.02-.226c-0.66.236-1.07,0.418-1.39,0.559a3.315,3.315,0,0,1-1.32.356,0.965,0.965,0,0,0-.71.423c-1.39,2.044-2.82,1.87-3.78,1.553a0.476,0.476,0,0,1-.39-0.354c-0.2-.849.83-2.825,2.17-4.146,3.18-3.144,4.82-3.931,8.29-2.4,3.93,1.736,7.87,3.095,7.91,3.109a0.972,0.972,0,0,0,1.24-.6,0.961,0.961,0,0,0-.6-1.231c-0.04-.014-3.9-1.346-7.75-3.049-4.49-1.982-6.96-.677-10.48,2.8-1.34,1.323-3.16,4-2.69,5.961a2.42,2.42,0,0,0,1.69,1.742,166.124,166.124,0,0,1,7.22-2.4c0.18-.081.4-0.176,0.68-0.29,1.12,1.039,2.64,2.247,4.23,3.517,2.88,2.3,6.14,4.906,6.88,6.414a1.121,1.121,0,0,1-.3,1.452,1.077,1.077,0,0,1-1.2.234,1,1,0,0,0-1.06-.035,0.961,0.961,0,0,0-.47.934,1.189,1.189,0,0,1-.75,1.089,1.527,1.527,0,0,1-1.53.034,0.988,0.988,0,0,0-1.01-.2,0.962,0.962,0,0,0-.63.814,1.85,1.85,0,0,1-1.16,1.481,1.036,1.036,0,0,1-1.12-.172,0.989,0.989,0,0,0-.89-0.224,0.971,0.971,0,0,0-.69.609c-0.04.1-.12,0.328-1.04,0.328a5.685,5.685,0,0,1-2.4-.81c-0.69-.446-5-3.621-8.72-6.7-0.52-.436-1.43-1.367-2.23-2.191-0.71-.731-1.35-1.394-1.69-1.673a0.983,0.983,0,0,0-1.38.115,0.961,0.961,0,0,0,.12,1.363c0.3,0.253.89,0.866,1.54,1.533,0.87,0.9,1.77,1.833,2.38,2.336,3.65,3.014,8.03,6.268,8.9,6.835A7.6,7.6,0,0,0,1107.5,825a3.376,3.376,0,0,0,2.22-.646,3.093,3.093,0,0,0,2.23-.023,4.456,4.456,0,0,1,4.5-2.208,3.3,3.3,0,0,0,1.63-1.686,3.242,3.242,0,0,0,2.25-.795A3.051,3.051,0,0,0,1121.11,815.884Zm-17.53-16.02h-8.81a0.967,0.967,0,1,0,0,1.934h8.81A0.967,0.967,0,1,0,1103.58,799.864Zm20.4,13.962a0.985,0.985,0,0,0-1.36-.263l-2.86,1.9a0.961,0.961,0,0,0-.27,1.342,0.99,0.99,0,0,0,1.36.263l2.86-1.9A0.961,0.961,0,0,0,1123.98,813.826Zm-6.08,4.614c-0.7-.546-3.84-3.715-5.77-5.71a0.992,0.992,0,0,0-1.39-.029,0.962,0.962,0,0,0-.03,1.367c0.5,0.518,4.94,5.087,5.98,5.892a0.956,0.956,0,0,0,.6.206,0.978,0.978,0,0,0,.77-0.369A0.948,0.948,0,0,0,1117.9,818.44Zm-3.91,1.939c-1.18-.926-4.12-4.018-4.79-4.733a0.983,0.983,0,0,0-1.38-.058,0.954,0.954,0,0,0-.06,1.367c0.03,0.037,3.55,3.786,5,4.934a0.995,0.995,0,0,0,1.38-.151A0.958,0.958,0,0,0,1113.99,820.379Zm-3.9,1.947c-1.4-1.162-4.25-4.165-4.81-4.755a1,1,0,0,0-1.39-.046,0.962,0.962,0,0,0-.04,1.367c0.8,0.849,3.53,3.711,4.98,4.913a0.96,0.96,0,0,0,.63.228,1,1,0,0,0,.75-0.344A0.961,0.961,0,0,0,1110.09,822.326Zm-14.65-24.13c-1.67-1.57-8.39-2.079-10.4-2.2a0.969,0.969,0,0,0-.73.261,0.948,0.948,0,0,0-.31.7v17.4a0.975,0.975,0,0,0,.98.967h5.87a0.969,0.969,0,0,0,.93-0.668c0.15-.433,3.52-10.657,3.97-15.684A0.971,0.971,0,0,0,1095.44,798.2Zm-5.3,15.2h-4.18V798c3.15,0.246,6.54.78,7.77,1.371C1093.22,803.606,1090.87,811.129,1090.14,813.4Zm39.88-15.468c-7.69,0-11.95,1.943-12.13,2.024a0.925,0.925,0,0,0-.52.6,0.984,0.984,0,0,0,.1.786c1.21,1.923,5,12.608,5.73,15.214a0.987,0.987,0,0,0,.95.71h5.87a0.974,0.974,0,0,0,.98-0.967V798.9A0.973,0.973,0,0,0,1130.02,797.931Zm-0.98,17.4h-4.16c-0.93-2.986-3.67-10.77-5.2-13.988a32.224,32.224,0,0,1,9.36-1.469v15.457Z" transform="translate(-1084 -796)"/>
</svg>
