<svg xmlns="http://www.w3.org/2000/svg" width="44" height="43" viewBox="0 0 44 43">
  <metadata><?xpacket begin="﻿" id="W5M0MpCehiHzreSzNTczkc9d"?>
<x:xmpmeta xmlns:x="adobe:ns:meta/" x:xmptk="Adobe XMP Core 5.6-c138 79.159824, 2016/09/14-01:09:01        ">
   <rdf:RDF xmlns:rdf="http://www.w3.org/1999/02/22-rdf-syntax-ns#">
      <rdf:Description rdf:about=""/>
   </rdf:RDF>
</x:xmpmeta>
                                                                                                    
                                                                                                    
                                                                                                    
                                                                                                    
                                                                                                    
                                                                                                    
                                                                                                    
                                                                                                    
                                                                                                    
                                                                                                    
                                                                                                    
                                                                                                    
                                                                                                    
                                                                                                    
                                                                                                    
                                                                                                    
                                                                                                    
                                                                                                    
                                                                                                    
                                                                                                    
                           
<?xpacket end="w"?></metadata>
<defs>
    <style>
      .cls-1 {
        fill-rule: evenodd;
      }
    </style>
  </defs>
  <path id="Forma_1" data-name="Forma 1" class="cls-1" d="M1395.05,794.257a6.331,6.331,0,0,0,1.38,3.973v1.526a0.931,0.931,0,0,1-.44.241l-2.64.682-0.02,0a3.645,3.645,0,0,0-2.56,3.486v0.761a1.584,1.584,0,0,0,1.64,1.512l15.18,0a1.584,1.584,0,0,0,1.64-1.512v-0.761a3.643,3.643,0,0,0-2.56-3.485,0.142,0.142,0,0,0-.02,0l-2.64-.682a0.922,0.922,0,0,1-.44-0.241v-1.436a6.077,6.077,0,0,0,1.41-3.928v-1.064a9.815,9.815,0,0,0-.06-6.2v-0.007a0.078,0.078,0,0,1-.02-0.041c-0.01-.007-0.01-0.015-0.02-0.023a0.059,0.059,0,0,0-.02-0.033,0.048,0.048,0,0,0-.02-0.027c0-.008-0.01-0.016-0.01-0.024l-0.03-.031c-0.01,0-.01-0.01-0.02-0.016l-0.03-.033s-0.01-.008-0.01-0.012a0.139,0.139,0,0,1-.04-0.032,0.186,0.186,0,0,1-.02-0.01,0.12,0.12,0,0,0-.04-0.027,0.029,0.029,0,0,0-.02-0.012,0.144,0.144,0,0,0-.04-0.021c-0.01,0-.01-0.008-0.02-0.012a0.247,0.247,0,0,1-.04-0.014l-0.03-.011-0.03-.01-0.04-.008-0.03-.007-0.03,0-0.04,0h-0.09l-0.05,0h-0.01a7.021,7.021,0,0,1-2.4-.312c-1.56-.371-3.32-0.789-4.87.316a2.866,2.866,0,0,0-2.55,3.058,19.91,19.91,0,0,0,.7,3.9v0.589h0Zm8.51-1.043v1.176a4.686,4.686,0,0,1-1.2,3.169c-0.01,0-.01,0-0.01.006a3.217,3.217,0,0,1-2.34,1.091c-1.88,0-3.54-2.056-3.54-4.4v-0.241a8.4,8.4,0,0,1,.53-2.373,21,21,0,0,1,6.56,1.18v0.391h0Zm-1.41,6.55a1.56,1.56,0,0,0,.92,1.362,4.872,4.872,0,0,1-6.13,0,1.567,1.567,0,0,0,.91-1.358v-0.3a4.271,4.271,0,0,0,2.16.6,4.4,4.4,0,0,0,2.14-.56v0.257Zm5.66,4.4v0.761a0.226,0.226,0,0,1-.22.1l-15.18,0a0.226,0.226,0,0,1-.22-0.1v-0.761a2.206,2.206,0,0,1,1.52-2.125l1.72-.442a6.191,6.191,0,0,0,9.15,0l1.71,0.44A2.206,2.206,0,0,1,1407.81,804.166Zm-10.65-16.054h0.01q0.03,0,.06,0l0.02,0,0.05-.007a0.056,0.056,0,0,1,.02-0.007,0.163,0.163,0,0,0,.04-0.01l0.03-.01c0.01,0,.03-0.008.04-0.013l0.03-.014,0.03-.015a0.144,0.144,0,0,1,.04-0.021,0.039,0.039,0,0,1,.02-0.015,0.374,0.374,0,0,0,.04-0.032,0.167,0.167,0,0,0,.02-0.008c1.04-.848,2.39-0.525,3.83-0.184a10.42,10.42,0,0,0,2.33.374,8.428,8.428,0,0,1,.17,3.315,22.334,22.334,0,0,0-7.44-1.232h0l-0.05,0-0.03,0-0.03,0-0.04.006a0.045,0.045,0,0,1-.02.006c-0.01,0-.03.008-0.05,0.013v0l-0.06.021h0c-0.02.009-.04,0.018-0.06,0.029a0.047,0.047,0,0,1-.01,0c-0.02.01-.03,0.019-0.05,0.03l-0.03.021a0.041,0.041,0,0,1-.02.019c-0.01.011-.03,0.022-0.04,0.034s-0.01.007-.01,0.011a0.144,0.144,0,0,1-.04.036,0.014,0.014,0,0,1-.01.015c-0.01.01-.01,0.021-0.02,0.032s-0.01.016-.02,0.024-0.01.017-.02,0.026a0.064,0.064,0,0,1-.02.035,0.021,0.021,0,0,1-.01.021c0,0.009-.01.018-0.01,0.027a6.192,6.192,0,0,1-.08-0.878A1.458,1.458,0,0,1,1397.16,788.112Zm-3.27,35.128s0,0-.01,0l-2.64-.682a0.931,0.931,0,0,1-.44-0.241v-1.436a6.079,6.079,0,0,0,1.41-3.928v-1.064a9.815,9.815,0,0,0-.06-6.2v-0.007l-0.03-.043a0.02,0.02,0,0,0-.01-0.02,0.067,0.067,0,0,0-.02-0.038c-0.01-.007-0.01-0.015-0.02-0.021a0.057,0.057,0,0,0-.02-0.032c-0.01-.008-0.01-0.015-0.02-0.023a0.048,0.048,0,0,1-.02-0.025l-0.03-.024a0.041,0.041,0,0,1-.02-0.023l-0.03-.021-0.03-.022-0.03-.016a0.121,0.121,0,0,0-.04-0.022s-0.01-.007-0.01-0.011a0.341,0.341,0,0,1-.05-0.02c-0.01,0-.01,0-0.02-0.006a0.18,0.18,0,0,0-.05-0.017s-0.01,0-.01,0l-0.05-.011c-0.01,0-.01,0-0.02,0l-0.04,0-0.03,0-0.03,0h-0.04l-0.03,0-0.04,0c-0.01,0-.01,0-0.01,0a7.021,7.021,0,0,1-2.4-.312c-1.56-.371-3.33-0.79-4.87.316a2.866,2.866,0,0,0-2.55,3.058,19.91,19.91,0,0,0,.7,3.9v0.589a6.331,6.331,0,0,0,1.38,3.973v1.526a0.99,0.99,0,0,1-.44.241l-2.64.682-0.02,0a3.644,3.644,0,0,0-2.56,3.485v0.762a1.578,1.578,0,0,0,1.64,1.512l15.18,0a1.584,1.584,0,0,0,1.64-1.512v-0.761A3.64,3.64,0,0,0,1393.89,823.24Zm-10.19-6.665a8.737,8.737,0,0,1,.52-2.373,21.021,21.021,0,0,1,6.57,1.18v1.567a4.648,4.648,0,0,1-1.21,3.169v0.006a3.231,3.231,0,0,1-2.34,1.091c-1.89,0-3.54-2.056-3.54-4.4v-0.241Zm1.38,5.75v-0.3a4.271,4.271,0,0,0,2.16.6,4.389,4.389,0,0,0,2.14-.561v0.258a1.56,1.56,0,0,0,.92,1.362,4.87,4.87,0,0,1-6.13,0A1.564,1.564,0,0,0,1385.08,822.325Zm-0.69-11.654h0c0.03,0,.04,0,0.07,0l0.02,0c0.01,0,.03,0,0.04-0.007l0.03-.007a0.163,0.163,0,0,0,.04-0.01l0.03-.01a0.268,0.268,0,0,1,.04-0.013l0.03-.014,0.03-.015,0.03-.021,0.03-.015c0.01-.01.03-0.02,0.04-0.031s0.01-.006.01-0.009c1.05-.848,2.4-0.526,3.84-0.184a10.477,10.477,0,0,0,2.33.374,8.428,8.428,0,0,1,.17,3.315,22.327,22.327,0,0,0-7.44-1.233h-0.01l-0.04,0-0.03,0-0.03,0c-0.01,0-.03,0-0.04.007l-0.02,0c-0.01,0-.03.008-0.05,0.014h0a0.889,0.889,0,0,0-.12.052s-0.01,0-.01,0c-0.02.01-.03,0.021-0.05,0.032a0.037,0.037,0,0,0-.02.019l-0.03.021a0.126,0.126,0,0,0-.04.033s-0.01.008-.01,0.012a0.144,0.144,0,0,1-.04.036,0.014,0.014,0,0,1-.01.015,0.054,0.054,0,0,0-.02.032,0.043,0.043,0,0,0-.02.024c-0.01.008-.01,0.017-0.02,0.026a0.067,0.067,0,0,1-.02.035,0.021,0.021,0,0,1-.01.021c0,0.009-.01.018-0.01,0.027a6.192,6.192,0,0,1-.08-0.878A1.458,1.458,0,0,1,1384.39,810.671Zm10.65,16.815a0.226,0.226,0,0,1-.22.1l-15.18,0a0.226,0.226,0,0,1-.22-0.1v-0.762a2.206,2.206,0,0,1,1.52-2.124l1.71-.443a6.2,6.2,0,0,0,9.16,0l1.71,0.44a2.207,2.207,0,0,1,1.52,2.125v0.761h0Zm24.4-4.246c-0.01,0-.01,0-0.02,0l-2.64-.682a0.981,0.981,0,0,1-.44-0.241v-1.428s0,0,.01-0.008a6.123,6.123,0,0,0,1.4-3.928v-1.064a9.741,9.741,0,0,0-.06-6.2v-0.007a0.081,0.081,0,0,1-.02-0.042c-0.01-.007-0.01-0.014-0.02-0.021a0.06,0.06,0,0,0-.02-0.036c0-.008-0.01-0.016-0.01-0.024l-0.03-.028a0.048,0.048,0,0,0-.02-0.027c-0.01-.007-0.01-0.014-0.02-0.021l-0.03-.028a0.036,0.036,0,0,0-.02-0.018l-0.03-.026-0.03-.018c-0.01-.006-0.01-0.013-0.02-0.019a0.189,0.189,0,0,1-.04-0.019,0.243,0.243,0,0,0-.02-0.014c-0.02-.007-0.03-0.013-0.05-0.019a0.07,0.07,0,0,1-.01-0.008,0.465,0.465,0,0,1-.05-0.015l-0.02-.006c-0.01,0-.03-0.007-0.04-0.01l-0.03,0a0.235,0.235,0,0,0-.04,0l-0.03,0h-0.07l-0.02,0a0.458,0.458,0,0,0-.05,0,0.034,0.034,0,0,0-.01,0,7.046,7.046,0,0,1-2.4-.312c-1.56-.371-3.32-0.79-4.87.316a2.866,2.866,0,0,0-2.55,3.058,19.08,19.08,0,0,0,.71,3.9v0.588a6.324,6.324,0,0,0,1.37,3.974v1.526a0.931,0.931,0,0,1-.44.241l-2.64.682c-0.01,0-.01,0-0.01,0a3.641,3.641,0,0,0-2.57,3.485v0.762a1.585,1.585,0,0,0,1.64,1.512l15.18,0a1.578,1.578,0,0,0,1.64-1.512v-0.761A3.643,3.643,0,0,0,1419.44,823.24Zm-10.19-6.665a8.379,8.379,0,0,1,.52-2.373,20.938,20.938,0,0,1,6.56,1.18v1.567a4.688,4.688,0,0,1-1.2,3.169s-0.01,0-.01.006a3.217,3.217,0,0,1-2.34,1.091c-1.88,0-3.53-2.056-3.53-4.4v-0.241h0Zm1.37,5.75v-0.3a4.271,4.271,0,0,0,2.16.6,4.389,4.389,0,0,0,2.14-.561v0.258a1.578,1.578,0,0,0,.92,1.362,4.87,4.87,0,0,1-6.13,0A1.564,1.564,0,0,0,1410.62,822.325Zm-0.69-11.654a0.016,0.016,0,0,1,.01,0l0.06,0a0.138,0.138,0,0,0,.02,0l0.05-.007a0.033,0.033,0,0,0,.02-0.007,0.163,0.163,0,0,0,.04-0.01l0.03-.01a0.143,0.143,0,0,0,.04-0.013l0.03-.014,0.03-.015c0.01-.007.03-0.014,0.04-0.021a0.039,0.039,0,0,1,.02-0.015,0.123,0.123,0,0,0,.04-0.031,0.176,0.176,0,0,1,.02-0.009c1.04-.848,2.4-0.526,3.83-0.184a10.477,10.477,0,0,0,2.33.374,8.585,8.585,0,0,1,.18,3.315,22.457,22.457,0,0,0-7.45-1.233h0l-0.05,0-0.03,0-0.03,0-0.04.007-0.02,0a0.317,0.317,0,0,0-.04.014c-0.01,0-.01,0-0.01,0a0.889,0.889,0,0,0-.12.052v0l-0.06.033c-0.01.006-.01,0.012-0.02,0.019s-0.02.013-.03,0.021-0.03.022-.04,0.033-0.01.008-.01,0.012l-0.03.037a0.243,0.243,0,0,0-.02.014c-0.01.01-.01,0.022-0.02,0.032s-0.01.016-.02,0.024-0.01.017-.01,0.026a0.064,0.064,0,0,0-.02.035c-0.01.007-.01,0.014-0.02,0.021a0.031,0.031,0,0,1-.01.027,6.18,6.18,0,0,1-.08-0.878A1.464,1.464,0,0,1,1409.93,810.671Zm10.65,16.815a0.226,0.226,0,0,1-.22.1l-15.18,0a0.226,0.226,0,0,1-.22-0.1v-0.762a2.206,2.206,0,0,1,1.52-2.124l1.72-.443a6.19,6.19,0,0,0,9.15,0l1.71,0.44a2.207,2.207,0,0,1,1.52,2.125v0.761h0Zm-13.85-31.832a12.622,12.622,0,0,1,6.05,10.791,0.71,0.71,0,0,0,1.42,0,14.021,14.021,0,0,0-1.85-6.962,14.2,14.2,0,0,0-4.88-5.028,0.7,0.7,0,0,0-.97.228A0.694,0.694,0,0,0,1406.73,795.654Zm-20.21,11.5a0.7,0.7,0,0,0,.71-0.706,12.622,12.622,0,0,1,6.05-10.791,0.7,0.7,0,1,0-.74-1.2,14.191,14.191,0,0,0-4.88,5.028,14.021,14.021,0,0,0-1.85,6.962A0.709,0.709,0,0,0,1386.52,807.151Zm19.8,11.15a0.705,0.705,0,0,0-.94-0.343,12.871,12.871,0,0,1-10.75,0,0.719,0.719,0,0,0-.95.342,0.707,0.707,0,0,0,.35.937,14.306,14.306,0,0,0,11.95,0A0.694,0.694,0,0,0,1406.32,818.3Z" transform="translate(-1378 -786)"/>
</svg>
