<svg xmlns="http://www.w3.org/2000/svg" width="41" height="36" viewBox="0 0 41 36">
  <metadata><?xpacket begin="﻿" id="W5M0MpCehiHzreSzNTczkc9d"?>
<x:xmpmeta xmlns:x="adobe:ns:meta/" x:xmptk="Adobe XMP Core 5.6-c138 79.159824, 2016/09/14-01:09:01        ">
   <rdf:RDF xmlns:rdf="http://www.w3.org/1999/02/22-rdf-syntax-ns#">
      <rdf:Description rdf:about=""/>
   </rdf:RDF>
</x:xmpmeta>
                                                                                                    
                                                                                                    
                                                                                                    
                                                                                                    
                                                                                                    
                                                                                                    
                                                                                                    
                                                                                                    
                                                                                                    
                                                                                                    
                                                                                                    
                                                                                                    
                                                                                                    
                                                                                                    
                                                                                                    
                                                                                                    
                                                                                                    
                                                                                                    
                                                                                                    
                                                                                                    
                           
<?xpacket end="w"?></metadata>
<defs>
    <style>
      .cls-1 {
        fill-rule: evenodd;
      }
    </style>
  </defs>
  <path class="cls-1" d="M833.943,812.208a1.142,1.142,0,0,0-1.443-.727L814.359,817.5a4.865,4.865,0,0,0-4.153-2.318H810c-0.084,0-.177.009-0.262,0.017l-7.2-21.734a1.134,1.134,0,0,0-.574-0.66l-7.319-3.689a1.14,1.14,0,0,0-1.022,2.039l6.906,3.477,7.048,21.32a5,5,0,0,0-.979.821A4.9,4.9,0,0,0,810.2,825h0.2a4.9,4.9,0,0,0,4.685-5.1,1.894,1.894,0,0,0-.017-0.211l18.149-6.024A1.158,1.158,0,0,0,833.943,812.208Zm-23.636,10.5a2.611,2.611,0,0,1-2.026-4.382,2.566,2.566,0,0,1,1.815-.838h0.11A2.611,2.611,0,0,1,810.307,822.707Zm1.975-8.612a1.146,1.146,0,0,0,1.081.786,1.044,1.044,0,0,0,.354-0.059L831.242,809a1.125,1.125,0,0,0,.658-0.575,1.151,1.151,0,0,0,.068-0.871l-5.749-17.411a1.131,1.131,0,0,0-.574-0.66,1.151,1.151,0,0,0-.869-0.068l-8.762,2.919h0l-8.763,2.91a1.148,1.148,0,0,0-.726,1.447Zm3.369-19.239,1.392,4.222a1.147,1.147,0,0,0,1.081.787,1.021,1.021,0,0,0,.354-0.06,1.145,1.145,0,0,0,.726-1.446l-1.392-4.222,6.6-2.191,5.04,15.245-15.364,5.1-5.04-15.237Z" transform="translate(-793 -789)"/>
</svg>
