<svg xmlns="http://www.w3.org/2000/svg" width="45" height="39" viewBox="0 0 45 39">
  <metadata><?xpacket begin="﻿" id="W5M0MpCehiHzreSzNTczkc9d"?>
<x:xmpmeta xmlns:x="adobe:ns:meta/" x:xmptk="Adobe XMP Core 5.6-c138 79.159824, 2016/09/14-01:09:01        ">
   <rdf:RDF xmlns:rdf="http://www.w3.org/1999/02/22-rdf-syntax-ns#">
      <rdf:Description rdf:about=""/>
   </rdf:RDF>
</x:xmpmeta>
                                                                                                    
                                                                                                    
                                                                                                    
                                                                                                    
                                                                                                    
                                                                                                    
                                                                                                    
                                                                                                    
                                                                                                    
                                                                                                    
                                                                                                    
                                                                                                    
                                                                                                    
                                                                                                    
                                                                                                    
                                                                                                    
                                                                                                    
                                                                                                    
                                                                                                    
                                                                                                    
                           
<?xpacket end="w"?></metadata>
<defs>
    <style>
      .cls-1 {
        fill-rule: evenodd;
      }
    </style>
  </defs>
  <path class="cls-1" d="M530.971,807.239h-6.115a3.026,3.026,0,0,0-3.034,3.012v4.654a3.026,3.026,0,0,0,3.034,3.012h6.115a3.026,3.026,0,0,0,3.034-3.012v-4.654A3.026,3.026,0,0,0,530.971,807.239Zm0.827,7.666a0.828,0.828,0,0,1-.827.822h-6.115a0.826,0.826,0,0,1-.827-0.822v-4.654a0.826,0.826,0,0,1,.827-0.822h6.115a0.827,0.827,0,0,1,.827.822v4.654ZM544,798.778a1.015,1.015,0,0,0-.147-0.539l-6.694-11.682A1.11,1.11,0,0,0,536.2,786H506.788a1.092,1.092,0,0,0-.956.557l-6.685,11.682a1.1,1.1,0,0,0-.147.539,6.406,6.406,0,0,0,3.862,5.859v19.268a1.1,1.1,0,0,0,1.1,1.1h35.06a1.1,1.1,0,0,0,1.1-1.1V804.774a0.5,0.5,0,0,0-.009-0.119A6.423,6.423,0,0,0,544,798.778ZM507.432,788.2h28.127l5.232,9.136H502.209Zm23.594,11.317a4.246,4.246,0,0,1-8.349,0h8.349Zm-10.694,0a4.252,4.252,0,0,1-8.358,0h8.358Zm-19.052,0h8.358A4.252,4.252,0,0,1,501.28,799.517Zm16.257,23.292h-6.345V810.99a1.566,1.566,0,0,1,1.573-1.561h3.209a1.566,1.566,0,0,1,1.572,1.561v11.819h-0.009Zm20.385,0H519.744V810.99a3.771,3.771,0,0,0-3.779-3.751h-3.209a3.771,3.771,0,0,0-3.78,3.751v11.829h-3.907V805.176c0.128,0.009.257,0.009,0.386,0.009a6.46,6.46,0,0,0,5.351-2.829,6.476,6.476,0,0,0,10.7,0,6.459,6.459,0,0,0,10.685,0,6.46,6.46,0,0,0,5.351,2.829c0.129,0,.248-0.009.377-0.009v17.633h0Zm-0.377-19.815a4.229,4.229,0,0,1-4.174-3.468h8.358A4.256,4.256,0,0,1,537.545,802.994Z" transform="translate(-499 -786)"/>
</svg>
