<svg
        xmlns="http://www.w3.org/2000/svg"
        xmlns:xlink="http://www.w3.org/1999/xlink"
        width="30px" height="30px">
    <path fill-rule="evenodd"  fill="rgb(0, 0, 0)"
          d="M26.250,24.374 L26.250,29.062 C26.250,29.427 26.036,29.761 25.704,29.913 C25.579,29.971 25.446,30.000 25.312,30.000 C25.093,30.000 24.875,29.923 24.703,29.772 L18.403,24.374 L10.444,24.374 C9.924,24.374 9.506,23.954 9.506,23.437 C9.506,22.919 9.926,22.499 10.444,22.499 L18.750,22.499 C18.973,22.499 19.191,22.578 19.359,22.726 L24.375,27.024 L24.375,23.437 C24.375,22.919 24.795,22.499 25.312,22.499 L26.250,22.499 C27.283,22.499 28.125,21.657 28.125,20.624 L28.125,9.374 C28.125,8.579 27.624,7.872 26.882,7.617 C26.390,7.447 26.132,6.914 26.301,6.425 C26.469,5.936 27.004,5.675 27.493,5.843 C28.993,6.361 30.000,7.781 30.000,9.374 L30.000,20.624 C30.000,22.693 28.318,24.374 26.250,24.374 ZM20.625,18.749 L11.597,18.749 L5.297,24.148 C5.124,24.298 4.907,24.374 4.687,24.374 C4.554,24.374 4.421,24.346 4.296,24.288 C3.964,24.136 3.750,23.802 3.750,23.437 L3.750,18.749 C1.682,18.749 -0.000,17.067 -0.000,14.999 L-0.000,3.749 C-0.000,1.681 1.682,-0.000 3.750,-0.000 L20.625,-0.000 C22.693,-0.000 24.375,1.681 24.375,3.749 L24.375,14.999 C24.375,17.067 22.693,18.749 20.625,18.749 ZM22.500,3.749 C22.500,2.716 21.658,1.874 20.625,1.874 L3.750,1.874 C2.717,1.874 1.875,2.716 1.875,3.749 L1.875,14.999 C1.875,16.032 2.717,16.874 3.750,16.874 L4.687,16.874 C5.205,16.874 5.625,17.294 5.625,17.812 L5.625,21.399 L10.641,17.101 C10.809,16.953 11.027,16.874 11.250,16.874 L20.625,16.874 C21.658,16.874 22.500,16.032 22.500,14.999 L22.500,3.749 Z"/>
</svg>