<svg xmlns="http://www.w3.org/2000/svg" width="26" height="20" viewBox="0 0 26 20">
  <metadata><?xpacket begin="﻿" id="W5M0MpCehiHzreSzNTczkc9d"?>
<x:xmpmeta xmlns:x="adobe:ns:meta/" x:xmptk="Adobe XMP Core 5.6-c142 79.160924, 2017/07/13-01:06:39        ">
   <rdf:RDF xmlns:rdf="http://www.w3.org/1999/02/22-rdf-syntax-ns#">
      <rdf:Description rdf:about=""/>
   </rdf:RDF>
</x:xmpmeta>
                                                                                                    
                                                                                                    
                                                                                                    
                                                                                                    
                                                                                                    
                                                                                                    
                                                                                                    
                                                                                                    
                                                                                                    
                                                                                                    
                                                                                                    
                                                                                                    
                                                                                                    
                                                                                                    
                                                                                                    
                                                                                                    
                                                                                                    
                                                                                                    
                                                                                                    
                                                                                                    
                           
<?xpacket end="w"?></metadata>
<defs>
    <style>
      .cls-1 {
        fill: #84cebf;
        fill-rule: evenodd;
      }
    </style>
  </defs>
  <path id="Forma_1" data-name="Forma 1" class="cls-1" d="M1015.34,2331.57a8.982,8.982,0,0,0,3.72-2.65,5.547,5.547,0,0,0,0-7.3,9.165,9.165,0,0,0-3.72-2.65,14.024,14.024,0,0,0-10.25,0,9.27,9.27,0,0,0-3.73,2.65,5.671,5.671,0,0,0-1.36,3.65,5.506,5.506,0,0,0,1.03,3.19,8.46,8.46,0,0,0,2.83,2.51q-0.15.345-.3,0.63a3.172,3.172,0,0,1-.36.54c-0.14.18-.25,0.32-0.33,0.41a4.584,4.584,0,0,1-.37.42c-0.18.18-.29,0.3-0.34,0.36a0.109,0.109,0,0,0-.06.06,0.131,0.131,0,0,1-.06.07,0.14,0.14,0,0,0-.06.07,0.337,0.337,0,0,1-.05.08l-0.04.07-0.03.09v0.09a0.277,0.277,0,0,0,.01.09,0.479,0.479,0,0,0,.17.3,0.43,0.43,0,0,0,.3.11h0.04a12.654,12.654,0,0,0,1.25-.22,12.407,12.407,0,0,0,4.03-1.82,15.011,15.011,0,0,0,2.55.23A13.282,13.282,0,0,0,1015.34,2331.57Zm-8.11-1.18-0.64.44c-0.27.18-.57,0.36-0.9,0.55l0.51-1.19-1.41-.8a6.563,6.563,0,0,1-2.16-1.87,3.778,3.778,0,0,1-.77-2.25,3.989,3.989,0,0,1,1.14-2.71,7.8,7.8,0,0,1,3.06-2,12.007,12.007,0,0,1,8.3,0,7.771,7.771,0,0,1,3.07,2,3.8,3.8,0,0,1,0,5.43,7.771,7.771,0,0,1-3.07,2,11.539,11.539,0,0,1-4.15.74,13.175,13.175,0,0,1-2.22-.2Zm17.74,1.71a5.452,5.452,0,0,0-.06-6.46,8.464,8.464,0,0,0-2.96-2.52,7.076,7.076,0,0,1-.64,5.76,9.4,9.4,0,0,1-2.78,3.01,12.948,12.948,0,0,1-3.83,1.84,15.868,15.868,0,0,1-4.49.63c-0.29,0-.71-0.01-1.27-0.05a12.358,12.358,0,0,0,6.85,1.87,14.98,14.98,0,0,0,2.55-.22,11.9,11.9,0,0,0,5.28,2.04,0.425,0.425,0,0,0,.32-0.1,0.5,0.5,0,0,0,.19-0.31,0.087,0.087,0,0,1,.01-0.09c0.02-.01.01-0.04,0-0.1s-0.03-.08-0.03-0.08l-0.04-.07a0.922,0.922,0,0,0-.05-0.08,0.217,0.217,0,0,0-.06-0.07c-0.01-.01-0.03-0.04-0.06-0.07s-0.05-.06-0.06-0.07c-0.05-.05-0.16-0.17-0.34-0.35s-0.29-.32-0.37-0.42-0.19-.24-0.33-0.41a3.7,3.7,0,0,1-.36-0.55c-0.1-.19-0.2-0.4-0.3-0.62A8.569,8.569,0,0,0,1024.97,2332.1Z" transform="translate(-1000 -2318)"/>
</svg>
