<svg xmlns="http://www.w3.org/2000/svg" width="33.469" height="20.313" viewBox="0 0 33.469 20.313">
  <metadata><?xpacket begin="﻿" id="W5M0MpCehiHzreSzNTczkc9d"?>
<x:xmpmeta xmlns:x="adobe:ns:meta/" x:xmptk="Adobe XMP Core 5.6-c142 79.160924, 2017/07/13-01:06:39        ">
   <rdf:RDF xmlns:rdf="http://www.w3.org/1999/02/22-rdf-syntax-ns#">
      <rdf:Description rdf:about=""/>
   </rdf:RDF>
</x:xmpmeta>
                                                                                                    
                                                                                                    
                                                                                                    
                                                                                                    
                                                                                                    
                                                                                                    
                                                                                                    
                                                                                                    
                                                                                                    
                                                                                                    
                                                                                                    
                                                                                                    
                                                                                                    
                                                                                                    
                                                                                                    
                                                                                                    
                                                                                                    
                                                                                                    
                                                                                                    
                                                                                                    
                           
<?xpacket end="w"?></metadata>
<defs>
    <style>
      .cls-1 {
        fill-rule: evenodd;
      }
    </style>
  </defs>
  <path id="Прямоугольник_скругл._углы_1_копия_2" data-name="Прямоугольник, скругл. углы 1 копия 2" class="cls-1" d="M52.161,49.687H82.745a1.442,1.442,0,0,1,1.442,1.442v0.022a1.442,1.442,0,0,1-1.442,1.442H52.161a1.442,1.442,0,0,1-1.442-1.442V51.129A1.442,1.442,0,0,1,52.161,49.687Zm0.016,8.688H82.73a1.458,1.458,0,0,1,1.458,1.458v0.021a1.458,1.458,0,0,1-1.458,1.458H52.177a1.458,1.458,0,0,1-1.458-1.458V59.833A1.458,1.458,0,0,1,52.177,58.375Zm-0.016,8.719H73.214a1.442,1.442,0,0,1,1.442,1.442v0.022A1.442,1.442,0,0,1,73.214,70H52.161a1.442,1.442,0,0,1-1.442-1.442V68.536A1.442,1.442,0,0,1,52.161,67.094Z" transform="translate(-50.719 -49.688)"/>
</svg>
