<svg xmlns="http://www.w3.org/2000/svg" width="14.219" height="14.188" viewBox="0 0 14.219 14.188">
  <metadata><?xpacket begin="﻿" id="W5M0MpCehiHzreSzNTczkc9d"?>
<x:xmpmeta xmlns:x="adobe:ns:meta/" x:xmptk="Adobe XMP Core 5.6-c142 79.160924, 2017/07/13-01:06:39        ">
   <rdf:RDF xmlns:rdf="http://www.w3.org/1999/02/22-rdf-syntax-ns#">
      <rdf:Description rdf:about=""/>
   </rdf:RDF>
</x:xmpmeta>
                                                                                                    
                                                                                                    
                                                                                                    
                                                                                                    
                                                                                                    
                                                                                                    
                                                                                                    
                                                                                                    
                                                                                                    
                                                                                                    
                                                                                                    
                                                                                                    
                                                                                                    
                                                                                                    
                                                                                                    
                                                                                                    
                                                                                                    
                                                                                                    
                                                                                                    
                                                                                                    
                           
<?xpacket end="w"?></metadata>
<defs>
    <style>
      .cls-1 {
        fill-rule: evenodd;
      }
    </style>
  </defs>
  <path id="Forma_1" data-name="Forma 1" class="cls-1" d="M84.184,29.231a6.982,6.982,0,0,1-10.34,6.056l-3.859,1.226L71.242,32.8a6.845,6.845,0,0,1-1-3.572A6.971,6.971,0,0,1,84.184,29.231Zm-6.971-5.815a5.845,5.845,0,0,0-5.861,5.815,5.753,5.753,0,0,0,1.117,3.409L71.737,34.8l2.252-.716A5.831,5.831,0,1,0,77.213,23.415Zm3.52,7.408a0.875,0.875,0,0,0-.327-0.2c-0.171-.084-1.011-0.495-1.168-0.551a0.268,0.268,0,0,0-.385.085c-0.114.17-.441,0.552-0.541,0.664a0.263,0.263,0,0,1-.37.043,4.678,4.678,0,0,1-1.374-.842,5.1,5.1,0,0,1-.951-1.174,0.246,0.246,0,0,1,.075-0.346c0.077-.076.171-0.2,0.256-0.3a1.137,1.137,0,0,0,.171-0.283,0.309,0.309,0,0,0-.014-0.3c-0.043-.085-0.385-0.919-0.527-1.259s-0.284-.283-0.384-0.283-0.214-.014-0.328-0.014a0.63,0.63,0,0,0-.456.212,1.9,1.9,0,0,0-.6,1.414,3.282,3.282,0,0,0,.7,1.754,6.986,6.986,0,0,0,2.919,2.559c1.737,0.679,1.737.452,2.051,0.424a1.726,1.726,0,0,0,1.153-.806A1.412,1.412,0,0,0,80.733,30.823Z" transform="translate(-69.969 -22.313)"/>
</svg>
