<svg xmlns="http://www.w3.org/2000/svg" width="13.219" height="13.25" viewBox="0 0 13.219 13.25">
  <metadata><?xpacket begin="﻿" id="W5M0MpCehiHzreSzNTczkc9d"?>
<x:xmpmeta xmlns:x="adobe:ns:meta/" x:xmptk="Adobe XMP Core 5.6-c142 79.160924, 2017/07/13-01:06:39        ">
   <rdf:RDF xmlns:rdf="http://www.w3.org/1999/02/22-rdf-syntax-ns#">
      <rdf:Description rdf:about=""/>
   </rdf:RDF>
</x:xmpmeta>
                                                                                                    
                                                                                                    
                                                                                                    
                                                                                                    
                                                                                                    
                                                                                                    
                                                                                                    
                                                                                                    
                                                                                                    
                                                                                                    
                                                                                                    
                                                                                                    
                                                                                                    
                                                                                                    
                                                                                                    
                                                                                                    
                                                                                                    
                                                                                                    
                                                                                                    
                                                                                                    
                           
<?xpacket end="w"?></metadata>
<defs>
    <style>
      .cls-1 {
        fill: #e3a3cc;
        fill-rule: evenodd;
      }
    </style>
  </defs>
  <path id="Forma_1_копия_3" data-name="Forma 1 копия 3" class="cls-1" d="M120.759,188.623l5.189-5.209a0.832,0.832,0,0,0,0-1.172,0.822,0.822,0,0,0-1.167,0l-5.189,5.209-5.189-5.209a0.822,0.822,0,0,0-1.167,0,0.832,0.832,0,0,0,0,1.172l5.189,5.209-5.189,5.209a0.831,0.831,0,0,0,0,1.171,0.822,0.822,0,0,0,1.167,0l5.189-5.209L124.781,195a0.822,0.822,0,0,0,1.167,0,0.831,0.831,0,0,0,0-1.171Z" transform="translate(-113 -182)"/>
</svg>
