<svg xmlns="http://www.w3.org/2000/svg" width="34.969" height="44" viewBox="0 0 34.969 44">
  <metadata><?xpacket begin="﻿" id="W5M0MpCehiHzreSzNTczkc9d"?>
<x:xmpmeta xmlns:x="adobe:ns:meta/" x:xmptk="Adobe XMP Core 5.6-c142 79.160924, 2017/07/13-01:06:39        ">
   <rdf:RDF xmlns:rdf="http://www.w3.org/1999/02/22-rdf-syntax-ns#">
      <rdf:Description rdf:about=""/>
   </rdf:RDF>
</x:xmpmeta>
                                                                                                    
                                                                                                    
                                                                                                    
                                                                                                    
                                                                                                    
                                                                                                    
                                                                                                    
                                                                                                    
                                                                                                    
                                                                                                    
                                                                                                    
                                                                                                    
                                                                                                    
                                                                                                    
                                                                                                    
                                                                                                    
                                                                                                    
                                                                                                    
                                                                                                    
                                                                                                    
                           
<?xpacket end="w"?></metadata>
<defs>
    <style>
      .cls-1 {
        fill: #95d0c4;
        fill-rule: evenodd;
      }
    </style>
  </defs>
  <path id="Forma_1" data-name="Forma 1" class="cls-1" d="M836.48,2065.12c-0.939-2.02-6.669-3.77-6.669-3.77-3.055-1.04-3.077-2.08-3.077-2.08-6.012,11.46-10.573.03-10.573,0.03-0.419,1.55-6.6,3.36-6.6,3.36a6.05,6.05,0,0,0-2.57,1.68c-2.674,3.84-2.986,12.38-2.986,12.38,0.035,1.94.9,2.15,0.9,2.15,6.15,2.65,15.788,3.12,15.788,3.12a47.4,47.4,0,0,0,17.11-2.72,1.851,1.851,0,0,0,1.076-1.14C839.609,2072.01,836.48,2065.12,836.48,2065.12Zm-21.834-11.91c0.46,3.69,3.737,7.51,6.711,7.51,3.418,0,6.666-4.02,7.173-7.51a1.652,1.652,0,0,0,.624-1.18s0.73-2.52-.237-2.25c0.339-.98,1.454-4.77-0.712-7.13a6.852,6.852,0,0,0-3.477-2.05c-0.085-.07-0.174-0.14-0.273-0.21,0,0,.054.06,0.134,0.17-0.14-.04-0.289-0.07-0.436-0.11q-0.2-.2-0.454-0.42a3.628,3.628,0,0,1,.329.4,1.459,1.459,0,0,0-.2-0.05,3.472,3.472,0,0,0-.421-0.5s0.074,0.13.168,0.34a2.875,2.875,0,0,1-1.368-1.91,2.547,2.547,0,0,0-.9.73,2.21,2.21,0,0,1,.709-1.04,2.428,2.428,0,0,0-.721.59,2.21,2.21,0,0,0-1.091,1.27l-0.195-.09a2.629,2.629,0,0,1,.414-0.64,3.023,3.023,0,0,0-.5.59l-0.395-.19a3.215,3.215,0,0,1,.482-0.65,2.908,2.908,0,0,0-.437.43c0.063-.25.052-0.53-0.747,0.31,0,0-3.6,1.51-4.641,4.64,0,0-.612,1.41.2,5.57-1.153-.53-0.367,2.2-0.367,2.2A1.651,1.651,0,0,0,814.646,2053.21Zm-0.07-1.47h0Zm6.611-13.02a2.237,2.237,0,0,0-.4.89l-0.126-.04A1.966,1.966,0,0,1,821.187,2038.72Z" transform="translate(-804 -2038)"/>
</svg>
