<svg xmlns="http://www.w3.org/2000/svg" width="15" height="14" viewBox="0 0 15 14">
  <metadata><?xpacket begin="﻿" id="W5M0MpCehiHzreSzNTczkc9d"?>
<x:xmpmeta xmlns:x="adobe:ns:meta/" x:xmptk="Adobe XMP Core 5.6-c142 79.160924, 2017/07/13-01:06:39        ">
   <rdf:RDF xmlns:rdf="http://www.w3.org/1999/02/22-rdf-syntax-ns#">
      <rdf:Description rdf:about=""/>
   </rdf:RDF>
</x:xmpmeta>
                                                                                                    
                                                                                                    
                                                                                                    
                                                                                                    
                                                                                                    
                                                                                                    
                                                                                                    
                                                                                                    
                                                                                                    
                                                                                                    
                                                                                                    
                                                                                                    
                                                                                                    
                                                                                                    
                                                                                                    
                                                                                                    
                                                                                                    
                                                                                                    
                                                                                                    
                                                                                                    
                           
<?xpacket end="w"?></metadata>
<defs>
    <style>
      .cls-1 {
        fill: #e6d197;
        fill-rule: evenodd;
      }
    </style>
  </defs>
  <path id="Forma_1_копия_7" data-name="Forma 1 копия 7" class="cls-1" d="M12.411,5.648A0.389,0.389,0,0,0,11.993,5.3L8.249,4.749,6.571,1.308A0.427,0.427,0,0,0,6.205,1a0.427,0.427,0,0,0-.366.31L4.162,4.749,0.417,5.3A0.389,0.389,0,0,0,0,5.648a0.58,0.58,0,0,0,.187.363L2.9,8.689,2.26,12.468a1.214,1.214,0,0,0-.015.151,0.453,0.453,0,0,0,.078.269A0.269,0.269,0,0,0,2.558,13a0.639,0.639,0,0,0,.3-0.09l3.349-1.786,3.349,1.785a0.606,0.606,0,0,0,.3.091,0.307,0.307,0,0,0,.306-0.378,1.17,1.17,0,0,0-.008-0.151L9.51,8.689l2.707-2.677A0.55,0.55,0,0,0,12.411,5.648Z"/>
</svg>
