<svg xmlns="http://www.w3.org/2000/svg" width="29" height="39" viewBox="0 0 29 39">
  <metadata><?xpacket begin="﻿" id="W5M0MpCehiHzreSzNTczkc9d"?>
<x:xmpmeta xmlns:x="adobe:ns:meta/" x:xmptk="Adobe XMP Core 5.6-c142 79.160924, 2017/07/13-01:06:39        ">
   <rdf:RDF xmlns:rdf="http://www.w3.org/1999/02/22-rdf-syntax-ns#">
      <rdf:Description rdf:about=""/>
   </rdf:RDF>
</x:xmpmeta>
                                                                                                    
                                                                                                    
                                                                                                    
                                                                                                    
                                                                                                    
                                                                                                    
                                                                                                    
                                                                                                    
                                                                                                    
                                                                                                    
                                                                                                    
                                                                                                    
                                                                                                    
                                                                                                    
                                                                                                    
                                                                                                    
                                                                                                    
                                                                                                    
                                                                                                    
                                                                                                    
                           
<?xpacket end="w"?></metadata>
<defs>
    <style>
      .cls-1 {
        fill: #d7a4c4;
        fill-rule: evenodd;
      }
    </style>
  </defs>
  <path id="Forma_1" data-name="Forma 1" class="cls-1" d="M1212.57,2062.81a30.781,30.781,0,0,0,5.49-.25,5.054,5.054,0,0,0,1.16.15,4.962,4.962,0,0,0,1.21-.16c5.36,0.26,9.53,1.78,9.53-9.13,0-7.41-4.81-13.42-10.74-13.42s-10.73,6.01-10.73,13.42c0,5.96,1.14,8.27,2.98,9.08A3.984,3.984,0,0,0,1212.57,2062.81Zm-1.71-13.58c1.12,1.56,4.04,1.23,6.55-.74a9.583,9.583,0,0,0,1.65-1.66l0.17,0.03a4.307,4.307,0,0,1,1.42.55,6.16,6.16,0,0,1,.63.41,4.961,4.961,0,0,1,.53.49,5.46,5.46,0,0,1,.75.97,2.666,2.666,0,0,1,.22.39c0.11,0.22.17,0.36,0.17,0.36s-0.02-.14-0.06-0.4c-0.02-.13-0.06-0.27-0.1-0.45a3.417,3.417,0,0,0-.18-0.58,5.133,5.133,0,0,0-.29-0.66c-0.11-.23-0.27-0.45-0.42-0.7a7.181,7.181,0,0,0-.57-0.69,8.281,8.281,0,0,0-.68-0.64c-0.23-.16-0.47-0.33-0.72-0.47a7.222,7.222,0,0,0,.27-0.67,8.516,8.516,0,0,1,2.55,1.65c2.69,2.69,1.63,5.82,3.7,3.75a5.6,5.6,0,0,0,.81-1.01,0.656,0.656,0,0,1,.2.01,1,1,0,0,1,.57.46,2.518,2.518,0,0,1,.17,1.84,2.1,2.1,0,0,1-1.46,1.68l-0.44.06-0.12.43c-1.03,3.73-3.8,7.71-6.94,7.71s-5.91-3.98-6.95-7.71l-0.11-.43-0.44-.06a2.111,2.111,0,0,1-1.46-1.68,2.469,2.469,0,0,1,.17-1.84A1.05,1.05,0,0,1,1210.86,2049.23Zm16.43,14.56a8.251,8.251,0,0,1-3.11,3.31c-2.66,1.37-4.65,2.48-4.65,2.48h-0.01v-0.03l-0.02.02-0.02-.02v0.03h-0.01s-1.98-1.1-4.65-2.48a8.251,8.251,0,0,1-3.11-3.31c-3.96,1.61-6.71,5.29-6.71,8.52V2079h29v-6.69C1234,2069.09,1231.24,2065.4,1227.29,2063.79Z" transform="translate(-1205 -2040)"/>
</svg>
