<svg xmlns="http://www.w3.org/2000/svg" width="74" height="47" viewBox="0 0 74 47">
  <defs>
    <style>
      .cls-1 {
        fill: #f5e1a8;
        fill-rule: evenodd;
      }
    </style>
  </defs>
  <path id="ic_airport" class="cls-1" d="M442.643,600.009l10.728-6.04a3.759,3.759,0,0,1-1.158-3.026,3.586,3.586,0,0,1,2.23-2.774l-0.561-10.874a1.238,1.238,0,0,1,.468-1.034,1.263,1.263,0,0,1,1.119-.23l3.626,0.99a1.246,1.246,0,0,1,.867.844l2.591,8.671,5.926-5.086a1.27,1.27,0,0,1,1.156-.259l3.625,0.991a1.238,1.238,0,0,1,.734,1.846l-3.9,6.325,15.777,4.31-2.837-14.4a1.238,1.238,0,0,1,.379-1.152,1.266,1.266,0,0,1,1.186-.288l4.834,1.321a1.244,1.244,0,0,1,.756.584l10.231,17.917c8.11,2.445,10.559,5.086,13.024,10.279,2.962,2.994,2.966,5.954,1.966,7.744-1.18,2.108-3.807,2.972-6.9,2.244l-7.615-2.08a4.863,4.863,0,0,1-.139,1.9c-0.647,2.314-2.8,3.752-4.8,3.206-4.6-1.256-9.194-3.525-10.476-6.046l-22.921,7.044a1.258,1.258,0,0,1-.7.011l-8.459-2.31a1.24,1.24,0,0,1-.187-2.329l22.369-10.2a116.531,116.531,0,0,1-15.916-8.82l-13.914,4.83a1.265,1.265,0,0,1-1.253-.248l-2.082-1.859a1.236,1.236,0,0,1-.406-1.059A1.25,1.25,0,0,1,442.643,600.009Zm15.112-20.772-1.28-.35,0.488,9.444a5.083,5.083,0,0,0,3.642.445Zm11.856,4.529-5.7,4.895,3.679,1.005,3.4-5.524Zm18.656-1.357-2.378-.649,2.689,13.641L497,597.7Zm8.366,37.133a1.713,1.713,0,0,0,1.711-1.468,1.69,1.69,0,0,0-.7-2.129,1.714,1.714,0,0,0-1.711,1.468A1.691,1.691,0,0,0,496.633,619.542Zm-3.293-1.094a4.9,4.9,0,0,1,1.037-3.394l-3.257-.89-3.182.978A14.272,14.272,0,0,0,493.34,618.448Zm-35.956.7,4.795,1.31,31.128-9.565-11.139-3.043ZM478.6,606.738l2.941-1.341a1.262,1.262,0,0,1,.858-0.069l15.709,4.292a1.24,1.24,0,0,1,.034,2.386l-2.575.791,2.741,0.749h0l10.83,2.959c1.907,0.449,3.47.051,4.079-1.037,0.718-1.287.054-3.221-1.7-4.929a1.264,1.264,0,0,1-.257-0.361c-0.328-.7-0.65-1.343-0.985-1.944l-2.093,1.178a1.274,1.274,0,0,1-.465.152,1.254,1.254,0,0,1-.489-0.033l-2.417-.66a1.24,1.24,0,0,1-.873-1.529,1.259,1.259,0,0,1,1.544-.869L507.406,607l1.5-.842c-1.772-2.185-4.356-3.709-9.656-5.26l-36.964-10.1a5.924,5.924,0,0,1-4.457.073l-2.417-.66a1.23,1.23,0,0,0-.7,1.029,1.909,1.909,0,0,0,.967,1.436l0.866-.488a1.261,1.261,0,0,1,1.147-.047l6.916,3.18a1.24,1.24,0,0,1-.118,2.3l-1.835.637A119.065,119.065,0,0,0,478.6,606.738Zm-32.968-5.206,15.106-5.243-3.528-1.622-11.817,6.651Zm53.817,3.291,1.208,0.33a1.242,1.242,0,0,1,.873,1.53,1.257,1.257,0,0,1-1.543.868l-1.209-.33a1.24,1.24,0,0,1-.873-1.529A1.259,1.259,0,0,1,499.448,604.823Zm-6.042-1.65,1.208,0.33a1.24,1.24,0,0,1,.873,1.529,1.258,1.258,0,0,1-1.543.869l-1.209-.33a1.24,1.24,0,0,1-.873-1.529A1.259,1.259,0,0,1,493.406,603.173Zm-6.042-1.651,1.208,0.33a1.24,1.24,0,0,1,.873,1.529,1.257,1.257,0,0,1-1.543.869l-1.209-.33a1.24,1.24,0,0,1-.873-1.529A1.259,1.259,0,0,1,487.364,601.522Zm-6.042-1.65,1.208,0.33a1.24,1.24,0,0,1,.873,1.529,1.259,1.259,0,0,1-1.544.869l-1.208-.33a1.241,1.241,0,0,1-.873-1.529A1.258,1.258,0,0,1,481.322,599.872Zm-6.042-1.651,1.208,0.33a1.24,1.24,0,0,1,.873,1.529,1.259,1.259,0,0,1-1.544.869l-1.208-.33a1.24,1.24,0,0,1-.873-1.529A1.258,1.258,0,0,1,475.28,598.221Zm-6.043-1.651,1.209,0.331a1.24,1.24,0,0,1,.873,1.529,1.26,1.26,0,0,1-1.544.869l-1.208-.331a1.24,1.24,0,0,1-.873-1.529A1.258,1.258,0,0,1,469.237,596.57Z" transform="translate(-442 -576)"/>
</svg>
