<svg xmlns="http://www.w3.org/2000/svg" width="48.344" height="48.156" viewBox="0 0 48.344 48.156">
  <defs>
    <style>
      .cls-1 {
        fill: #dedede;
        fill-rule: evenodd;
        opacity: 0.3;
      }
    </style>
  </defs>
  <path id="ic_advantages" class="cls-1" d="M428.087,658.481a4.814,4.814,0,1,0-4.833-4.814A4.828,4.828,0,0,0,428.087,658.481Zm0-8.023a3.209,3.209,0,1,1-3.222,3.209A3.219,3.219,0,0,1,428.087,650.458Zm-16.2,17.273a0.8,0.8,0,0,0-.073-0.844l-0.9-1.2,0.483-1.42a0.8,0.8,0,0,0-.193-0.825,0.812,0.812,0,0,0-.829-0.193l-1.425.482-1.207-.9a0.806,0.806,0,0,0-1.287.653l0.019,1.5-1.229.866a0.8,0.8,0,0,0,.226,1.422l1.438,0.445,0.447,1.431a0.8,0.8,0,0,0,.644.554,0.764,0.764,0,0,0,.126.01,0.807,0.807,0,0,0,.658-0.339l0.869-1.223,1.5,0.019A0.824,0.824,0,0,0,411.889,667.731Zm-2.636-1.192a0.9,0.9,0,0,0-.669.34l-0.171.241-0.088-.282a0.8,0.8,0,0,0-.53-0.528l-0.284-.088,0.243-.17a0.8,0.8,0,0,0,.34-0.666l0-.295,0.237,0.177a0.816,0.816,0,0,0,.741.118l0.281-.095-0.095.28a0.8,0.8,0,0,0,.117.737l0.178,0.237Zm18.834-19.29a0.8,0.8,0,0,0,.806-0.8v-8.825a0.806,0.806,0,0,0-1.612,0v8.825A0.8,0.8,0,0,0,428.087,647.249Zm0,34.9a0.8,0.8,0,0,0-.806.8v1.2a0.806,0.806,0,0,0,1.612,0v-1.2A0.8,0.8,0,0,0,428.087,682.147Zm0-4.634a0.8,0.8,0,0,0-.806.8v2.318a0.806,0.806,0,0,0,1.612,0v-2.318A0.8,0.8,0,0,0,428.087,677.513Zm0-4.637a0.8,0.8,0,0,0-.806.8V676a0.806,0.806,0,0,0,1.612,0v-2.318A0.8,0.8,0,0,0,428.087,672.876Zm0-9.27a0.8,0.8,0,0,0-.806.8v2.318a0.806,0.806,0,0,0,1.612,0v-2.318A0.8,0.8,0,0,0,428.087,663.606Zm0,4.636a0.8,0.8,0,0,0-.806.8v2.318a0.806,0.806,0,0,0,1.612,0v-2.318A0.8,0.8,0,0,0,428.087,668.242Zm0-8.157a0.8,0.8,0,0,0-.806.8v1.2a0.806,0.806,0,0,0,1.612,0v-1.2A0.8,0.8,0,0,0,428.087,660.085Zm16.111-7.22h-8.861a0.8,0.8,0,1,0,0,1.6H444.2A0.8,0.8,0,1,0,444.2,652.865Zm-32.222,1.6h8.861a0.8,0.8,0,1,0,0-1.6h-8.861A0.8,0.8,0,1,0,411.976,654.469Zm20.668-5.34a0.808,0.808,0,0,0,1.139,0l6.266-6.24a0.8,0.8,0,1,0-1.139-1.135l-6.266,6.24A0.8,0.8,0,0,0,432.644,649.129ZM417.615,664.9a0.808,0.808,0,0,0,.57-0.235l5.345-5.325a0.8,0.8,0,0,0,0-1.134,0.808,0.808,0,0,0-1.139,0l-5.345,5.324A0.8,0.8,0,0,0,417.615,664.9Zm16.168-6.694a0.808,0.808,0,0,0-1.139,0,0.8,0.8,0,0,0,0,1.134l6.266,6.241a0.8,0.8,0,1,0,1.139-1.135Zm-11.392-9.076a0.8,0.8,0,1,0,1.139-1.135l-6.265-6.241a0.808,0.808,0,0,0-1.139,0,0.8,0.8,0,0,0,0,1.135Zm8.25-1.468a0.806,0.806,0,0,0,1.059-.419l3.513-8.1a0.8,0.8,0,0,0-1.478-.636l-3.513,8.1A0.8,0.8,0,0,0,430.641,647.661Zm-5.108,11.784a0.807,0.807,0,0,0-1.059.418l-3.513,8.1a0.8,0.8,0,0,0,1.478.635l3.513-8.1A0.8,0.8,0,0,0,425.533,659.445Zm17.664-.267-8.135-3.5a0.8,0.8,0,1,0-.639,1.472l8.135,3.5A0.8,0.8,0,1,0,443.2,659.178Zm-30.22-11.25,8.135,3.5a0.8,0.8,0,1,0,.639-1.473l-8.135-3.5a0.809,0.809,0,0,0-1.059.418A0.8,0.8,0,0,0,412.977,647.928Zm21.186,3.487a0.805,0.805,0,0,0,.76.535,0.817,0.817,0,0,0,.268-0.046l8.355-2.939a0.8,0.8,0,1,0-.536-1.513l-8.355,2.939A0.8,0.8,0,0,0,434.163,651.415ZM416,658.481a0.781,0.781,0,0,0,.251-0.041l5.248-1.721a0.8,0.8,0,1,0-.5-1.524l-5.247,1.72A0.8,0.8,0,0,0,416,658.481Zm15.257,1.613a0.808,0.808,0,0,0-1.028-.489,0.8,0.8,0,0,0-.491,1.023l2.951,8.321a0.805,0.805,0,0,0,.76.535,0.842,0.842,0,0,0,.268-0.045,0.8,0.8,0,0,0,.491-1.024Zm-6.348-13.082a0.805,0.805,0,0,0,.76.535,0.837,0.837,0,0,0,.268-0.045,0.8,0.8,0,0,0,.492-1.024l-2.952-8.321a0.805,0.805,0,0,0-1.519.534Zm-15.353,7.457a0.806,0.806,0,0,0-1.611,0v1.6a0.806,0.806,0,0,0,1.611,0v-1.6Zm-0.806,6.418a0.8,0.8,0,0,0,.806-0.8v-1.6a0.806,0.806,0,0,0-1.611,0v1.6A0.8,0.8,0,0,0,408.754,660.887Zm0,9.667a0.8,0.8,0,0,0-.805.8v12.8a0.806,0.806,0,0,0,1.611,0v-12.8A0.8,0.8,0,0,0,408.754,670.554Zm8.056-4.051a0.8,0.8,0,0,0-.806-0.8h-1.611a0.8,0.8,0,1,0,0,1.605H416A0.8,0.8,0,0,0,416.81,666.5Zm-15.305,0h1.611a0.8,0.8,0,1,0,0-1.6h-1.611A0.8,0.8,0,1,0,401.505,666.5Zm-1.612-.8a0.8,0.8,0,0,0-.8-0.8h-1.611a0.8,0.8,0,1,0,0,1.6h1.611A0.8,0.8,0,0,0,399.893,665.7Zm16.119-4.011a0.8,0.8,0,1,0,0-1.605H416A0.8,0.8,0,1,0,416.012,661.69Zm-3.229,2.406a0.806,0.806,0,0,0,.482-0.16l1.289-.963a0.8,0.8,0,0,0,.161-1.122,0.807,0.807,0,0,0-1.127-.161l-1.289.963A0.8,0.8,0,0,0,412.783,664.1Zm-11.514,7.926-1.14,1.134a0.8,0.8,0,0,0,0,1.135,0.809,0.809,0,0,0,1.14,0l1.138-1.135a0.8,0.8,0,0,0,0-1.134A0.805,0.805,0,0,0,401.269,672.022Zm2.848-.567,1.139-1.135a0.8,0.8,0,0,0-1.14-1.135l-1.139,1.135A0.8,0.8,0,0,0,404.117,671.455ZM402.349,658.4l-1.031-1.232a0.8,0.8,0,0,0-1.238,1.028l1.031,1.232a0.809,0.809,0,0,0,1.135.1A0.8,0.8,0,0,0,402.349,658.4Zm2.579,3.082-1.032-1.233a0.8,0.8,0,0,0-1.237,1.027l1.032,1.233a0.8,0.8,0,0,0,.619.288,0.811,0.811,0,0,0,.516-0.185A0.8,0.8,0,0,0,404.928,661.479Zm6.243-2.385-0.721,1.435a0.8,0.8,0,0,0,.36,1.076,0.816,0.816,0,0,0,.36.085,0.806,0.806,0,0,0,.722-0.444l0.721-1.435A0.805,0.805,0,0,0,411.171,659.094Zm1.441-1.076a0.809,0.809,0,0,0,1.081-.36l0.615-1.226a0.8,0.8,0,0,0-1.441-.718l-0.615,1.226A0.8,0.8,0,0,0,412.612,658.018ZM406.7,670.6a0.808,0.808,0,0,0-1.081.358L405,672.183a0.8,0.8,0,0,0,.36,1.077,0.815,0.815,0,0,0,.36.084,0.806,0.806,0,0,0,.721-0.443l0.616-1.226A0.8,0.8,0,0,0,406.7,670.6Zm-1.7,3.378a0.808,0.808,0,0,0-1.081.36l-0.721,1.435a0.8,0.8,0,0,0,.36,1.077,0.828,0.828,0,0,0,.36.084,0.808,0.808,0,0,0,.722-0.444l0.721-1.435A0.8,0.8,0,0,0,405,673.977Zm10.381-5.216-1.5-.6a0.8,0.8,0,1,0-.6,1.492l1.5,0.6a0.793,0.793,0,0,0,.3.057A0.8,0.8,0,0,0,415.383,668.761Zm2.531,1.008-0.288-.114a0.8,0.8,0,1,0-.6,1.49l0.287,0.115A0.8,0.8,0,1,0,417.914,669.769Zm-16.67-6.815a0.8,0.8,0,0,0,.423,1.053l1.481,0.633a0.8,0.8,0,1,0,.635-1.475l-1.481-.632A0.805,0.805,0,0,0,401.244,662.954Zm-3.279-.527,1.481,0.632a0.789,0.789,0,0,0,.317.065,0.8,0.8,0,0,0,.317-1.539l-1.48-.633A0.8,0.8,0,1,0,397.965,662.427Zm4.19,6.985a0.846,0.846,0,0,0,.221-0.03l1.549-.441a0.8,0.8,0,0,0,.553-0.991,0.809,0.809,0,0,0-1-.552l-1.549.44A0.8,0.8,0,0,0,402.155,669.412Zm-1.549-.362a0.81,0.81,0,0,0-1-.551l-1.549.442a0.8,0.8,0,0,0,.221,1.574,0.843,0.843,0,0,0,.222-0.031l1.549-.441A0.8,0.8,0,0,0,400.606,669.05Zm12.128,2.354-0.893-1.335a0.8,0.8,0,0,0-1.34.891l0.893,1.335A0.8,0.8,0,0,0,412.734,671.4Zm1.341,2a0.8,0.8,0,0,0-1.341.89l0.894,1.335a0.8,0.8,0,0,0,1.34-.89Zm-7.8-11.934a0.84,0.84,0,0,0,.221-0.03,0.8,0.8,0,0,0,.554-0.992l-0.442-1.543a0.81,0.81,0,0,0-1-.552,0.8,0.8,0,0,0-.553.992l0.442,1.542A0.8,0.8,0,0,0,406.275,661.473Zm-2.323-5.982,0.443,1.543a0.8,0.8,0,0,0,.774.582,0.84,0.84,0,0,0,.221-0.03,0.8,0.8,0,0,0,.554-0.992l-0.442-1.542a0.81,0.81,0,0,0-1-.552A0.8,0.8,0,0,0,403.952,655.491Zm-2.85-6.638a2.808,2.808,0,1,0-2.82-2.807A2.816,2.816,0,0,0,401.1,648.853Zm0-4.011a1.2,1.2,0,1,1-1.209,1.2A1.207,1.207,0,0,1,401.1,644.842Zm7.249-.8a2.808,2.808,0,1,0-2.819-2.808A2.817,2.817,0,0,0,408.351,644.04Zm0-4.011a1.2,1.2,0,1,1-1.208,1.2A1.207,1.207,0,0,1,408.351,640.029Zm-0.805,5.615a1.2,1.2,0,1,1-1.208,1.2A1.206,1.206,0,0,1,407.546,645.644Zm-4.028,4.012a1.2,1.2,0,1,1-1.208,1.2A1.206,1.206,0,0,1,403.518,649.656Z" transform="translate(-396.656 -636.813)"/>
</svg>
