<svg xmlns="http://www.w3.org/2000/svg" width="18" height="18" viewBox="0 0 18 18">
  <metadata><?xpacket begin="﻿" id="W5M0MpCehiHzreSzNTczkc9d"?>
<x:xmpmeta xmlns:x="adobe:ns:meta/" x:xmptk="Adobe XMP Core 5.6-c142 79.160924, 2017/07/13-01:06:39        ">
   <rdf:RDF xmlns:rdf="http://www.w3.org/1999/02/22-rdf-syntax-ns#">
      <rdf:Description rdf:about=""/>
   </rdf:RDF>
</x:xmpmeta>
                                                                                                    
                                                                                                    
                                                                                                    
                                                                                                    
                                                                                                    
                                                                                                    
                                                                                                    
                                                                                                    
                                                                                                    
                                                                                                    
                                                                                                    
                                                                                                    
                                                                                                    
                                                                                                    
                                                                                                    
                                                                                                    
                                                                                                    
                                                                                                    
                                                                                                    
                                                                                                    
                           
<?xpacket end="w"?></metadata>
<defs>
    <style>
      .cls-1 {
        fill: #fff;
        fill-rule: evenodd;
      }
    </style>
  </defs>
  <path id="Фигура_904_копия" data-name="Фигура 904 копия" class="cls-1" d="M899.4,3942.4a1.8,1.8,0,1,0,1.8,1.8A1.805,1.805,0,0,0,899.4,3942.4ZM894,3928v1.8h1.8l3.24,6.84-1.26,2.16a3.2,3.2,0,0,0-.18.9,1.805,1.805,0,0,0,1.8,1.8h10.8v-1.8H899.76a0.194,0.194,0,0,1-.18-0.18v-0.09l0.81-1.53h6.66a1.641,1.641,0,0,0,1.53-.9l3.24-5.85a0.5,0.5,0,0,0,.18-0.45,0.85,0.85,0,0,0-.9-0.9H897.78l-0.81-1.8H894Zm14.4,14.4a1.8,1.8,0,1,0,1.8,1.8A1.805,1.805,0,0,0,908.4,3942.4Z" transform="translate(-894 -3928)"/>
</svg>
