<svg xmlns="http://www.w3.org/2000/svg" width="30.031" height="40" viewBox="0 0 30.031 40">
  <metadata><?xpacket begin="﻿" id="W5M0MpCehiHzreSzNTczkc9d"?>
<x:xmpmeta xmlns:x="adobe:ns:meta/" x:xmptk="Adobe XMP Core 5.6-c142 79.160924, 2017/07/13-01:06:39        ">
   <rdf:RDF xmlns:rdf="http://www.w3.org/1999/02/22-rdf-syntax-ns#">
      <rdf:Description rdf:about=""/>
   </rdf:RDF>
</x:xmpmeta>
                                                                                                    
                                                                                                    
                                                                                                    
                                                                                                    
                                                                                                    
                                                                                                    
                                                                                                    
                                                                                                    
                                                                                                    
                                                                                                    
                                                                                                    
                                                                                                    
                                                                                                    
                                                                                                    
                                                                                                    
                                                                                                    
                                                                                                    
                                                                                                    
                                                                                                    
                                                                                                    
                           
<?xpacket end="w"?></metadata>
<defs>
    <style>
      .cls-1 {
        fill: #fff;
        fill-rule: evenodd;
      }
    </style>
  </defs>
  <path id="Forma_1" data-name="Forma 1" class="cls-1" d="M438.657,5144.48c-2.608-2.97-6.542-4.48-11.731-4.48-5.152,0-9.079,1.51-11.669,4.48-3.945,4.53-3.244,10.74-3.216,10.97,0.984,10.41,10.348,21.24,13.551,24.21a1.208,1.208,0,0,0,.839.34h0.836a1.232,1.232,0,0,0,.867-0.36c8.238-8.14,13.01-16.5,13.8-24.16C441.966,5155.21,442.625,5149.01,438.657,5144.48Zm0.806,10.72c-0.718,6.95-5.079,14.61-12.621,22.19-2.966-2.95-11.446-12.9-12.326-22.21-0.007-.05-0.586-5.38,2.619-9.04,2.1-2.4,5.392-3.61,9.83-3.61,4.4,0,7.7,1.22,9.819,3.62C440.013,5149.81,439.47,5155.13,439.463,5155.2Zm-12.422-6.24a6.371,6.371,0,1,0,6.272,6.37A6.331,6.331,0,0,0,427.041,5148.96Zm0,10.21a3.84,3.84,0,1,1,3.784-3.84A3.815,3.815,0,0,1,427.041,5159.17Z" transform="translate(-411.969 -5140)"/>
</svg>
