<svg xmlns="http://www.w3.org/2000/svg" width="13.969" height="11.969" viewBox="0 0 13.969 11.969">
  <defs>
    <style>
      .cls-1 {
        fill: #e3a3cc;
        fill-rule: evenodd;
      }
    </style>
  </defs>
  <path id="ic_arrownpink_right" class="cls-1" d="M438.859,887.185l-6.174-5.1a0.386,0.386,0,0,0-.631.3v2.687c-3,.109-5.057,1.168-6.128,3.151a10.517,10.517,0,0,0-.906,5.078v0.309a0.39,0.39,0,0,0,.29.377,0.4,0.4,0,0,0,.1.011,0.381,0.381,0,0,0,.335-0.2c2.092-3.694,3.814-3.872,6.31-3.881V892.6a0.386,0.386,0,0,0,.223.351,0.393,0.393,0,0,0,.413-0.052l6.171-5.115a0.388,0.388,0,0,0,.141-0.3A0.4,0.4,0,0,0,438.859,887.185Z" transform="translate(-425.031 -882.031)"/>
</svg>
