<svg xmlns="http://www.w3.org/2000/svg" width="37" height="37" viewBox="0 0 37 37">
  <defs>
    <style>
      .cls-1 {
        fill-rule: evenodd;
        opacity: 0.2;
      }
    </style>
  </defs>
  <path id="ic_chating_header" class="cls-1" d="M272.437,773H251.625A4.629,4.629,0,0,0,247,777.625V791.5a4.629,4.629,0,0,0,4.625,4.625v5.782a1.155,1.155,0,0,0,1.908.877l7.77-6.659h11.134a4.629,4.629,0,0,0,4.625-4.625V777.625A4.629,4.629,0,0,0,272.437,773Zm2.313,18.5a2.317,2.317,0,0,1-2.313,2.313H260.875a1.138,1.138,0,0,0-.752.28l-6.186,5.3v-4.424a1.157,1.157,0,0,0-1.156-1.156h-1.156a2.317,2.317,0,0,1-2.313-2.313V777.625a2.317,2.317,0,0,1,2.313-2.313h20.812a2.316,2.316,0,0,1,2.313,2.313V791.5Zm6.158-11.291a1.157,1.157,0,1,0-.754,2.187,2.288,2.288,0,0,1,1.534,2.167v13.875a2.317,2.317,0,0,1-2.313,2.312h-1.156a1.157,1.157,0,0,0-1.157,1.157v4.424l-6.186-5.3a1.136,1.136,0,0,0-.751-0.281H259.881a1.157,1.157,0,1,0,0,2.313H269.7l7.77,6.658a1.148,1.148,0,0,0,1.235.173,1.156,1.156,0,0,0,.673-1.05v-5.781A4.629,4.629,0,0,0,284,798.437V784.562A4.6,4.6,0,0,0,280.908,780.208Z" transform="translate(-247 -773)"/>
</svg>
