<svg
        xmlns="http://www.w3.org/2000/svg"
        xmlns:xlink="http://www.w3.org/1999/xlink"
        width="36px" height="36px">
  <path fill-rule="evenodd"  opacity="0.2" fill="rgb(0, 0, 0)"
        d="M30.720,5.274 C27.320,1.874 22.803,-0.000 17.996,-0.000 C13.190,-0.000 8.672,1.874 5.273,5.274 C1.874,8.674 -0.000,13.192 -0.000,17.999 C-0.000,22.807 1.874,27.325 5.273,30.726 C8.672,34.125 13.190,36.000 17.996,36.000 C20.788,36.000 23.336,35.481 25.358,34.510 C27.276,33.584 28.668,32.259 29.283,30.785 C30.016,29.014 29.601,27.170 28.150,25.718 L28.098,25.666 C28.120,25.636 28.150,25.615 28.172,25.592 C29.209,24.503 29.209,23.074 28.157,22.022 L25.595,19.459 C25.091,18.940 24.484,18.659 23.839,18.659 C23.195,18.659 22.580,18.933 22.062,19.451 L20.729,20.785 C20.662,20.748 20.603,20.718 20.536,20.688 C20.373,20.607 20.225,20.533 20.100,20.451 C18.744,19.592 17.515,18.466 16.337,17.022 C15.819,16.370 15.463,15.814 15.197,15.266 C15.530,14.955 15.841,14.636 16.145,14.326 C16.271,14.192 16.404,14.066 16.537,13.933 C17.626,12.844 17.626,11.436 16.537,10.347 L15.271,9.081 C15.123,8.933 14.982,8.792 14.841,8.644 C14.560,8.355 14.271,8.059 13.960,7.770 C13.456,7.274 12.857,7.015 12.220,7.015 C11.583,7.015 10.975,7.274 10.457,7.770 C10.450,7.778 10.450,7.778 10.442,7.785 L8.850,9.377 C8.213,10.014 7.843,10.799 7.769,11.703 C7.658,13.111 8.065,14.414 8.383,15.266 C9.146,17.326 10.287,19.237 11.983,21.281 C14.041,23.740 16.522,25.689 19.359,27.059 C20.448,27.577 21.907,28.184 23.551,28.296 C23.654,28.303 23.758,28.303 23.862,28.303 C25.010,28.303 25.980,27.888 26.735,27.066 C26.743,27.059 26.757,27.044 26.765,27.036 C26.787,27.007 26.817,26.978 26.846,26.948 L26.891,26.992 C27.839,27.940 28.098,29.022 27.639,30.125 C26.787,32.148 23.477,34.222 17.996,34.222 C9.050,34.222 1.777,26.948 1.777,17.999 C1.777,9.051 9.050,1.777 17.996,1.777 C26.943,1.777 34.215,9.051 34.215,17.999 C34.215,19.474 34.015,20.926 33.630,22.325 C33.497,22.799 33.778,23.288 34.252,23.421 C34.726,23.555 35.215,23.274 35.348,22.799 C35.778,21.244 36.000,19.629 36.000,17.999 C35.993,13.192 34.119,8.674 30.720,5.274 ZM25.417,25.859 C24.995,26.311 24.521,26.510 23.862,26.510 C23.795,26.510 23.728,26.510 23.662,26.503 C22.329,26.414 21.070,25.888 20.129,25.437 C17.530,24.177 15.249,22.392 13.353,20.126 C11.790,18.244 10.746,16.503 10.050,14.636 C9.635,13.511 9.480,12.652 9.539,11.836 C9.583,11.355 9.761,10.963 10.109,10.621 L11.701,9.036 C11.827,8.918 12.020,8.777 12.227,8.777 C12.434,8.777 12.612,8.911 12.723,9.029 C12.731,9.036 12.738,9.044 12.745,9.051 C13.027,9.310 13.293,9.585 13.575,9.874 C13.723,10.022 13.871,10.177 14.019,10.326 L15.286,11.592 C15.678,11.985 15.678,12.274 15.286,12.666 C15.152,12.800 15.019,12.933 14.886,13.067 C14.493,13.459 14.130,13.836 13.730,14.192 C13.716,14.200 13.708,14.215 13.693,14.229 C13.138,14.784 13.331,15.363 13.390,15.555 C13.397,15.577 13.405,15.592 13.412,15.615 C13.753,16.436 14.227,17.207 14.952,18.126 L14.960,18.133 C16.263,19.740 17.633,20.985 19.152,21.948 C19.352,22.074 19.551,22.177 19.744,22.273 C19.907,22.355 20.055,22.429 20.181,22.511 C20.203,22.525 20.233,22.540 20.262,22.555 C20.455,22.651 20.648,22.696 20.840,22.696 C21.166,22.696 21.470,22.562 21.729,22.296 L23.321,20.703 C23.447,20.577 23.632,20.429 23.839,20.429 C24.032,20.429 24.210,20.570 24.321,20.688 C24.328,20.696 24.328,20.696 24.336,20.703 L26.898,23.266 C27.261,23.629 27.261,23.962 26.883,24.355 L26.876,24.362 C26.706,24.548 26.520,24.725 26.320,24.918 C26.024,25.207 25.713,25.511 25.417,25.859 Z"/>
</svg>