<svg xmlns="http://www.w3.org/2000/svg" width="37.594" height="43.563" viewBox="0 0 37.594 43.563">
  <defs>
    <style>
      .cls-1 {
        fill: #dedede;
        fill-rule: evenodd;
        opacity: 0.3;
      }
    </style>
  </defs>
  <path id="ic_Categories" class="cls-1" d="M237.705,637.823a7.352,7.352,0,0,1,1.374.608,0.7,0.7,0,1,0,.709-1.214,8.788,8.788,0,0,0-1.64-.726A0.7,0.7,0,1,0,237.705,637.823Zm4.791,7.509a14.406,14.406,0,0,1-.364,3.179,0.7,0.7,0,0,0,.534.839,0.753,0.753,0,0,0,.156.017,0.7,0.7,0,0,0,.688-0.547,15.747,15.747,0,0,0,.4-3.488,9.836,9.836,0,0,0-1.79-6.064,0.71,0.71,0,0,0-.989-0.141,0.7,0.7,0,0,0-.142.982A8.489,8.489,0,0,1,242.5,645.332Zm-10.2,10.712a12.083,12.083,0,0,1-4.2-6.1,0.706,0.706,0,0,0-1.342.44A13.313,13.313,0,0,0,231.5,657.2,0.7,0.7,0,1,0,232.293,656.044Zm24.671-11.589a12.074,12.074,0,0,0-8.487-3.225,13.946,13.946,0,0,0-2.066.152,11.261,11.261,0,0,0-3.012-5.157,12.776,12.776,0,0,0-16.973,0,12.3,12.3,0,0,0-3.524,9.107,19.221,19.221,0,0,0,3.439,10.845,11.7,11.7,0,0,0,6.617,4.927,2.166,2.166,0,0,0-.259,1.029v1.5a0.7,0.7,0,0,0,.706.7h0.759a4.335,4.335,0,0,1-.29,1.047,6.164,6.164,0,0,0,0,4.483,4.773,4.773,0,0,1,0,3.5,5.549,5.549,0,0,0-.422,2.243,0.707,0.707,0,0,0,1.413,0,4.2,4.2,0,0,1,.332-1.75,6.167,6.167,0,0,0,0-4.484,4.77,4.77,0,0,1,0-3.5,5.513,5.513,0,0,0,.389-1.539h0.834a0.7,0.7,0,0,0,.706-0.7v-1.5a2.17,2.17,0,0,0-.259-1.03,8.85,8.85,0,0,0,1.059-.327c1.856,4.532,5.074,7.687,8.6,8.552a2.169,2.169,0,0,0-.261,1.035v1.5a0.7,0.7,0,0,0,.706.7h0.759a4.335,4.335,0,0,1-.29,1.047,5.532,5.532,0,0,0-.422,2.24,0.707,0.707,0,0,0,1.413,0,4.192,4.192,0,0,1,.332-1.748,5.483,5.483,0,0,0,.388-1.539h0.835a0.7,0.7,0,0,0,.706-0.7v-1.5a2.173,2.173,0,0,0-.259-1.03,11.69,11.69,0,0,0,6.617-4.927,19.225,19.225,0,0,0,3.439-10.844A12.3,12.3,0,0,0,256.964,644.455ZM227.5,655.371a17.793,17.793,0,0,1-3.183-10.039,10.935,10.935,0,0,1,3.1-8.1,11.361,11.361,0,0,1,15,0,10.935,10.935,0,0,1,3.1,8.1,17.793,17.793,0,0,1-3.183,10.039c-2.079,2.943-4.712,4.565-7.414,4.565S229.577,658.314,227.5,655.371Zm8.215,6.762v0.8h-1.6v-0.8A0.8,0.8,0,0,1,235.713,662.133Zm13.565,8.231v0.795h-1.6v-0.795A0.8,0.8,0,0,1,249.278,670.364Zm6.614-6.762c-2.079,2.943-4.712,4.564-7.415,4.564a8.212,8.212,0,0,1-5.512-2.383,15.688,15.688,0,0,1-3.758-5.6,10.877,10.877,0,0,0,1.349-.892,12.987,12.987,0,0,0,4.506,6.145,0.709,0.709,0,0,0,.981-0.184,0.7,0.7,0,0,0-.185-0.975,12.013,12.013,0,0,1-4.16-5.983,15.413,15.413,0,0,0,1.786-2.114,19.221,19.221,0,0,0,3.439-10.845,15.573,15.573,0,0,0-.209-2.577,12.639,12.639,0,0,1,1.763-.122,10.67,10.67,0,0,1,7.5,2.827,10.939,10.939,0,0,1,3.1,8.1A17.793,17.793,0,0,1,255.892,663.6Zm-0.208-16.1a0.709,0.709,0,0,0-.989-0.14,0.7,0.7,0,0,0-.142.981,8.492,8.492,0,0,1,1.508,5.224,14.413,14.413,0,0,1-.364,3.179,0.7,0.7,0,0,0,.534.838,0.692,0.692,0,0,0,.156.018,0.706,0.706,0,0,0,.688-0.548,15.738,15.738,0,0,0,.4-3.487A9.837,9.837,0,0,0,255.684,647.5Zm-2.331-2.05a8.726,8.726,0,0,0-1.64-.727,0.708,0.708,0,0,0-.892.447,0.7,0.7,0,0,0,.449.885,7.355,7.355,0,0,1,1.374.609,0.709,0.709,0,0,0,.966-0.255A0.7,0.7,0,0,0,253.353,645.448Z" transform="translate(-222.906 -633)"/>
</svg>
