<svg xmlns="http://www.w3.org/2000/svg" width="25" height="24" viewBox="0 0 25 24">
  <defs>
    <style>
      .cls-1 {
        fill: #e3a3cc;
        fill-rule: evenodd;
      }
    </style>
  </defs>
  <path id="ic_call" class="cls-1" d="M569.362,990.407a2.1,2.1,0,0,0-1.55-.263,1.385,1.385,0,0,0-.831.629,14.073,14.073,0,0,1-1.08,1.166,1.834,1.834,0,0,1-2.623-.256l-4.785-4.671a1.732,1.732,0,0,1-.263-2.558,13.931,13.931,0,0,1,1.195-1.056,1.352,1.352,0,0,0,.644-0.811,1.967,1.967,0,0,0-.272-1.517c-0.072-.121-1.787-2.957-3.368-3.773a2.083,2.083,0,0,0-2.415.355l-1.057,1.032c-3.083,3.009-2.513,6.748,1.651,10.811l6.126,5.98a11.961,11.961,0,0,0,5.445,3.368,5.806,5.806,0,0,0,5.633-1.756l1.057-1.033a1.959,1.959,0,0,0,.363-2.356C572.4,992.155,569.49,990.48,569.362,990.407Zm2.917,5.072-1.057,1.032c-2.736,2.671-6.067,2.13-9.9-1.611l-6.126-5.98c-3.832-3.739-4.387-6.99-1.651-9.662l1.057-1.032a1.234,1.234,0,0,1,.863-0.35,1.249,1.249,0,0,1,.573.14c1.372,0.709,3.023,3.438,3.037,3.461a1.224,1.224,0,0,1,.19.892,0.548,0.548,0,0,1-.285.341l-0.062.041A12.213,12.213,0,0,0,557.54,984a3.294,3.294,0,0,0-.512,1.084,5.655,5.655,0,0,1-.615-1.985,0.416,0.416,0,0,0-.457-0.363,0.411,0.411,0,0,0-.372.447,7.741,7.741,0,0,0,2.649,4.744,0.29,0.29,0,0,0,.034.019l4.421,4.316c0.019,0.018.038,0.034,0.057,0.051a0.438,0.438,0,0,0,.043.063,8.774,8.774,0,0,0,4.833,2.149h0.043a0.406,0.406,0,0,0,.042-0.811,7.48,7.48,0,0,1-2.311-.633,3.647,3.647,0,0,0,.972-0.466,12.2,12.2,0,0,0,1.275-1.345l0.043-.062a0.561,0.561,0,0,1,.349-0.278,1.316,1.316,0,0,1,.91.183c0.783,0.448,2.947,1.854,3.55,2.967A1.162,1.162,0,0,1,572.279,995.479ZM562.4,975a0.407,0.407,0,1,0,0,.813,12.628,12.628,0,0,1,12.763,12.458,0.417,0.417,0,0,0,.833,0A13.451,13.451,0,0,0,562.4,975Zm0,3.672a9.729,9.729,0,0,1,9.834,9.6,0.417,0.417,0,0,0,.833,0A10.554,10.554,0,0,0,562.4,977.855,0.407,0.407,0,1,0,562.4,978.668Zm0,2.859a6.831,6.831,0,0,1,6.905,6.74,0.417,0.417,0,0,0,.834,0,7.657,7.657,0,0,0-7.739-7.554A0.407,0.407,0,1,0,562.4,981.527Z" transform="translate(-551 -975)"/>
</svg>
