<svg xmlns="http://www.w3.org/2000/svg" width="34" height="36" viewBox="0 0 34 36">
  <defs>
    <style>
      .cls-1 {
        fill-rule: evenodd;
        opacity: 0.2;
      }
    </style>
  </defs>
  <path id="ic_delivery_header" class="cls-1" d="M358.984,781.487a0.928,0.928,0,0,0-.093-0.4,0.9,0.9,0,0,0-.632-0.487l-15.877-7.507a0.969,0.969,0,0,0-.819,0l-16.033,7.576a0.914,0.914,0,0,0-.53.79v19.049a0.9,0.9,0,0,0,.53.82l16.033,7.576a0.017,0.017,0,0,1,.016.007,0.268,0.268,0,0,1,.07.031,0.213,0.213,0,0,0,.031.007l0.07,0.023c0.008,0,.016.008,0.024,0.008,0.023,0.007.054,0.007,0.078,0.015h0.023c0.031,0,.07.008,0.1,0.008a0.435,0.435,0,0,0,.1-0.008H342.1a0.3,0.3,0,0,0,.078-0.015c0.008,0,.016-0.008.024-0.008l0.07-.023a0.185,0.185,0,0,1,.031-0.007,0.306,0.306,0,0,0,.07-0.031,0.017,0.017,0,0,0,.016-0.007l16.08-7.6a0.916,0.916,0,0,0,.53-0.82V781.509A0.021,0.021,0,0,1,358.984,781.487Zm-17.015-6.566,13.905,6.573-5.121,2.424-13.9-6.573Zm0,13.145-13.906-6.572,6.641-3.138,13.906,6.572Zm-15.1-5.106,14.162,6.695v16.967l-14.162-6.695V782.96ZM342.9,806.622V789.655l6.649-3.147v4.438a0.936,0.936,0,0,0,1.871,0v-5.327l5.69-2.689V799.9Z" transform="translate(-325 -773)"/>
</svg>
