<svg xmlns="http://www.w3.org/2000/svg" width="12" height="18" viewBox="0 0 12 18">
  <defs>
    <style>
      .cls-1 {
        fill: #d7d7d7;
        fill-rule: evenodd;
      }
    </style>
  </defs>
  <path id="ic_edit_pass" class="cls-1" d="M116.217,310.686h-0.782v-2.315a4.435,4.435,0,0,0-8.87,0v2.315h-0.783a0.776,0.776,0,0,0-.782.771v9.771a0.777,0.777,0,0,0,.782.772h10.435a0.778,0.778,0,0,0,.783-0.772v-9.771A0.777,0.777,0,0,0,116.217,310.686Zm-4.435,6.428a0.783,0.783,0,0,1-1.565,0v-1.543a0.783,0.783,0,0,1,1.565,0v1.543Zm2.087-6.428H108.13v-2.315a2.87,2.87,0,0,1,5.739,0v2.315Z" transform="translate(-105 -304)"/>
</svg>
