<svg xmlns="http://www.w3.org/2000/svg" width="16" height="12" viewBox="0 0 16 12">
  <defs>
    <style>
      .cls-1 {
        fill: #d7d7d7;
        fill-rule: evenodd;
      }
    </style>
  </defs>
  <path id="ic_edit_email" class="cls-1" d="M87.006,313.64q1.277-.851,3.1-2.029A4.874,4.874,0,0,0,91,310.869v6.583Zm2.467-2.941-3.275,2.17-0.9.6-0.134.091-0.246.169q-0.29.2-.482,0.324c-0.128.082-.283,0.175-0.464,0.277a2.779,2.779,0,0,1-.514.23,1.484,1.484,0,0,1-.446.077H82.991a1.484,1.484,0,0,1-.446-0.077,2.773,2.773,0,0,1-.513-0.23q-0.273-.153-0.464-0.277t-0.482-.324l-0.246-.169-0.133-.091c-0.249-.167-0.551-0.369-0.9-0.6-0.411-.274-0.889-0.59-1.438-0.954q-1.527-1.01-1.831-1.214a4.358,4.358,0,0,1-1.045-.984A1.943,1.943,0,0,1,75,308.551a1.669,1.669,0,0,1,.371-1.108A1.3,1.3,0,0,1,76.429,307H89.571a1.415,1.415,0,0,1,1,.4,1.279,1.279,0,0,1,.424.963,2.185,2.185,0,0,1-.437,1.287A4.174,4.174,0,0,1,89.474,310.7Zm-13.572.912q1.9,1.23,3.094,2.028l-4,3.813v-6.583A4.662,4.662,0,0,0,75.9,311.611Zm4.437,2.94q0.509,0.357.826,0.558a5.308,5.308,0,0,0,.844.409,2.68,2.68,0,0,0,.982.208h0.018a2.679,2.679,0,0,0,.982-0.208,5.315,5.315,0,0,0,.844-0.409q0.317-.2.826-0.558l0.314-.216,4.533,4.327a1.405,1.405,0,0,1-.936.337H76.429a1.4,1.4,0,0,1-.937-0.337l4.534-4.328C80.14,314.412,80.244,314.484,80.339,314.551Z" transform="translate(-75 -307)"/>
</svg>
