<svg xmlns="http://www.w3.org/2000/svg" width="22" height="16" viewBox="0 0 22 16">
  <defs>
    <style>
      .cls-1 {
        fill: #e3a3cc;
        fill-rule: evenodd;
      }
    </style>
  </defs>
  <path id="ic_email" class="cls-1" d="M140.314,881H123.69a2.634,2.634,0,0,0-2.69,2.57v10.858A2.635,2.635,0,0,0,123.69,897h16.619A2.636,2.636,0,0,0,143,894.427V883.574A2.631,2.631,0,0,0,140.314,881Zm1.461,13.428a1.431,1.431,0,0,1-1.461,1.4H123.69a1.431,1.431,0,0,1-1.461-1.4V883.574a1.431,1.431,0,0,1,1.461-1.4h16.619a1.432,1.432,0,0,1,1.462,1.4v10.853h0Zm-6.9-5.564,5.381-4.61a0.572,0.572,0,0,0,.045-0.831,0.637,0.637,0,0,0-.869-0.044l-7.42,6.364-1.448-1.235a0.026,0.026,0,0,1-.009-0.013,0.734,0.734,0,0,0-.1-0.083l-5.89-5.038a0.634,0.634,0,0,0-.869.049,0.568,0.568,0,0,0,.05.831l5.444,4.65-5.422,4.851a0.572,0.572,0,0,0-.027.831,0.646,0.646,0,0,0,.451.186,0.636,0.636,0,0,0,.419-0.156l5.5-4.921,1.493,1.275a0.631,0.631,0,0,0,.41.148,0.621,0.621,0,0,0,.409-0.153l1.534-1.313,5.472,4.968a0.636,0.636,0,0,0,.869-0.022,0.571,0.571,0,0,0-.023-0.831Z" transform="translate(-121 -881)"/>
</svg>
