<svg xmlns="http://www.w3.org/2000/svg" width="12" height="16" viewBox="0 0 12 16">
  <defs>
    <style>
      .cls-1 {
        fill: #d7d7d7;
        fill-rule: evenodd;
      }
    </style>
  </defs>
  <path id="ic_edit_user" class="cls-1" d="M61,318.9C61,318.651,61,318.866,61,318.9ZM55,321c-5.116,0-6-1.806-6-1.806,0-.21,0-0.33,0-0.4a0.874,0.874,0,0,0,.009-0.28c0.068-3.666.582-4.722,4.251-5.394a2.578,2.578,0,0,0,3.479,0c3.71,0.679,4.194,1.752,4.253,5.516A2.392,2.392,0,0,0,61,318.9c0,0.064,0,.157,0,0.292C61,319.194,60.115,321,55,321Zm0-8.175c-1.754,0-3.176-1.752-3.176-3.913S52.29,305,55,305s3.176,1.752,3.176,3.912S56.754,312.825,55,312.825ZM49,318.8C49,318.762,49,318.667,49,318.8Z" transform="translate(-49 -305)"/>
</svg>
