<svg xmlns="http://www.w3.org/2000/svg" width="14" height="12" viewBox="0 0 14 12">
  <defs>
    <style>
      .cls-1 {
        fill: #d7d7d7;
        fill-rule: evenodd;
      }
    </style>
  </defs>
  <path id="ic_edit_photo" class="cls-1" d="M258.453,309.387a1.809,1.809,0,0,0-1.32-.541H255.5l-0.372-.981a1.336,1.336,0,0,0-.507-0.609,1.3,1.3,0,0,0-.754-0.256h-3.734a1.3,1.3,0,0,0-.754.256,1.336,1.336,0,0,0-.507.609l-0.372.981h-1.633a1.809,1.809,0,0,0-1.32.541,1.769,1.769,0,0,0-.547,1.305v6.462a1.769,1.769,0,0,0,.547,1.305,1.809,1.809,0,0,0,1.32.541h10.266a1.809,1.809,0,0,0,1.32-.541,1.768,1.768,0,0,0,.546-1.305v-6.462A1.764,1.764,0,0,0,258.453,309.387Zm-4.145,6.819a3.284,3.284,0,0,1-4.616,0,3.2,3.2,0,0,1,0-4.565,3.281,3.281,0,0,1,4.616,0A3.2,3.2,0,0,1,254.308,316.206ZM252,311.846a2.033,2.033,0,0,0-1.484.61,2.056,2.056,0,0,0,0,2.935,2.113,2.113,0,0,0,2.968,0,2.056,2.056,0,0,0,0-2.935A2.033,2.033,0,0,0,252,311.846Z" transform="translate(-245 -307)"/>
</svg>
