<svg xmlns="http://www.w3.org/2000/svg" width="15" height="15" viewBox="0 0 15 15">
  <defs>
    <style>
      .cls-1 {
        fill: #d7d7d7;
        fill-rule: evenodd;
      }
    </style>
  </defs>
  <path id="ic_edit_phone" class="cls-1" d="M174.993,317.838a0.728,0.728,0,0,1-.223.635l-2.112,2.1a1.188,1.188,0,0,1-.373.27,1.532,1.532,0,0,1-.453.143c-0.01,0-.042,0-0.095.008s-0.121.008-.206,0.008a7,7,0,0,1-2.628-.612,13.833,13.833,0,0,1-2.215-1.215,16.518,16.518,0,0,1-2.636-2.225,17.357,17.357,0,0,1-1.842-2.1A14.921,14.921,0,0,1,161.035,313a9.86,9.86,0,0,1-.667-1.541,8.093,8.093,0,0,1-.3-1.192A3.98,3.98,0,0,1,160,309.48c0.011-.191.016-0.3,0.016-0.318a1.551,1.551,0,0,1,.143-0.453,1.177,1.177,0,0,1,.27-0.373l2.112-2.114a0.7,0.7,0,0,1,.508-0.222,0.592,0.592,0,0,1,.365.119,1.087,1.087,0,0,1,.27.294l1.7,3.226a0.771,0.771,0,0,1,.08.556,0.993,0.993,0,0,1-.27.508l-0.778.779a0.263,0.263,0,0,0-.056.1,0.389,0.389,0,0,0-.024.119,2.9,2.9,0,0,0,.286.763,6.958,6.958,0,0,0,.588.929,10.319,10.319,0,0,0,1.127,1.264,10.541,10.541,0,0,0,1.271,1.136,7.282,7.282,0,0,0,.929.6,2.44,2.44,0,0,0,.571.23l0.2,0.04a0.378,0.378,0,0,0,.1-0.024,0.263,0.263,0,0,0,.1-0.056l0.905-.921a0.971,0.971,0,0,1,.667-0.254,0.827,0.827,0,0,1,.429.1h0.016l3.064,1.811A0.8,0.8,0,0,1,174.993,317.838Z" transform="translate(-160 -306)"/>
</svg>
