<svg xmlns="http://www.w3.org/2000/svg" width="26" height="26" viewBox="0 0 26 26">
  <defs>
    <style>
      .cls-1 {
        fill: #fff;
        fill-rule: evenodd;
      }
    </style>
  </defs>
  <path id="ic_favorite_before" class="cls-1" d="M195.075,975.665A4.075,4.075,0,0,1,198,976.909a4.075,4.075,0,0,1,2.925-1.244,3.379,3.379,0,0,1,3.575,3.257c0,2.25-2.21,4.085-5.59,6.807l-0.91.77-0.91-.77c-3.315-2.782-5.59-4.617-5.59-6.807A3.379,3.379,0,0,1,195.075,975.665ZM198,967a13,13,0,1,1-13,13A13.015,13.015,0,0,1,198,967Zm0,23.562A10.563,10.563,0,1,0,187.438,980,10.573,10.573,0,0,0,198,990.561Z" transform="translate(-185 -967)"/>
</svg>
