<svg xmlns="http://www.w3.org/2000/svg" width="44.875" height="44.687" viewBox="0 0 44.875 44.687">
  <defs>
    <style>
      .cls-1 {
        fill: #dedede;
        fill-rule: evenodd;
        opacity: 0.3;
      }
    </style>
  </defs>
  <path id="ic_FeaturedItems" class="cls-1" d="M306.413,651.415a14.836,14.836,0,0,0-1.5-6.515,15.064,15.064,0,0,0-27.082,0,14.836,14.836,0,0,0-1.5,6.515,15.02,15.02,0,0,0,13.735,14.92l-2.488,3.7a0.711,0.711,0,0,0,.168.97,6.035,6.035,0,0,0,2.908,1.15v8.268a0.716,0.716,0,0,0,1.432,0v-8.268A6.035,6.035,0,0,0,295,671a0.711,0.711,0,0,0,.168-0.97l-2.488-3.7A15.021,15.021,0,0,0,306.413,651.415Zm-15.04,19.351a4.626,4.626,0,0,1-2.194-.546l2.194-3.26,2.195,3.26A4.63,4.63,0,0,1,291.373,670.766Zm0-5.8a13.551,13.551,0,1,1,13.607-13.551A13.594,13.594,0,0,1,291.373,664.966Zm-8.046.962a10.511,10.511,0,0,1-7.824-19.254,0.71,0.71,0,0,0,.257-0.958c0-.007-0.007-0.014-0.011-0.02a0.718,0.718,0,0,0-.982-0.246,12.038,12.038,0,0,0-4.227,4.272,11.924,11.924,0,0,0,9.082,17.838l-1.815,2.7a0.71,0.71,0,0,0,.168.969,4.9,4.9,0,0,0,2.226.916v8.278a0.716,0.716,0,0,0,1.432,0v-8.278a4.9,4.9,0,0,0,2.226-.916,0.71,0.71,0,0,0,.168-0.969l-1.815-2.7a11.806,11.806,0,0,0,1.441-.242,0.713,0.713,0,0,0,.534-0.857c0-.007,0-0.015-0.006-0.023A0.718,0.718,0,0,0,283.327,665.928Zm-2.41,4.838a3.491,3.491,0,0,1-1.5-.335l1.5-2.234,1.5,2.234A3.5,3.5,0,0,1,280.917,670.766Zm32.9-15.071a11.894,11.894,0,0,0-1.607-5.973,12.03,12.03,0,0,0-4.227-4.272,0.718,0.718,0,0,0-.982.246l-0.011.019a0.712,0.712,0,0,0,.257.959,10.521,10.521,0,0,1-7.824,19.254,0.715,0.715,0,0,0-.853.509c0,0.008,0,.016-0.007.023a0.713,0.713,0,0,0,.535.857,11.823,11.823,0,0,0,1.44.242l-1.815,2.7a0.712,0.712,0,0,0,.168.969,4.908,4.908,0,0,0,2.227.916v8.278a0.716,0.716,0,0,0,1.432,0v-8.278a4.9,4.9,0,0,0,2.225-.916,0.71,0.71,0,0,0,.168-0.969l-1.814-2.7A11.971,11.971,0,0,0,313.812,655.7Zm-11.984,15.071a3.5,3.5,0,0,1-1.5-.335l1.5-2.234,1.5,2.234A3.5,3.5,0,0,1,301.828,670.766Zm-8.335-18.3a0.716,0.716,0,0,0-.915.433,1.281,1.281,0,0,1-2.41,0,0.716,0.716,0,0,0-1.349.478,2.715,2.715,0,0,0,5.109,0A0.714,0.714,0,0,0,293.493,652.465Zm-4.43-3.522v-0.572a0.714,0.714,0,0,0-.716-0.712H286.34a0.713,0.713,0,1,0,0,1.426h1.305A0.716,0.716,0,0,0,289.063,648.943Zm7.343-1.284H294.4a0.714,0.714,0,0,0-.716.712v0.572a0.716,0.716,0,0,0,1.418.142h1.305A0.713,0.713,0,1,0,296.406,647.659ZM292.089,640a0.714,0.714,0,0,0-.716-0.713,12.228,12.228,0,0,0-10.573,6.118,0.715,0.715,0,0,0,1.243.708,10.794,10.794,0,0,1,9.33-5.4A0.714,0.714,0,0,0,292.089,640Zm-11.577,7.7a0.716,0.716,0,0,0-.88.5,12.052,12.052,0,0,0-.434,3.208,0.717,0.717,0,0,0,1.433,0,10.633,10.633,0,0,1,.382-2.83A0.714,0.714,0,0,0,280.512,647.708Z" transform="translate(-268.938 -636.438)"/>
</svg>
