<svg xmlns="http://www.w3.org/2000/svg" width="37" height="47" viewBox="0 0 37 47">
  <defs>
    <style>
      .cls-1 {
        fill: #f3da95;
        fill-rule: evenodd;
      }
    </style>
  </defs>
  <path id="ic_flag" class="cls-1" d="M1452.32,417.225c-5.37,3.361-10.77,1.672-16.49-.117-4.34-1.357-8.79-2.748-13.3-1.88V413H1417v47h5.53V441.674c4.12-.94,8.29.364,12.64,1.726,3.41,1.065,6.87,2.151,10.39,2.151a14.51,14.51,0,0,0,7.92-2.268l0.52-.323V416.173ZM1419.2,415.2h1.13v0.64c-0.38.138-.75,0.295-1.13,0.472V415.2Zm1.13,42.6h-1.13v-14.82a11.829,11.829,0,0,1,1.13-.536V457.8h0Zm31.47-16.075h0c-5.2,2.945-10.44,1.307-15.97-.424-3.41-1.065-6.88-2.151-10.39-2.151a15.326,15.326,0,0,0-2.91.271h0a14.087,14.087,0,0,0-3.33,1.081v-21.72c0.2-.112.39-0.219,0.59-0.319l0.03-.013c0.24-.12.49-0.232,0.73-0.336a0.131,0.131,0,0,0,.04-0.016l0.35-.14a0.558,0.558,0,0,0,.07-0.024c0.09-.035.19-0.069,0.28-0.1l0.09-.032c0.1-.034.21-0.066,0.31-0.1,4.39-1.344,8.83.045,13.48,1.5,3.41,1.065,6.87,2.151,10.39,2.15a14.476,14.476,0,0,0,6.24-1.351v21.722h0Z" transform="translate(-1417 -413)"/>
</svg>
