<svg xmlns="http://www.w3.org/2000/svg" width="9" height="16" viewBox="0 0 9 16">
  <defs>
    <style>
      .cls-1 {
        fill: #f4c1e2;
        fill-rule: evenodd;
      }
    </style>
  </defs>
  <path id="ic_fb_alt" class="cls-1" d="M715.661,1038H713.5a3.718,3.718,0,0,0-3.992,3.94v1.81h-2.171a0.336,0.336,0,0,0-.339.33v2.63a0.336,0.336,0,0,0,.339.33h2.171v6.63a0.336,0.336,0,0,0,.339.33h2.832a0.336,0.336,0,0,0,.339-0.33v-6.63h2.538a0.336,0.336,0,0,0,.339-0.33v-2.63a0.309,0.309,0,0,0-.1-0.23,0.357,0.357,0,0,0-.24-0.1H713.02v-1.54c0-.74.184-1.11,1.186-1.11h1.454a0.336,0.336,0,0,0,.34-0.33v-2.44A0.336,0.336,0,0,0,715.661,1038Z" transform="translate(-707 -1038)"/>
</svg>
