<svg xmlns="http://www.w3.org/2000/svg" width="40" height="33" viewBox="0 0 40 33">
  <metadata><?xpacket begin="﻿" id="W5M0MpCehiHzreSzNTczkc9d"?>
<x:xmpmeta xmlns:x="adobe:ns:meta/" x:xmptk="Adobe XMP Core 5.6-c142 79.160924, 2017/07/13-01:06:39        ">
   <rdf:RDF xmlns:rdf="http://www.w3.org/1999/02/22-rdf-syntax-ns#">
      <rdf:Description rdf:about=""/>
   </rdf:RDF>
</x:xmpmeta>
                                                                                                    
                                                                                                    
                                                                                                    
                                                                                                    
                                                                                                    
                                                                                                    
                                                                                                    
                                                                                                    
                                                                                                    
                                                                                                    
                                                                                                    
                                                                                                    
                                                                                                    
                                                                                                    
                                                                                                    
                                                                                                    
                                                                                                    
                                                                                                    
                                                                                                    
                                                                                                    
                           
<?xpacket end="w"?></metadata>
<defs>
    <style>
      .cls-1 {
        fill: #fff;
        fill-rule: evenodd;
      }
    </style>
  </defs>
  <path class="cls-1" d="M1245.57,5150.17h-7.29l-2.02-4.5a1.1,1.1,0,0,0-1-.67h-10.51a1.11,1.11,0,0,0-1.01.67l-2.01,4.5h-4.94v-0.4a1.11,1.11,0,1,0-2.22,0v0.4h-0.13a4.5,4.5,0,0,0-4.44,4.54v18.76a4.488,4.488,0,0,0,4.44,4.53h31.12a4.488,4.488,0,0,0,4.44-4.53v-18.76A4.489,4.489,0,0,0,1245.57,5150.17Zm-20.1-2.9h9.07l1.3,2.9h-11.67Zm20.1,28.46h-31.13a2.243,2.243,0,0,1-2.22-2.26v-18.76a2.245,2.245,0,0,1,2.22-2.27h31.12a2.245,2.245,0,0,1,2.22,2.27v18.76h0.01A2.243,2.243,0,0,1,1245.57,5175.73Zm-26.73-21.02h-3.53a1.13,1.13,0,0,0,0,2.26h3.53A1.13,1.13,0,0,0,1218.84,5154.71Zm11.16,0a9.382,9.382,0,1,0,9.19,9.38A9.3,9.3,0,0,0,1230,5154.71Zm0,16.49a7.117,7.117,0,1,1,6.97-7.11A7.051,7.051,0,0,1,1230,5171.2Zm0-11.95a1.13,1.13,0,0,0,0,2.26,2.548,2.548,0,0,1,2.52,2.58,1.11,1.11,0,1,0,2.22,0A4.791,4.791,0,0,0,1230,5159.25Z" transform="translate(-1210 -5145)"/>
</svg>
