<?xml version="1.0" encoding="utf-8"?>
<!-- Generator: Adobe Illustrator 19.2.1, SVG Export Plug-In . SVG Version: 6.00 Build 0)  -->
<svg version="1.1" id="Слой_1" xmlns="http://www.w3.org/2000/svg" xmlns:xlink="http://www.w3.org/1999/xlink" x="0px" y="0px"
	 viewBox="0 0 8.2 8.2" style="enable-background:new 0 0 8.2 8.2;" xml:space="preserve">
<style type="text/css">
	.st0{fill-rule:evenodd;clip-rule:evenodd;fill:#E3A3CC;}
	.st1{fill:#FFFFFF;}
</style>
<path class="st0" d="M4.1,0c2.3,0,4.1,1.8,4.1,4.1S6.3,8.2,4.1,8.2S0,6.3,0,4.1S1.8,0,4.1,0z"/>
<path class="st1" d="M3.1,2.3c0.4,0,0.7,0.2,1,0.4c0.2-0.3,0.6-0.4,1-0.4c0.7,0,1.2,0.5,1.2,1.2c0,0.8-0.7,1.4-1.9,2.4L4.1,6.2
	L3.8,5.9c-1.1-1-1.9-1.6-1.9-2.4C1.9,2.8,2.4,2.3,3.1,2.3z"/>
</svg>
