<svg xmlns="http://www.w3.org/2000/svg" width="33.563" height="34" viewBox="0 0 33.563 34">
  <defs>
    <style>
      .cls-1 {
        fill: #ddd;
        fill-rule: evenodd;
      }
    </style>
  </defs>
  <path id="ic_fb_link" class="cls-1" d="M161.781,1021A17,17,0,1,1,145,1038,16.891,16.891,0,0,1,161.781,1021Zm3.374,9.12h-1.964a3.421,3.421,0,0,0-3.631,3.67v1.7h-1.974a0.3,0.3,0,0,0-.308.3v2.46a0.308,0.308,0,0,0,.308.3h1.974v6.19a0.31,0.31,0,0,0,.309.31h2.575a0.31,0.31,0,0,0,.309-0.31v-6.19h2.308a0.308,0.308,0,0,0,.309-0.3v-2.46a0.28,0.28,0,0,0-.091-0.21,0.3,0.3,0,0,0-.218-0.09h-2.309v-1.44a0.872,0.872,0,0,1,1.079-1.04h1.322a0.308,0.308,0,0,0,.309-0.3v-2.28A0.31,0.31,0,0,0,165.155,1030.12Z" transform="translate(-145 -1021)"/>
</svg>
