<svg xmlns="http://www.w3.org/2000/svg" width="18" height="18" viewBox="0 0 18 18">
  <defs>
    <style>
      .cls-1 {
        fill: #999;
        fill-rule: evenodd;
      }
    </style>
  </defs>
  <path id="ic_google_alt" class="cls-1" d="M599.716,1037H595.3a6.746,6.746,0,0,0-4.555,1.4,4.208,4.208,0,0,0-1.54,3.15,3.763,3.763,0,0,0,4,3.68c0.25,0,.526-0.02.77-0.04l-0.036.08a1.928,1.928,0,0,0-.2.83,2.355,2.355,0,0,0,.68,1.55l0.043,0.05h-0.075a10.528,10.528,0,0,0-4.527,1.08,3.338,3.338,0,0,0-1.856,2.86c0,1.67,1.6,3.36,5.18,3.36,4.161,0,6.338-2.23,6.338-4.44,0-1.63-.983-2.43-2.027-3.29l-0.881-.66a1.26,1.26,0,0,1-.61-1,1.568,1.568,0,0,1,.637-1.11l0.032-.03a3.985,3.985,0,0,0,2.028-3.34,3.9,3.9,0,0,0-1.709-3.17h1.466a0.1,0.1,0,0,0,.051-0.02l1.262-.77a0.086,0.086,0,0,0,.041-0.1A0.1,0.1,0,0,0,599.716,1037Zm-5.355,17.02c-2.536,0-4.24-1.16-4.24-2.87,0-1.12.7-1.93,2.069-2.42a9.815,9.815,0,0,1,2.533-.37,4.684,4.684,0,0,1,.553.02c1.775,1.23,2.628,1.87,2.628,3.1C597.9,1053.04,596.546,1054.02,594.361,1054.02Zm-0.024-9.44c-2.128,0-3.012-2.72-3.012-4.18a2.62,2.62,0,0,1,.53-1.74,2.255,2.255,0,0,1,1.687-.77c1.955,0,3.036,2.55,3.036,4.32a2.365,2.365,0,0,1-.6,1.71A2.527,2.527,0,0,1,594.337,1044.58Zm11.567,0.83h-2.326v-2.26a0.093,0.093,0,0,0-.1-0.09h-1a0.092,0.092,0,0,0-.1.09v2.26h-2.315a0.093,0.093,0,0,0-.1.09v0.99a0.093,0.093,0,0,0,.1.09h2.315v2.27a0.092,0.092,0,0,0,.1.09h1a0.093,0.093,0,0,0,.1-0.09v-2.27H605.9a0.093,0.093,0,0,0,.1-0.09v-0.99A0.093,0.093,0,0,0,605.9,1045.41Z" transform="translate(-588 -1037)"/>
</svg>
