<svg xmlns="http://www.w3.org/2000/svg" width="63" height="63" viewBox="0 0 63 63">
  <defs>
    <style>
      .cls-1 {
        fill: #f3da95;
        fill-rule: evenodd;
      }
    </style>
  </defs>
  <path id="ic_henparty" class="cls-1" d="M1441.32,273.97a3.91,3.91,0,0,0,7.82,0,0.932,0.932,0,0,0-.93-0.928h-5.96A0.932,0.932,0,0,0,1441.32,273.97Zm5.74,0.928a2.051,2.051,0,0,1-3.66,0h3.66Zm-2.11-2.734h0.55a0.925,0.925,0,0,0,.93-0.928v-3.608a0.925,0.925,0,1,0-1.85,0v2.761A0.928,0.928,0,0,0,1444.95,272.164Zm-21.56,1.535a0.931,0.931,0,0,0-.93-0.928h-6.37a0.923,0.923,0,0,0-.92.928A4.11,4.11,0,1,0,1423.39,273.7Zm-6.17.927h4.12A2.26,2.26,0,0,1,1417.22,274.626Zm1.76-2.922h0.59a0.932,0.932,0,0,0,.93-0.928v-3.857a0.93,0.93,0,0,0-1.86,0v2.993A0.93,0.93,0,0,0,1418.98,271.7Zm-2.87-5.676a0.932,0.932,0,0,0-.93-0.928h-1.85a0.928,0.928,0,1,0,0,1.856h1.85A0.932,0.932,0,0,0,1416.11,266.028Zm7.26,0.928h1.86a0.928,0.928,0,0,0,0-1.856h-1.86A0.928,0.928,0,0,0,1423.37,266.956Zm42.21-2.579a11.468,11.468,0,0,0-.9-8.437,9.406,9.406,0,0,0-11.17-4.752,14,14,0,0,0-5.98-2.537,9.083,9.083,0,0,0-2.03-1.527c-1.65-5.983-6.73-10.124-12.47-10.124h-0.01a10.731,10.731,0,0,0-6.87,2.44,13.092,13.092,0,0,0-4.01,6.095c-5.86-4.4-11.58-2.838-14.83,0a12.772,12.772,0,0,0-4.21,8.108,15.193,15.193,0,0,0,2.53,10.135v2.11a3.9,3.9,0,0,0-.6,2.113,3.338,3.338,0,0,0,3.06,3.556,2.616,2.616,0,0,0,.72-0.1c0.67,4.993,3.49,9.062,7.19,10.6v1.832a6.017,6.017,0,0,0-2.06-.387,1.318,1.318,0,0,0-.91.286,3.2,3.2,0,0,0-.93,2.191c-4.79,1.76-7.73,5.106-7.73,8.836v4.258a0.925,0.925,0,0,0,.93.928h51.9a0.932,0.932,0,0,0,.93-0.928v-4.258a7.729,7.729,0,0,0-.06-0.965,7.36,7.36,0,0,0,5.08-2.447c2.65-3.079,1.98-7.822,1.95-8.023h0a0.93,0.93,0,0,0-1.85.137,1.925,1.925,0,1,1-3.85,0V273.025A16.686,16.686,0,0,0,1465.58,264.377Zm-8.04-1.509v11.215a2.432,2.432,0,0,0-2.41-2.144l-0.06,0a15.86,15.86,0,0,0,.15-2.2v-8.006a0.931,0.931,0,0,0-.93-0.928h-0.02c-8.04-.462-12.28-2.648-14.42-4.4a8.731,8.731,0,0,1-2.53-3.151,12.116,12.116,0,0,1,7.91-2.941A12.445,12.445,0,0,1,1457.54,262.868Zm-1.83,11.506a0.58,0.58,0,1,1-1.16,0,0.2,0.2,0,0,1,.01-0.076,1.162,1.162,0,0,1,.05-0.176,0.573,0.573,0,0,1,.52-0.327A0.58,0.58,0,0,1,1455.71,274.374Zm-7.62-7.325c0.05,0.021.1,0.039,0.16,0.058l-0.28.608a0.928,0.928,0,0,0,.46,1.23,0.884,0.884,0,0,0,.38.084,0.932,0.932,0,0,0,.85-0.543l0.42-.928c0.23,0.031.46,0.051,0.7,0.065v0.822a0.925,0.925,0,1,0,1.85,0v-0.887c0.25-.033.49-0.079,0.73-0.132v2.317c0,5.991-3.64,10.866-8.13,10.866s-8.14-4.875-8.14-10.866v-2.314c0.24,0.052.49,0.1,0.73,0.129v0.887a0.93,0.93,0,0,0,1.86,0v-0.822c0.23-.014.47-0.034,0.7-0.065l0.42,0.928a0.932,0.932,0,0,0,.85.543,0.917,0.917,0,0,0,.38-0.084,0.929,0.929,0,0,0,.46-1.23l-0.28-.608c0.05-.019.11-0.037,0.16-0.058a0.928,0.928,0,1,0-.68-1.727,7.142,7.142,0,0,1-2.59.465,7.454,7.454,0,0,1-2.01-.271v-3.822c0.01-1.146.37-3.565,1.4-3.992,2.52,2.132,6.99,4.33,14.87,4.907v2.909a7.327,7.327,0,0,1-2,.269,7.215,7.215,0,0,1-2.6-.466A0.927,0.927,0,1,0,1448.09,267.049Zm-12.85-5.358v8.051a15.874,15.874,0,0,0,.15,2.2l-0.06,0a2.43,2.43,0,0,0-2.41,2.141V262.868a12.671,12.671,0,0,1,3.01-8.218,9.8,9.8,0,0,0,1.19,1.7C1435.31,257.733,1435.24,261.212,1435.24,261.691Zm0.67,12.683a0.58,0.58,0,1,1-.58-0.579,0.573,0.573,0,0,1,.52.327c0.02,0.059.03,0.117,0.05,0.176A0.2,0.2,0,0,1,1435.91,274.374Zm-3.34-17.978c0.32-4.694,3.05-6.58,3.17-6.661,0.02-.014.04-0.03,0.06-0.046a8.015,8.015,0,0,1,8.34-1.185A14.2,14.2,0,0,0,1432.57,256.4Zm-26.91,3.362a11.489,11.489,0,0,1,2.87-12.822c3.03-2.648,8.16-3.8,13.49.894h0.01a0.936,0.936,0,0,0,.39.2,0.925,0.925,0,0,0,1.12-.68c1.3-5.315,4.85-8.492,9.48-8.5h0.01a11.269,11.269,0,0,1,10.22,7.383,9.113,9.113,0,0,0-1.93-.263,10.379,10.379,0,0,0-6.63,2.23,9.9,9.9,0,0,0-3.64,5.874,14.2,14.2,0,0,0-11.77-6.069C1412.05,248.011,1406.11,253.21,1405.66,259.758Zm3,9.73a0.913,0.913,0,0,1-.57.218,1.8,1.8,0,0,1,0-3.4,0.913,0.913,0,0,1,.57.217v2.967Zm0-8.917v3.942a2.637,2.637,0,0,0-.57-0.065,2.692,2.692,0,0,0-.61.07v-3.947c0-5.9,5.29-10.705,11.8-10.705,6.38,0,11.78,4.677,11.78,10.212v4.437a2.629,2.629,0,0,0-.59-0.067,2.728,2.728,0,0,0-.58.065v-3.942a0.922,0.922,0,0,0-.92-0.927h-9.43l-2.57-4.915a0.928,0.928,0,0,0-1.73.236l-1,4.679h-4.65A0.931,0.931,0,0,0,1408.66,260.571Zm12.84,26.113a4.84,4.84,0,0,1,2.93-1.32,10.366,10.366,0,0,1,0,4.7,4.84,4.84,0,0,1-2.93-1.32A2.1,2.1,0,0,0,1421.5,286.684Zm3.12-3.183a6.076,6.076,0,0,0-2.07.387v-1.832c3.71-1.536,6.53-5.606,7.19-10.6a2.652,2.652,0,0,0,1.32.037v12.021a1.93,1.93,0,1,1-3.86,0,0.925,0.925,0,0,0-1.84-.137h0c0,0.025-.02.124-0.04,0.282A1.248,1.248,0,0,0,1424.62,283.5Zm5.85-13.795a0.942,0.942,0,0,1-.58-0.218v-2.967a0.879,0.879,0,0,1,1.17.012v2.941A0.912,0.912,0,0,1,1430.47,269.706Zm-19.95-.527V261.5h4.46a0.927,0.927,0,0,0,.91-0.733l0.63-2.906,1.64,3.142a0.93,0.93,0,0,0,.82.5h9.06v7.68c0,6.44-3.93,11.681-8.76,11.681S1410.52,275.619,1410.52,269.179Zm3.61,16.185a4.81,4.81,0,0,1,2.92,1.32,2.1,2.1,0,0,0,0,2.061,4.81,4.81,0,0,1-2.92,1.32A10.366,10.366,0,0,1,1414.13,285.364Zm4.22,12.78h-7.83V295.9a0.93,0.93,0,0,0-1.86,0v2.239h-2.44v-3.33c0-2.745,2.19-5.277,5.79-6.8,0.03,1.951.35,3.111,1.02,3.632a1.346,1.346,0,0,0,.81.29c0.03,0,.07,0,0.1,0a6.589,6.589,0,0,0,4.41-1.859v8.075Zm1.31-10.171h-0.77a0.259,0.259,0,0,1,0-.517h0.77A0.259,0.259,0,1,1,1419.66,287.973Zm0-2.372h-0.77a2.228,2.228,0,0,0-.27.019,8.507,8.507,0,0,0-.76-0.68v-2.346a8.434,8.434,0,0,0,1.42.121,8.524,8.524,0,0,0,1.42-.121v2.346a8.712,8.712,0,0,0-.77.68A2.228,2.228,0,0,0,1419.66,285.6Zm12.67,12.543h-2.44V295.9a0.925,0.925,0,1,0-1.85,0v2.239h-7.83v-8.075a6.567,6.567,0,0,0,4.41,1.859c0.03,0,.06,0,0.09,0a1.324,1.324,0,0,0,.81-0.29,2.713,2.713,0,0,0,.85-1.646,7.014,7.014,0,0,0,.94,1.406,7.292,7.292,0,0,0,4.92,2.43,4.8,4.8,0,0,1,.1.923v3.389Zm-3.61-7.947a6.876,6.876,0,0,1-1.45-3.391,3.718,3.718,0,0,0,1.86.5,3.792,3.792,0,0,0,3.79-3.785v-8.847a2.424,2.424,0,0,0,3.79,1.708,10.981,10.981,0,0,0,5.24,5.382v3.315c-4.44.9-7.87,3.592-9.11,6.949A5.7,5.7,0,0,1,1428.72,290.2Zm22.75,7.109v0.838h-12.48s-0.01-.82-0.01-0.838a3.444,3.444,0,0,1,2.18-3.466,2.8,2.8,0,0,1,3.28,1.546h0a0.9,0.9,0,0,0,.31.314,0.922,0.922,0,0,0,1.27-.313,2.785,2.785,0,0,1,3.27-1.546A3.425,3.425,0,0,1,1451.47,297.306Zm4.8,0.838h-2.94v-0.759a5.171,5.171,0,0,0-3.49-5.318,8.833,8.833,0,0,1-9.23,0,5.173,5.173,0,0,0-3.48,5.317v0.759h-2.94v-3.41c0.05-3.853,3.75-7.2,8.83-7.967a0.924,0.924,0,0,0,.79-0.989v-3.445a7.854,7.854,0,0,0,1.42.131,7.939,7.939,0,0,0,1.42-.131v3.49a0.94,0.94,0,0,0,.85.955c5.08,0.826,8.77,4.174,8.77,8.036v3.33h0Zm5.06-10.843a3.774,3.774,0,0,0,1.87-.5,6.824,6.824,0,0,1-1.46,3.387,5.674,5.674,0,0,1-4.12,1.832c-1.25-3.353-4.68-6.044-9.12-6.948v-3.316a10.951,10.951,0,0,0,5.25-5.381,2.391,2.391,0,0,0,1.38.432,2.432,2.432,0,0,0,2.41-2.145v8.851A3.792,3.792,0,0,0,1461.33,287.3Zm-6.09-34.615a7.572,7.572,0,0,1,7.8,4.136c1.83,3.394,1.84,8.886-3.64,13.793v-7.747A14.467,14.467,0,0,0,1455.24,252.686Z" transform="translate(-1403 -237)"/>
</svg>
