<svg xmlns="http://www.w3.org/2000/svg" width="26" height="26" viewBox="0 0 26 26">
  <defs>
    <style>
      .cls-1 {
        fill: #fff;
        fill-rule: evenodd;
      }
    </style>
  </defs>
  <path id="ic_info" class="cls-1" d="M239,973.5a1.625,1.625,0,1,0,1.625,1.624A1.625,1.625,0,0,0,239,973.5Zm0,4.875A1.625,1.625,0,0,0,237.375,980v4.874a1.625,1.625,0,0,0,3.25,0V980A1.624,1.624,0,0,0,239,978.374ZM239,967a13,13,0,1,0,13,13A13.014,13.014,0,0,0,239,967Zm0,23.562A10.563,10.563,0,1,1,249.562,980,10.574,10.574,0,0,1,239,990.561Z" transform="translate(-226 -967)"/>
</svg>
