<svg xmlns="http://www.w3.org/2000/svg" width="36.031" height="35.906" viewBox="0 0 36.031 35.906">
  <defs>
    <style>
      .cls-1 {
        fill: #dedede;
        fill-rule: evenodd;
        opacity: 0.3;
      }
    </style>
  </defs>
  <path id="ic_instagram" class="cls-1" d="M351.81,678.84H335.654a9.941,9.941,0,0,1-9.95-9.91V652.841a9.941,9.941,0,0,1,9.95-9.91H351.81a9.942,9.942,0,0,1,9.951,9.91V668.93A9.942,9.942,0,0,1,351.81,678.84Zm6.752-9.91V652.841a6.745,6.745,0,0,0-6.752-6.723H335.654a6.744,6.744,0,0,0-6.751,6.723V668.93a6.745,6.745,0,0,0,6.751,6.724h16.157a6.745,6.745,0,0,0,6.751-6.724h0Zm-5.149-15.325a2.344,2.344,0,0,1-2.346-2.337,2.346,2.346,0,1,1,4,1.653A2.373,2.373,0,0,1,353.413,653.605Zm-9.681,16.533a9.253,9.253,0,1,1,9.291-9.252A9.282,9.282,0,0,1,343.732,670.138Zm0-15.319a6.067,6.067,0,1,0,6.092,6.067A6.086,6.086,0,0,0,343.732,654.819Z" transform="translate(-325.719 -642.938)"/>
</svg>
