<svg xmlns="http://www.w3.org/2000/svg" width="33.563" height="34" viewBox="0 0 33.563 34">
  <defs>
    <style>
      .cls-1 {
        fill: #ddd;
        fill-rule: evenodd;
      }
    </style>
  </defs>
  <path id="ic_insta_link" class="cls-1" d="M208.437,1021a17,17,0,1,1-16.781,17A16.892,16.892,0,0,1,208.437,1021Zm3.482,24.88h-6.968a4.325,4.325,0,0,1-4.292-4.35v-7.06a4.325,4.325,0,0,1,4.292-4.35h6.968a4.325,4.325,0,0,1,4.292,4.35v7.06A4.325,4.325,0,0,1,211.919,1045.88Zm2.912-4.35v-7.06a2.932,2.932,0,0,0-2.912-2.95h-6.968a2.932,2.932,0,0,0-2.912,2.95v7.06a2.932,2.932,0,0,0,2.912,2.95h6.968a2.932,2.932,0,0,0,2.912-2.95h0Zm-2.221-6.73a1.012,1.012,0,0,1-.714-0.3,1.024,1.024,0,0,1-.3-0.72,1.047,1.047,0,0,1,.3-0.73,1,1,0,0,1,1.43,0,1.046,1.046,0,0,1,.3.73A1.017,1.017,0,0,1,212.61,1034.8Zm-4.175,7.26a4.06,4.06,0,1,1,4.007-4.06A4.037,4.037,0,0,1,208.435,1042.06Zm0-6.72a2.66,2.66,0,1,0,2.628,2.66A2.645,2.645,0,0,0,208.435,1035.34Z" transform="translate(-191.656 -1021)"/>
</svg>
