<svg xmlns="http://www.w3.org/2000/svg" width="57" height="57" viewBox="0 0 57 57">
  <defs>
    <style>
      .cls-1 {
        fill: #f3da95;
        fill-rule: evenodd;
      }
    </style>
  </defs>
  <path id="ic_march" class="cls-1" d="M1223.94,583.707a0.871,0.871,0,0,0-.45-0.526c-0.17-.088-0.34-0.171-0.52-0.249l-0.09-3.62a0.883,0.883,0,0,0-.49-0.787l-7.61-3.9a0.9,0.9,0,0,0-.92.058l-3,2.039c-0.16-.1-0.33-0.19-0.5-0.278a0.916,0.916,0,0,0-1.23.4l-3.38,6.586a8.056,8.056,0,0,0,2.91,10.511l-2.62,5.1a24.552,24.552,0,0,0-2.52-1.015c-0.03-.011-0.05-0.022-0.08-0.032a1.046,1.046,0,0,0-.15-0.041,24.93,24.93,0,0,0-6.89-1.235v-5.736a8.057,8.057,0,0,0,7.39-8.026v-7.261a0.922,0.922,0,0,0-.91-1.05c-0.2,0-.39.006-0.58,0.016l-1.73-3.18a0.916,0.916,0,0,0-.8-0.474h-8.55a0.915,0.915,0,0,0-.8.475l-1.73,3.179c-0.19-.01-0.38-0.016-0.58-0.016a0.912,0.912,0,0,0-.91.91v7.4a8.056,8.056,0,0,0,7.38,8.026v5.736a24.928,24.928,0,0,0-9.63,2.323l-2.62-5.1a8.043,8.043,0,0,0,2.9-10.511l-3.36-6.555a0.911,0.911,0,0,0-1.24-.426q-0.255.134-.51,0.278l-2.99-2.039a0.914,0.914,0,0,0-.93-0.057l-7.6,3.9a0.882,0.882,0,0,0-.49.787l-0.09,3.619c-0.18.079-.35,0.161-0.53,0.249a0.913,0.913,0,0,0-.39,1.224l3.38,6.586a7.847,7.847,0,0,0,4.95,4.071,8.3,8.3,0,0,0,2.19.293,8.536,8.536,0,0,0,3.09-.587l2.62,5.1a25.122,25.122,0,0,0-3.89,2.68,0.917,0.917,0,0,0-.13,1.257c0.15,0.194,8.48,10.886,11.42,14.661a0.9,0.9,0,0,0-.39.746,0.911,0.911,0,0,0,.91.909h0.15l-1.05,6.835a0.924,0.924,0,0,0,.21.731,0.9,0.9,0,0,0,.69.317h8.49a0.9,0.9,0,0,0,.69-0.317,0.924,0.924,0,0,0,.21-0.731l-1.05-6.835h0.15a0.911,0.911,0,0,0,.91-0.909,0.9,0.9,0,0,0-.39-0.746l11.42-14.662a0.914,0.914,0,0,0-.13-1.255,25.262,25.262,0,0,0-3.89-2.68l2.62-5.1a8.536,8.536,0,0,0,3.09.587,8.342,8.342,0,0,0,2.19-.293,7.85,7.85,0,0,0,4.95-4.071l3.13-6.1A1.266,1.266,0,0,0,1223.94,583.707Zm-54.03-3.809,6.64-3.407,1.98,1.344a11.145,11.145,0,0,0-3.22,4.413,11.257,11.257,0,0,0-5.46.038Zm6,13.41a5.955,5.955,0,0,1-3.81-3.147l-2.95-5.737a9.543,9.543,0,0,1,11.59,3.839,0.91,0.91,0,0,0,1.55-.953,11.325,11.325,0,0,0-5.24-4.493,9.379,9.379,0,0,1,3.54-4.248c0.03-.019.06-0.037,0.08-0.053,0.56,1.092,1.62,3.163,2.95,5.739a6.321,6.321,0,0,1-2.91,8.522A6.742,6.742,0,0,1,1175.91,593.308Zm15.85-20.489h7.47l1.14,2.1a11.234,11.234,0,0,0-4.88,2.46,11.237,11.237,0,0,0-4.87-2.458Zm-2.74,10.13V576.5a9.545,9.545,0,0,1,8.56,8.7,0.908,0.908,0,1,0,1.81-.141,11.254,11.254,0,0,0-2.61-6.39,9.393,9.393,0,0,1,5.19-2.172v6.45A6.479,6.479,0,0,1,1189.02,582.949Zm3.29,43.232,0.93-6.064h4.51l0.93,6.064h-6.37Zm17.38-22.8L1198.08,618.3h-1.27l2.71-7.252a0.908,0.908,0,1,0-1.7-.638l-2.96,7.89h-1.95c-7.81-10.027-10.61-13.621-11.62-14.913a23.21,23.21,0,0,1,3.61-2.3l0.06-.027,0.06-.032a23.083,23.083,0,0,1,16.91-1.6L1199.09,607a0.918,0.918,0,0,0,.54,1.17,0.865,0.865,0,0,0,.32.058,0.918,0.918,0,0,0,.85-0.591l2.86-7.635a23.868,23.868,0,0,1,2.32,1.024c0.02,0.01.03,0.02,0.05,0.029s0.04,0.017.06,0.025A23.066,23.066,0,0,1,1209.69,603.386Zm4.74-26.9,6.65,3.407,0.06,2.386a11.2,11.2,0,0,0-5.46-.035,11.26,11.26,0,0,0-3.22-4.412Zm4.46,13.671a5.978,5.978,0,0,1-3.81,3.147,6.742,6.742,0,0,1-4.8-.531,6.321,6.321,0,0,1-2.91-8.522l2.95-5.738a9.539,9.539,0,0,1,3.64,11.646,0.906,0.906,0,1,0,1.67.7,11.279,11.279,0,0,0,.6-6.878,9.411,9.411,0,0,1,5.61.436C1221.28,585.515,1220.21,587.586,1218.89,590.161Z" transform="translate(-1167 -571)"/>
</svg>
