<svg xmlns="http://www.w3.org/2000/svg" width="56" height="55" viewBox="0 0 56 55">
  <defs>
    <style>
      .cls-1 {
        fill: #f3da95;
        fill-rule: evenodd;
      }
    </style>
  </defs>
  <path id="ic_mothersday" class="cls-1" d="M1462.7,594.708l-5.59-4.874V579.065a2.314,2.314,0,0,0-2.31-2.307h-12.69l-4.23-3.684a4.394,4.394,0,0,0-5.76,0l-4.23,3.684H1415.2a2.314,2.314,0,0,0-2.31,2.307v10.768l-5.59,4.875a0.9,0.9,0,0,0-.3.669v28.67a2.951,2.951,0,0,0,2.94,2.953h50.12a2.951,2.951,0,0,0,2.94-2.953v-28.67A0.9,0.9,0,0,0,1462.7,594.708Zm-5.59-2.525,3.32,2.9-3.32,1.306v-4.208h0Zm-23.83-17.771a2.623,2.623,0,0,1,3.44,0l2.69,2.346h-8.82Zm-20.39,17.771v4.208l-3.32-1.306Zm-4.12,4.493,17.15,6.73v0.2a6.034,6.034,0,0,0,.17,1.414l-17.32,14.477V596.676Zm52.46,27.371a1.179,1.179,0,0,1-1.17,1.18h-50.12a1.18,1.18,0,0,1-1.17-1.18V621.8l18.06-15.1a5.7,5.7,0,0,0,.75.915l5.63,5.648a2.479,2.479,0,0,0,3.51,0l5.63-5.648a5.47,5.47,0,0,0,.77-0.953l18.11,15.134v2.247h0ZM1427.68,603.6a3.881,3.881,0,0,1,1.15-2.764,3.841,3.841,0,0,1,2.75-1.145,3.881,3.881,0,0,1,2.76,1.145,0.882,0.882,0,0,0,1.25,0,3.9,3.9,0,1,1,5.51,5.528l-5.63,5.648a0.714,0.714,0,0,1-1.01,0l-5.63-5.648A3.881,3.881,0,0,1,1427.68,603.6Zm33.55,15.891-17.38-14.525a5.636,5.636,0,0,0,.16-1.366v-0.167l4.83-1.894a0.887,0.887,0,0,0-.65-1.651l-4.51,1.771a9.64,9.64,0,0,0-17.42-.023l-11.6-4.552v-18.02a0.536,0.536,0,0,1,.54-0.534h26.25l0.04,0.04,0.04-.04h13.27a0.536,0.536,0,0,1,.54.534v18.02l-2.77,1.086a0.889,0.889,0,0,0-.3,1.452,0.875,0.875,0,0,0,.94.2l8.02-3.146v22.816h0Zm-31.96-32.781a1.173,1.173,0,0,0-1.28.255l-1.23,1.23-1.24-1.308a1.171,1.171,0,0,0-2.02.808v5.317a0.885,0.885,0,1,0,1.77,0V589.2l0.63,0.665a1.172,1.172,0,0,0,1.68.022l0.64-.643v3.771a0.885,0.885,0,1,0,1.77,0v-5.218A1.166,1.166,0,0,0,1429.27,586.711Zm16.5,0a1.154,1.154,0,0,0-1.27.255l-1.23,1.23-1.24-1.308a1.171,1.171,0,0,0-2.02.808v5.317a0.885,0.885,0,1,0,1.77,0V589.2l0.63,0.665a1.168,1.168,0,0,0,.83.366h0.02a1.181,1.181,0,0,0,.83-0.344l0.64-.643v3.771a0.88,0.88,0,1,0,1.76,0v-5.218A1.166,1.166,0,0,0,1445.77,586.711Zm-10.77-.147a3.85,3.85,0,1,0,3.24,3.8A3.556,3.556,0,0,0,1435,586.564Zm0,5.829a2.134,2.134,0,1,1,1.47-2.028A1.841,1.841,0,0,1,1435,592.393Z" transform="translate(-1407 -572)"/>
</svg>
