<svg xmlns="http://www.w3.org/2000/svg" width="12" height="16" viewBox="0 0 12 16">
  <defs>
    <style>
      .cls-1 {
        fill: #e4a7ce;
        stroke: #000006;
        stroke-linecap: round;
        stroke-linejoin: round;
        stroke-width: 0;
        fill-rule: evenodd;
      }
    </style>
  </defs>
  <path id="ic_myaccount" class="cls-1" d="M701,146.9C701,146.652,701,146.866,701,146.9Zm-6,2.1c-5.116,0-6-1.806-6-1.806,0-.209,0-0.33,0-0.395a0.791,0.791,0,0,0,.009-0.28c0.068-3.666.582-4.722,4.251-5.394a2.579,2.579,0,0,0,3.479,0c3.71,0.679,4.194,1.752,4.253,5.516a2.451,2.451,0,0,0,.007.261v0.292S700.116,149,695,149Zm0-8.175c-1.754,0-3.177-1.752-3.177-3.912S692.29,133,695,133s3.176,1.752,3.176,3.913S696.754,140.825,695,140.825Zm-6,5.974C689,146.762,689,146.667,689,146.8Z" transform="translate(-689 -133)"/>
</svg>
