<svg xmlns="http://www.w3.org/2000/svg" width="22" height="9.969" viewBox="0 0 22 9.969">
  <defs>
    <style>
      .cls-1 {
        fill: #fff;
        fill-rule: evenodd;
      }
    </style>
  </defs>
  <path id="ic_next_link" class="cls-1" d="M159.983,988.9l4.888-4.623a0.433,0.433,0,0,0,.127-0.313,0.418,0.418,0,0,0-.127-0.3l-4.888-4.558a0.4,0.4,0,0,0-.446-0.065,0.378,0.378,0,0,0-.242.378v2.917H143.409a0.393,0.393,0,0,0-.293.117,0.412,0.412,0,0,0-.114.3v2.5a0.414,0.414,0,0,0,.114.3,0.393,0.393,0,0,0,.293.117h15.886v2.917a0.393,0.393,0,0,0,.242.377A0.4,0.4,0,0,0,159.983,988.9Z" transform="translate(-143 -979.031)"/>
</svg>
