<svg xmlns="http://www.w3.org/2000/svg" width="53" height="53" viewBox="0 0 53 53">
  <metadata><?xpacket begin="﻿" id="W5M0MpCehiHzreSzNTczkc9d"?>
<x:xmpmeta xmlns:x="adobe:ns:meta/" x:xmptk="Adobe XMP Core 5.6-c142 79.160924, 2017/07/13-01:06:39        ">
   <rdf:RDF xmlns:rdf="http://www.w3.org/1999/02/22-rdf-syntax-ns#">
      <rdf:Description rdf:about=""/>
   </rdf:RDF>
</x:xmpmeta>
                                                                                                    
                                                                                                    
                                                                                                    
                                                                                                    
                                                                                                    
                                                                                                    
                                                                                                    
                                                                                                    
                                                                                                    
                                                                                                    
                                                                                                    
                                                                                                    
                                                                                                    
                                                                                                    
                                                                                                    
                                                                                                    
                                                                                                    
                                                                                                    
                                                                                                    
                                                                                                    
                           
<?xpacket end="w"?></metadata>
<defs>
    <style>
      .cls-1 {
        fill: #f3da95;
        fill-rule: evenodd;
      }
    </style>
  </defs>
  <path class="cls-1" d="M1410.79,1637a0.869,0.869,0,0,0-.89.87l-0.18,15.93a0.881,0.881,0,0,0,.87.89h0.01a0.873,0.873,0,0,0,.88-0.87l0.18-15.93A0.881,0.881,0,0,0,1410.79,1637Zm-0.39,35.31a0.881,0.881,0,0,0-.89.87l-0.17,15.93a0.888,0.888,0,0,0,.87.89h0.01a0.879,0.879,0,0,0,.88-0.87l0.18-15.93A0.883,0.883,0,0,0,1410.4,1672.31Zm19.04-27.35a0.872,0.872,0,0,0-1.24-.01l-11.39,11.14a0.884,0.884,0,0,0-.02,1.25,0.93,0.93,0,0,0,.63.26,0.861,0.861,0,0,0,.62-0.25l11.39-11.14A0.884,0.884,0,0,0,1429.44,1644.96Zm-25.24,24.7a0.872,0.872,0,0,0-1.24-.01l-11.39,11.14a0.872,0.872,0,0,0-.01,1.24,0.863,0.863,0,0,0,.63.27,0.855,0.855,0,0,0,.61-0.25l11.39-11.15A0.872,0.872,0,0,0,1404.2,1669.66Zm31.93-6.76-15.93-.18h-0.01a0.879,0.879,0,0,0-.88.87,0.869,0.869,0,0,0,.87.89l15.93,0.18h0.01a0.879,0.879,0,0,0,.88-0.87A0.869,0.869,0,0,0,1436.13,1662.9Zm-35.31-.39-15.93-.17h-0.01a0.879,0.879,0,0,0-.88.87,0.869,0.869,0,0,0,.87.89l15.93,0.17h0.01A0.88,0.88,0,0,0,1400.82,1662.51Zm28.23,18.68-11.14-11.38a0.88,0.88,0,1,0-1.26,1.23l11.14,11.39a0.894,0.894,0,0,0,.63.26,0.877,0.877,0,0,0,.62-0.25A0.893,0.893,0,0,0,1429.05,1681.19Zm-24.7-25.23-11.14-11.39a0.88,0.88,0,0,0-1.26,1.23l11.14,11.39A0.88,0.88,0,0,0,1404.35,1655.96Zm1.76-5.76-1.75-4.36a0.884,0.884,0,0,0-1.64.66l1.76,4.36a0.865,0.865,0,0,0,.81.55,0.96,0.96,0,0,0,.33-0.06A0.885,0.885,0,0,0,1406.11,1650.2Zm12.17,30.3-1.75-4.36a0.892,0.892,0,0,0-1.15-.49,0.877,0.877,0,0,0-.49,1.14l1.75,4.37a0.889,0.889,0,0,0,.82.55,0.96,0.96,0,0,0,.33-0.06A0.888,0.888,0,0,0,1418.28,1680.5Zm-0.1-34.99a0.885,0.885,0,0,0-1.16.47l-1.84,4.32a0.881,0.881,0,0,0,.46,1.16,0.842,0.842,0,0,0,.35.07,0.886,0.886,0,0,0,.81-0.54l1.84-4.32A0.881,0.881,0,0,0,1418.18,1645.51Zm-12.82,30.03a0.889,0.889,0,0,0-1.16.46l-1.84,4.33a0.87,0.87,0,0,0,.46,1.15,0.853,0.853,0,0,0,.35.08,0.9,0.9,0,0,0,.81-0.54l1.84-4.32A0.881,0.881,0,0,0,1405.36,1675.54Zm23.38-19.37a0.888,0.888,0,0,0-1.15-.49l-4.45,1.79a0.881,0.881,0,0,0,.33,1.7,0.96,0.96,0,0,0,.33-0.06l4.45-1.79A0.885,0.885,0,0,0,1428.74,1656.17Zm-30.39,12.21a0.888,0.888,0,0,0-1.15-.49l-4.36,1.75a0.881,0.881,0,0,0,.33,1.7,0.96,0.96,0,0,0,.33-0.06l4.36-1.76A0.877,0.877,0,0,0,1398.35,1668.38Zm29.67,1.64-4.32-1.85a0.885,0.885,0,0,0-1.16.47,0.874,0.874,0,0,0,.47,1.15l4.32,1.85a0.842,0.842,0,0,0,.35.07A0.878,0.878,0,0,0,1428.02,1670.02Zm-30.03-12.82-4.32-1.84a0.873,0.873,0,0,0-1.16.46,0.889,0.889,0,0,0,.47,1.16l4.32,1.84a0.842,0.842,0,0,0,.35.07A0.878,0.878,0,0,0,1397.99,1657.2Zm16.64,6.3,1.84-2.52a0.9,0.9,0,0,0,.05-0.96,0.882,0.882,0,0,0-.86-0.43l-3.1.34-1.25-2.86a0.891,0.891,0,0,0-1.62,0l-1.25,2.86-3.1-.34a0.873,0.873,0,0,0-.86.43,0.9,0.9,0,0,0,.05.96l1.84,2.52-1.84,2.51a0.9,0.9,0,0,0-.05.96,0.864,0.864,0,0,0,.86.44l3.1-.34,1.25,2.85a0.888,0.888,0,0,0,.81.53,0.9,0.9,0,0,0,.81-0.53l1.25-2.85,3.1,0.34a0.873,0.873,0,0,0,.86-0.44,0.9,0.9,0,0,0-.05-0.96Zm-1.81.52,1.05,1.42-1.76-.19a0.888,0.888,0,0,0-.9.52l-0.71,1.62-0.71-1.62a0.879,0.879,0,0,0-.81-0.52h-0.09l-1.76.19,1.05-1.42a0.9,0.9,0,0,0,0-1.04l-1.05-1.43,1.76,0.2a0.888,0.888,0,0,0,.9-0.52l0.71-1.62,0.71,1.62a0.888,0.888,0,0,0,.9.52l1.76-.2-1.05,1.43A0.9,0.9,0,0,0,1412.82,1664.02Zm21.27-10.95a0.88,0.88,0,1,1-.89.88A0.888,0.888,0,0,1,1434.09,1653.07Zm-13.72-14.02a0.885,0.885,0,1,1-.88.89A0.883,0.883,0,0,1,1420.37,1639.05Zm-19.61-.21a0.88,0.88,0,1,1-.88.88A0.881,0.881,0,0,1,1400.76,1638.84Zm-14.02,13.72a0.88,0.88,0,1,1,0,1.76A0.88,0.88,0,1,1,1386.74,1652.56Zm-0.21,19.61a0.88,0.88,0,0,1,0,1.76A0.88,0.88,0,0,1,1386.53,1672.17Zm13.72,14.01a0.88,0.88,0,0,1,0,1.76A0.88,0.88,0,1,1,1400.25,1686.18Zm19.61,0.21a0.885,0.885,0,1,1-.88.88A0.888,0.888,0,0,1,1419.86,1686.39Zm14.01-13.71a0.88,0.88,0,1,1-.88.88A0.875,0.875,0,0,1,1433.87,1672.68Z" transform="translate(-1384 -1637)"/>
</svg>
