<svg xmlns="http://www.w3.org/2000/svg" width="54" height="53" viewBox="0 0 54 53">
  <metadata><?xpacket begin="﻿" id="W5M0MpCehiHzreSzNTczkc9d"?>
<x:xmpmeta xmlns:x="adobe:ns:meta/" x:xmptk="Adobe XMP Core 5.6-c142 79.160924, 2017/07/13-01:06:39        ">
   <rdf:RDF xmlns:rdf="http://www.w3.org/1999/02/22-rdf-syntax-ns#">
      <rdf:Description rdf:about=""/>
   </rdf:RDF>
</x:xmpmeta>
                                                                                                    
                                                                                                    
                                                                                                    
                                                                                                    
                                                                                                    
                                                                                                    
                                                                                                    
                                                                                                    
                                                                                                    
                                                                                                    
                                                                                                    
                                                                                                    
                                                                                                    
                                                                                                    
                                                                                                    
                                                                                                    
                                                                                                    
                                                                                                    
                                                                                                    
                                                                                                    
                           
<?xpacket end="w"?></metadata>
<defs>
    <style>
      .cls-1 {
        fill: #f3da95;
        fill-rule: evenodd;
      }
    </style>
  </defs>
  <path class="cls-1" d="M1133.91,1654.32c-2.09-3.73-4.93-5.79-7.99-5.79a6.243,6.243,0,0,0-.97.08,8.481,8.481,0,0,0-4.71-1.98l-1.87-1.18a8.786,8.786,0,0,1-4.1-7.48,0.962,0.962,0,0,0-.96-0.97h-6.62a0.962,0.962,0,0,0-.96.97,8.786,8.786,0,0,1-4.1,7.48l-1.87,1.18a8.481,8.481,0,0,0-4.71,1.98,6.346,6.346,0,0,0-.97-0.08c-3.06,0-5.9,2.06-7.99,5.79a30.018,30.018,0,0,0,0,26.53c2.09,3.73,4.93,5.79,7.99,5.79a6.331,6.331,0,0,0,.97-0.07,8.3,8.3,0,0,0,5.23,1.99,7.831,7.831,0,0,0,3.44-.82,9.855,9.855,0,0,0,12.56,0,7.831,7.831,0,0,0,3.44.82,8.3,8.3,0,0,0,5.23-1.99,7.77,7.77,0,0,0,.97.07c3.06,0,5.9-2.06,7.99-5.79A30.018,30.018,0,0,0,1133.91,1654.32Zm-26.3-15.38h4.78a10.685,10.685,0,0,0,4.87,8.09,7.535,7.535,0,0,0-.98.41,10.579,10.579,0,0,0-5.32-2.21v-3.13a0.96,0.96,0,1,0-1.92,0v3.13a10.579,10.579,0,0,0-5.32,2.21,7.535,7.535,0,0,0-.98-0.41A10.685,10.685,0,0,0,1107.61,1638.94Zm24.63,40.96c-1.49,2.66-3.36,4.29-5.34,4.7a22.561,22.561,0,0,0,4.07-8.76,0.959,0.959,0,1,0-1.86-.47c-1.69,6.84-5.37,11.26-9.39,11.26a5.567,5.567,0,0,1-1.84-.32,18.813,18.813,0,0,0,2.68-3.61,0.994,0.994,0,0,0,.13-0.49h0a0.962,0.962,0,0,0-1.8-.47,15.57,15.57,0,0,1-3.33,4.1,8.073,8.073,0,0,1-11.12,0,15.455,15.455,0,0,1-3.34-4.11,0.948,0.948,0,0,0-1.31-.35,0.974,0.974,0,0,0-.35,1.32,18.813,18.813,0,0,0,2.68,3.61,5.567,5.567,0,0,1-1.84.32c-4.02,0-7.7-4.42-9.39-11.26a0.959,0.959,0,1,0-1.86.47,22.561,22.561,0,0,0,4.07,8.76c-1.98-.41-3.85-2.04-5.34-4.7a28.1,28.1,0,0,1,0-24.62c1.49-2.66,3.36-4.3,5.34-4.71a22.609,22.609,0,0,0-4.07,8.77,0.96,0.96,0,0,0,.7,1.17,0.908,0.908,0,0,0,.23.03,0.957,0.957,0,0,0,.93-0.74c1.69-6.83,5.37-11.25,9.39-11.25a5.612,5.612,0,0,1,1.84.32,18.734,18.734,0,0,0-2.68,3.6,1.054,1.054,0,0,0-.13.49h0a0.962,0.962,0,0,0,.96.97,0.952,0.952,0,0,0,.84-0.5,15.322,15.322,0,0,1,3.33-4.09,8.046,8.046,0,0,1,11.12,0,15.243,15.243,0,0,1,3.32,4.08,0.961,0.961,0,0,0,1.81-.46,1.054,1.054,0,0,0-.13-0.49,18.734,18.734,0,0,0-2.68-3.6,5.567,5.567,0,0,1,1.84-.32c4.02,0,7.7,4.42,9.39,11.25a0.957,0.957,0,0,0,.93.74,0.908,0.908,0,0,0,.23-0.03,0.964,0.964,0,0,0,.7-1.17,22.609,22.609,0,0,0-4.07-8.77c1.98,0.41,3.85,2.05,5.34,4.71A28.1,28.1,0,0,1,1132.24,1679.9ZM1107,1663.97l-8.51-5.97a0.95,0.95,0,0,0-1.45.47l-2.94,8.33a0.963,0.963,0,0,0,.9,1.29,1.108,1.108,0,0,0,.19-0.02l11.45-2.36a0.95,0.95,0,0,0,.75-0.75A0.974,0.974,0,0,0,1107,1663.97Zm-10.52,1.86,1.95-5.52,5.63,3.96Zm29.42,0.97-2.94-8.33a0.95,0.95,0,0,0-1.45-.47l-8.51,5.97a0.974,0.974,0,0,0-.39.99,0.95,0.95,0,0,0,.75.75l11.45,2.36a1.108,1.108,0,0,0,.19.02A0.963,0.963,0,0,0,1125.9,1666.8Zm-9.96-2.53,5.63-3.96,1.95,5.52Zm9.24,7.07a0.964,0.964,0,0,0-1.02-.41,62.435,62.435,0,0,1-15.83,1.61,0.927,0.927,0,0,0-.69.27,0.984,0.984,0,0,0-.29.7v2.05h-1.54v-2.24a0.969,0.969,0,0,0-.88-0.97,62.977,62.977,0,0,1-9.09-1.42,0.964,0.964,0,0,0-1.02.41,0.981,0.981,0,0,0,.02,1.1c3.86,5.43,9.38,8.54,15.16,8.54a16.6,16.6,0,0,0,3.5-.38,0.966,0.966,0,0,0,.75-0.95v-2.42h1.28v1.36a0.975,0.975,0,0,0,.44.81,0.926,0.926,0,0,0,.91.07,20.806,20.806,0,0,0,8.28-7.03A0.981,0.981,0,0,0,1125.18,1671.34Zm-7.73,5.67v-0.74a0.962,0.962,0,0,0-.96-0.97h-3.2a0.962,0.962,0,0,0-.96.97v2.58a14,14,0,0,1-2.33.19,16.232,16.232,0,0,1-11.93-5.66c1.92,0.36,3.87.64,5.82,0.83v2.31a0.962,0.962,0,0,0,.96.97h3.45a0.962,0.962,0,0,0,.96-0.97v-2.02a64.832,64.832,0,0,0,12.67-1.12A18.423,18.423,0,0,1,1117.45,1677.01Zm-3.29-7.57-3.33-5.81a0.948,0.948,0,0,0-1.66,0l-3.33,5.81a0.986,0.986,0,0,0,0,.97,0.963,0.963,0,0,0,.83.49h6.66a0.975,0.975,0,0,0,.83-0.49A0.986,0.986,0,0,0,1114.16,1669.44Zm-5.82-.48,1.66-2.91,1.66,2.91h-3.32Z" transform="translate(-1083 -1637)"/>
</svg>
