<svg xmlns="http://www.w3.org/2000/svg" width="71" height="41" viewBox="0 0 71 41">
  <metadata><?xpacket begin="﻿" id="W5M0MpCehiHzreSzNTczkc9d"?>
<x:xmpmeta xmlns:x="adobe:ns:meta/" x:xmptk="Adobe XMP Core 5.6-c142 79.160924, 2017/07/13-01:06:39        ">
   <rdf:RDF xmlns:rdf="http://www.w3.org/1999/02/22-rdf-syntax-ns#">
      <rdf:Description rdf:about=""/>
   </rdf:RDF>
</x:xmpmeta>
                                                                                                    
                                                                                                    
                                                                                                    
                                                                                                    
                                                                                                    
                                                                                                    
                                                                                                    
                                                                                                    
                                                                                                    
                                                                                                    
                                                                                                    
                                                                                                    
                                                                                                    
                                                                                                    
                                                                                                    
                                                                                                    
                                                                                                    
                                                                                                    
                                                                                                    
                                                                                                    
                           
<?xpacket end="w"?></metadata>
<defs>
    <style>
      .cls-1 {
        fill: #f4dd9c;
        fill-rule: evenodd;
      }
    </style>
  </defs>
  <path id="Forma_1_копия_10" data-name="Forma 1 копия 10" class="cls-1" d="M475,1497.5a20.59,20.59,0,0,1,20.64-20.5h29.719a20.5,20.5,0,1,1,0,41H495.64a20.217,20.217,0,0,1-3.131-.24,0.226,0.226,0,0,1-.081-0.01A20.576,20.576,0,0,1,475,1497.5Zm37.284-18.86H495.64a18.851,18.851,0,0,0-3.493,37.4l9.87-18.33c0-.01.011-0.02,0.017-0.03Zm-9.5,21.14-8.887,16.5c0.575,0.05,1.157.07,1.746,0.07h16.729Zm11.38-21.14-10.46,19.43,10.577,18.29h11.081a18.86,18.86,0,1,0,0-37.72h-11.2Zm-1.323,18.86a12.6,12.6,0,1,1,12.6,12.52A12.578,12.578,0,0,1,512.838,1497.5Zm23.551,0a10.948,10.948,0,1,0-10.948,10.87A10.917,10.917,0,0,0,536.389,1497.5Zm-19.537-.02a3.553,3.553,0,1,1,3.553,3.53A3.55,3.55,0,0,1,516.852,1497.48Zm5.451,0a1.9,1.9,0,1,0-1.9,1.89A1.889,1.889,0,0,0,522.3,1497.48Zm5.391,7.12a0.834,0.834,0,0,1,.4-0.71,1.467,1.467,0,0,0,.625-1.24,1.413,1.413,0,0,0-.617-1.21,0.825,0.825,0,0,1,.821-1.43,3.065,3.065,0,0,1,1.451,2.64,3.11,3.11,0,0,1-1.441,2.66,0.83,0.83,0,0,1-1.13-.3A0.807,0.807,0,0,1,527.694,1504.6Zm0-10.18a0.806,0.806,0,0,1,.4-0.7,1.506,1.506,0,0,0,.625-1.24,1.42,1.42,0,0,0-.617-1.22,0.82,0.82,0,0,1,.821-1.42,3.051,3.051,0,0,1,1.451,2.64,3.1,3.1,0,0,1-1.441,2.65,0.821,0.821,0,0,1-1.13-.3A0.807,0.807,0,0,1,527.694,1494.42Z" transform="translate(-475 -1477)"/>
</svg>
