<svg xmlns="http://www.w3.org/2000/svg" width="51.656" height="48.406" viewBox="0 0 51.656 48.406">
  <defs>
    <style>
      .cls-1 {
        fill: #dedede;
        fill-rule: evenodd;
        opacity: 0.3;
      }
    </style>
  </defs>
  <path id="ic_Ocassions" class="cls-1" d="M181.132,638.681a0.856,0.856,0,0,1,1.7.206l-1.169,9.563a0.855,0.855,0,0,1-.953.743,0.9,0.9,0,0,1-.119-0.023,0.853,0.853,0,0,1-.628-0.926Zm20.958,8.969-0.821.472a0.85,0.85,0,0,0-.313,1.164,0.859,0.859,0,0,0,1.17.311l0.821-.471,0.474,0.817a0.855,0.855,0,0,0,1.483-.852l-0.474-.817,0.821-.471a0.849,0.849,0,0,0,.313-1.164,0.859,0.859,0,0,0-1.17-.312l-0.821.471-0.474-.817a0.859,0.859,0,0,0-1.17-.312,0.849,0.849,0,0,0-.313,1.164Zm-26.879,4.285a0.858,0.858,0,0,0,.57.5,0.867,0.867,0,0,0,.549-0.036,0.851,0.851,0,0,0,.464-1.113l-4.751-11.431a0.856,0.856,0,0,0-1.583.651ZM163.7,640.626l0.217,0.283a0.855,0.855,0,0,0,1.36-1.036l-0.218-.283a0.857,0.857,0,0,0-1.2-.158A0.848,0.848,0,0,0,163.7,640.626Zm-3.443,10.014a0.852,0.852,0,1,0-.657,1.573l8.16,3.372a0.919,0.919,0,0,0,.108.037,0.852,0.852,0,0,0,.549-1.61Zm5.585-7.233,6.386,8.294a0.855,0.855,0,0,0,1.36-1.036l-6.387-8.293a0.86,0.86,0,0,0-1.2-.159A0.848,0.848,0,0,0,165.844,643.407Zm17.311,6.53a0.754,0.754,0,0,0,.11.038,0.858,0.858,0,0,0,1.01-.5l3.768-8.955a0.856,0.856,0,0,0-1.58-.659l-3.767,8.956A0.85,0.85,0,0,0,183.155,649.937ZM198.883,666.6l-10.943-4.522a0.853,0.853,0,1,0-.657,1.574l10.944,4.521a0.847,0.847,0,0,0,.107.037A0.852,0.852,0,0,0,198.883,666.6Zm1.936-4.345a0.853,0.853,0,0,0-.737-0.957l-8.81-1.163a0.852,0.852,0,0,0-.335,1.667,0.824,0.824,0,0,0,.11.022l8.811,1.163A0.855,0.855,0,0,0,200.819,662.255Zm-2.584-11.578-9.651,3.967a0.853,0.853,0,0,0,.655,1.575l9.651-3.967A0.853,0.853,0,1,0,198.235,650.677ZM197.2,645.71a0.858,0.858,0,0,0,1.2.159l0.1-.075a0.848,0.848,0,0,0,.159-1.194,0.858,0.858,0,0,0-1.2-.159l-0.1.075A0.849,0.849,0,0,0,197.2,645.71Zm1.986-1.514a0.842,0.842,0,0,0,.458.3,0.857,0.857,0,0,0,.742-0.145l0.1-.08a0.849,0.849,0,0,0,.16-1.194,0.861,0.861,0,0,0-1.2-.16l-0.1.08A0.848,0.848,0,0,0,199.186,644.2Zm-13.838,10.557a0.859,0.859,0,0,0,1.2.158l9.808-7.476a0.85,0.85,0,0,0,.159-1.194,0.86,0.86,0,0,0-1.2-.159l-9.808,7.476A0.851,0.851,0,0,0,185.348,654.753ZM162.98,638.286a0.85,0.85,0,0,0,.158-1.195l-0.114-.148a0.86,0.86,0,0,0-1.2-.158,0.85,0.85,0,0,0-.158,1.2l0.114,0.148A0.858,0.858,0,0,0,162.98,638.286ZM182.8,667.22a0.857,0.857,0,0,1-1.5.546l-3.183-3.605-4.873,1.47a0.858,0.858,0,0,1-.922-0.289,0.85,0.85,0,0,1-.063-0.961l2.46-4.125L171.8,656.1a0.848,0.848,0,0,1-.008-0.962,0.858,0.858,0,0,1,.9-0.356l4.7,1.056,3.072-4.039a0.857,0.857,0,0,1,1.535.435l0.447,4.777,4.812,1.66a0.851,0.851,0,0,1,.059,1.588l-4.428,1.9Zm-1.087-6.414,2.908-1.245-3.248-1.121a0.854,0.854,0,0,1-.572-0.726l-0.293-3.138L178.43,657.3a0.858,0.858,0,0,1-.871.317l-3.089-.693,1.966,2.8a0.849,0.849,0,0,1,.034.923l-1.616,2.709,3.289-.993a0.859,0.859,0,0,1,.892.253l2.091,2.368,0.066-3.42A0.853,0.853,0,0,1,181.709,660.806Zm8.528,22.826a0.86,0.86,0,0,0-1.119-.463,0.85,0.85,0,0,0-.464,1.113l0.078,0.188a0.856,0.856,0,0,0,1.583-.651Zm-29.332-35.344,0.821-.471,0.474,0.817a0.855,0.855,0,0,0,1.483-.852l-0.474-.817,0.821-.471a0.849,0.849,0,0,0,.313-1.164,0.859,0.859,0,0,0-1.17-.312l-0.821.471-0.474-.817a0.858,0.858,0,0,0-1.17-.312,0.849,0.849,0,0,0-.313,1.164l0.474,0.817-0.821.471A0.853,0.853,0,1,0,160.905,648.288Zm28.3,32.851-0.078-.187a0.855,0.855,0,0,0-1.582.651l0.077,0.187A0.856,0.856,0,0,0,189.2,681.139Zm9.18-7.754,0.821-.472a0.849,0.849,0,0,0,.313-1.164,0.859,0.859,0,0,0-1.169-.312l-0.822.472-0.474-.818a0.86,0.86,0,0,0-1.17-.312,0.85,0.85,0,0,0-.313,1.164l0.474,0.817-0.821.472a0.85,0.85,0,0,0-.313,1.164,0.86,0.86,0,0,0,1.17.312l0.821-.472,0.474,0.818a0.858,0.858,0,0,0,1.17.311,0.848,0.848,0,0,0,.313-1.163Zm-5.74,2.021-6.123-7.951a0.858,0.858,0,0,0-1.2-.159,0.849,0.849,0,0,0-.159,1.195l6.122,7.951A0.855,0.855,0,0,0,192.642,675.406Zm-7.293-3.535a0.855,0.855,0,0,0-1.582.65l2.676,6.438a0.855,0.855,0,0,0,1.582-.65Zm-15.288-8.69a0.858,0.858,0,0,0-1.119-.462l-9.347,3.842a0.853,0.853,0,0,0,.655,1.575l9.347-3.842A0.85,0.85,0,0,0,170.061,663.181Zm-11.342,8.657a0.857,0.857,0,0,0-1.169-.311l-0.822.471-0.474-.817a0.858,0.858,0,0,0-1.17-.312,0.849,0.849,0,0,0-.313,1.164l0.474,0.817-0.821.471a0.85,0.85,0,0,0-.313,1.164,0.859,0.859,0,0,0,1.17.312l0.821-.471,0.474,0.817a0.859,0.859,0,0,0,1.17.312,0.849,0.849,0,0,0,.313-1.164l-0.474-.817,0.821-.471A0.85,0.85,0,0,0,158.719,671.838Zm12.311-13.516a0.855,0.855,0,0,0-.737-0.956l-11.665-1.54a0.852,0.852,0,0,0-.335,1.668,0.821,0.821,0,0,0,.11.021l11.666,1.54A0.855,0.855,0,0,0,171.03,658.322Zm7.542,12.357a0.856,0.856,0,0,0-1.7-.216l-1.234,9.631a0.853,0.853,0,0,0,.627.931,0.865,0.865,0,0,0,.115.022,0.854,0.854,0,0,0,.957-0.737Zm-3.233-1.526a0.857,0.857,0,0,0-1.123.45l-3.789,8.864a0.85,0.85,0,0,0,.453,1.117,0.825,0.825,0,0,0,.115.04,0.857,0.857,0,0,0,1.008-.49l3.789-8.864A0.85,0.85,0,0,0,175.339,669.153Zm-6.454-1.851a0.86,0.86,0,0,0-1.2-.159l-5.556,4.235a0.851,0.851,0,0,0,.3,1.5,0.86,0.86,0,0,0,.743-0.146l5.556-4.235A0.85,0.85,0,0,0,168.885,667.3Z" transform="translate(-154 -636.594)"/>
</svg>
