<svg xmlns="http://www.w3.org/2000/svg" width="46" height="52" viewBox="0 0 46 52">
  <metadata><?xpacket begin="﻿" id="W5M0MpCehiHzreSzNTczkc9d"?>
<x:xmpmeta xmlns:x="adobe:ns:meta/" x:xmptk="Adobe XMP Core 5.6-c142 79.160924, 2017/07/13-01:06:39        ">
   <rdf:RDF xmlns:rdf="http://www.w3.org/1999/02/22-rdf-syntax-ns#">
      <rdf:Description rdf:about=""/>
   </rdf:RDF>
</x:xmpmeta>
                                                                                                    
                                                                                                    
                                                                                                    
                                                                                                    
                                                                                                    
                                                                                                    
                                                                                                    
                                                                                                    
                                                                                                    
                                                                                                    
                                                                                                    
                                                                                                    
                                                                                                    
                                                                                                    
                                                                                                    
                                                                                                    
                                                                                                    
                                                                                                    
                                                                                                    
                                                                                                    
                           
<?xpacket end="w"?></metadata>
<defs>
    <style>
      .cls-1 {
        fill: #f3da95;
        fill-rule: evenodd;
      }
    </style>
  </defs>
  <path id="Forma_1" data-name="Forma 1" class="cls-1" d="M809.494,1656.76a0.17,0.17,0,0,0,.07.01,0.742,0.742,0,1,0-.748-0.81A0.737,0.737,0,0,0,809.494,1656.76Zm0.025,11.45h0.044a0.744,0.744,0,0,0,.743-0.7,0.746,0.746,0,0,0-1.49-.09A0.751,0.751,0,0,0,809.519,1668.21Zm-3.544-.4h0a0.549,0.549,0,0,0,.125.01,0.745,0.745,0,0,0,.124-1.48,0.761,0.761,0,0,0-.862.61A0.75,0.75,0,0,0,805.975,1667.81Zm25.876,13.22c-3.081-1.67-6.631-4.68-10.831-9.18a33.832,33.832,0,0,0,5.826-2.28,0.729,0.729,0,0,0,.409-0.65,0.741,0.741,0,0,0-.388-0.66c-2.417-1.31-5.254-3.76-8.652-7.47a22.844,22.844,0,0,0,3.408-1.37,0.756,0.756,0,0,0,.409-0.65,0.73,0.73,0,0,0-.388-0.66c-2.229-1.22-4.717-3.77-7.193-6.67l0.854,0.45a0.711,0.711,0,0,0,.348.08h0.01a0.738,0.738,0,0,0,.706-0.98l-0.7-4.02,3.033-2.93a0.736,0.736,0,0,0-.415-1.26l-4.191-.6-1.874-3.77a0.753,0.753,0,0,0-1.341,0l-1.874,3.77-4.191.6a0.736,0.736,0,0,0-.415,1.26l3.033,2.93-0.717,4.14a0.725,0.725,0,0,0,.3.72,0.747,0.747,0,0,0,.787.06l0.854-.45c-2.476,2.9-4.964,5.45-7.193,6.67a0.728,0.728,0,0,0-.388.66,0.755,0.755,0,0,0,.41.65,22.833,22.833,0,0,0,3.407,1.37c-3.4,3.71-6.236,6.16-8.652,7.47a0.741,0.741,0,0,0-.388.66,0.729,0.729,0,0,0,.409.65,33.832,33.832,0,0,0,5.826,2.28c-4.2,4.5-7.75,7.51-10.831,9.18a0.742,0.742,0,0,0-.389.66,0.754,0.754,0,0,0,.409.65,44.562,44.562,0,0,0,17.534,4.73v2.19a0.743,0.743,0,0,0,.748.74h4.486a0.742,0.742,0,0,0,.747-0.74v-2.22a44.773,44.773,0,0,0,17.036-4.7,0.754,0.754,0,0,0,.409-0.65A0.742,0.742,0,0,0,831.851,1681.03Zm-23.087-34.84-2.23-2.16,3.08-.44a0.764,0.764,0,0,0,.564-0.41l1.377-2.77,1.378,2.77a0.763,0.763,0,0,0,.564.41l3.08,0.44-2.23,2.16a0.727,0.727,0,0,0-.214.65l0.526,3.04-2.756-1.43a0.716,0.716,0,0,0-.7,0l-2.756,1.43,0.526-3.04A0.73,0.73,0,0,0,808.764,1646.19Zm2.791,4.11c1.439,1.76,2.781,3.33,4.059,4.68-0.553.11-1.105,0.2-1.652,0.26a0.742,0.742,0,0,0,.085,1.48,0.256,0.256,0,0,0,.086-0.01,23.453,23.453,0,0,0,2.706-.48,23.807,23.807,0,0,0,2.886,2.43,21.263,21.263,0,0,1-3.051,1.03,21,21,0,0,1-7.7.47,19.977,19.977,0,0,1-2.542-.47,21.28,21.28,0,0,1-3.049-1.03C805.862,1656.94,808.5,1654.05,811.555,1650.3Zm-5.043,10.93c0.17,0.04.343,0.07,0.514,0.1,0.187,0.04.373,0.08,0.561,0.11,0.244,0.05.489,0.08,0.733,0.12,0.2,0.03.4,0.06,0.6,0.08,0.219,0.03.438,0.05,0.658,0.07s0.454,0.04.683,0.05c0.148,0.01.3,0.01,0.445,0.02,0.283,0.01.565,0.02,0.848,0.02s0.57-.01.854-0.02c0.147-.01.293-0.01,0.439-0.02q0.345-.015.688-0.06c0.218-.01.435-0.03,0.653-0.06,0.2-.02.4-0.05,0.605-0.08,0.243-.04.486-0.07,0.727-0.11l0.567-.12c0.17-.03.341-0.06,0.51-0.1,1.483,1.65,2.848,3.04,4.128,4.24-0.419.12-.84,0.23-1.261,0.34a31.609,31.609,0,0,1-5.473.88,0.747,0.747,0,0,0-.69.8,0.739,0.739,0,0,0,.745.68H814.1a32.617,32.617,0,0,0,5.73-.93c0.726-.18,1.455-0.39,2.174-0.62a27.434,27.434,0,0,0,2.931,2.22,32.93,32.93,0,0,1-5.471,1.91c-0.323.08-.647,0.15-0.973,0.23a33.006,33.006,0,0,1-10.923.5,34.8,34.8,0,0,1-3.925-.73h0a32.888,32.888,0,0,1-5.47-1.91A44.317,44.317,0,0,0,806.512,1661.23Zm6.788,27.29h-2.991v-1.38c0.344,0.01.69,0.01,1.036,0.01,0.084,0,.167.01,0.251,0.01h0.11c0.136,0,.273-0.01.41-0.01,0.327,0,.654-0.01.985-0.02h0.2v1.39h0Zm0.705-2.91c-0.745.04-1.488,0.07-2.224,0.07-0.394,0-.787-0.01-1.177-0.01-0.337-.01-0.672-0.02-1-0.04h0a43.026,43.026,0,0,1-16.4-4.01,54.292,54.292,0,0,0,10.522-9.33c0.1,0.02.2,0.04,0.3,0.07,0.158,0.03.317,0.07,0.476,0.1s0.333,0.07.5,0.1,0.346,0.07.519,0.1c0.142,0.03.285,0.05,0.427,0.08l0.606,0.09c0.1,0.02.2,0.03,0.3,0.04,0.244,0.04.489,0.07,0.733,0.1,0.041,0,.082.01,0.123,0.01a32.355,32.355,0,0,0,7.7,0c0.041,0,.082-0.01.124-0.01,0.244-.03.487-0.06,0.731-0.1,0.1-.01.205-0.02,0.308-0.04l0.6-.09c0.144-.03.289-0.05,0.433-0.08,0.171-.03.34-0.06,0.51-0.1s0.342-.06.512-0.1c0.154-.03.308-0.07,0.461-0.1,0.1-.02.207-0.05,0.31-0.07,0.758,0.82,1.5,1.6,2.216,2.33a43.371,43.371,0,0,1-7.607,1.11,0.753,0.753,0,0,0-.7.79,0.741,0.741,0,0,0,.746.69h0.043a45.357,45.357,0,0,0,8.75-1.37c0.96,0.94,1.887,1.79,2.782,2.56a43.308,43.308,0,0,1-11.617,2.27,0.75,0.75,0,0,0-.7.78,0.742,0.742,0,0,0,.746.7h0.043a44.818,44.818,0,0,0,12.863-2.65,31.6,31.6,0,0,0,2.964,2.12A43.427,43.427,0,0,1,814.005,1685.61Zm-14.47-6.56a0.74,0.74,0,1,0-.418,1.42,0.754,0.754,0,0,0,.209.03,0.745,0.745,0,0,0,.718-0.54A0.734,0.734,0,0,0,799.535,1679.05Zm3.325,0.82a0.735,0.735,0,1,0-.3,1.44,0.381,0.381,0,0,0,.149.02,0.743,0.743,0,0,0,.733-0.59A0.726,0.726,0,0,0,802.86,1679.87Zm3.384,0.54a0.746,0.746,0,0,0-.184,1.48h0.094A0.742,0.742,0,0,0,806.244,1680.41Zm-2.656-5.34a0.738,0.738,0,1,0-.275,1.45,0.629,0.629,0,0,0,.135.02,0.761,0.761,0,0,0,.737-0.61A0.738,0.738,0,0,0,803.588,1675.07Zm3.394,0.49a0.744,0.744,0,0,0-.828.66,0.753,0.753,0,0,0,.668.82h0.08a0.753,0.753,0,0,0,.742-0.67A0.739,0.739,0,0,0,806.982,1675.56Zm-10.736-12.87a0.765,0.765,0,0,0,.478-0.16,0.744,0.744,0,1,0-.956-1.14A0.733,0.733,0,0,0,796.246,1662.69Zm26.1-10.45a0.737,0.737,0,0,0,.1,1.04,0.778,0.778,0,0,0,.474.17,0.76,0.76,0,0,0,.583-0.28,0.733,0.733,0,0,0-.11-1.04A0.757,0.757,0,0,0,822.348,1652.24Zm3.563,4.09a0.736,0.736,0,0,0,.658.39,0.713,0.713,0,0,0,.349-0.08,0.742,0.742,0,1,0-.7-1.31A0.73,0.73,0,0,0,825.911,1656.33Zm-7.062-6.63a0.739,0.739,0,0,0,.563.25,0.743,0.743,0,0,0,.558-1.23,0.751,0.751,0,0,0-1.056-.07A0.741,0.741,0,0,0,818.849,1649.7Zm14.683,25.41a0.76,0.76,0,0,0-1.037.21,0.741,0.741,0,0,0,.21,1.03,0.759,0.759,0,0,0,1.036-.21A0.744,0.744,0,0,0,833.532,1675.11Zm-41.3-9.51a0.778,0.778,0,0,0,.548-0.23,0.736,0.736,0,0,0-.035-1.05,0.75,0.75,0,0,0-1.056.04,0.732,0.732,0,0,0,.034,1.04A0.723,0.723,0,0,0,792.234,1665.6Zm-3.843,10.24,0-.01a0.74,0.74,0,0,0,.364,1.39,0.782,0.782,0,0,0,.359-0.09,0.733,0.733,0,0,0,.294-1A0.744,0.744,0,0,0,788.391,1675.84Zm3.917-2.79a0.731,0.731,0,0,0-.084,1.04,0.758,0.758,0,0,0,.568.26,0.743,0.743,0,0,0,.568-1.22A0.747,0.747,0,0,0,792.308,1673.05Zm39.365-4.98a0.749,0.749,0,0,0,.738.62,0.479,0.479,0,0,0,.119-0.01,0.735,0.735,0,0,0,.618-0.85A0.747,0.747,0,0,0,831.673,1668.07Zm-35.651-10a0.75,0.75,0,0,0,.722-0.56,0.747,0.747,0,1,0-.907.53A0.621,0.621,0,0,0,796.022,1658.07Zm34.709,15.1a0.724,0.724,0,0,0,.463.16,0.738,0.738,0,0,0,.464-1.32,0.759,0.759,0,0,0-1.052.12A0.737,0.737,0,0,0,830.731,1673.17Zm-0.568-9.85a0.753,0.753,0,0,0-1.032.21,0.743,0.743,0,0,0,.22,1.03,0.751,0.751,0,0,0,1.036-.22A0.731,0.731,0,0,0,830.163,1663.32Zm-31.171-9.04a0.7,0.7,0,0,0,.364-0.1,0.737,0.737,0,0,0,.284-1.01,0.755,0.755,0,0,0-1.017-.28,0.737,0.737,0,0,0-.284,1.01A0.75,0.75,0,0,0,798.992,1654.28Zm27.218,6.23a0.76,0.76,0,0,0,.7,1,0.754,0.754,0,0,0,.708-0.49A0.748,0.748,0,0,0,826.21,1660.51Zm-34.824,8.82a0.747,0.747,0,1,0-.742.8h0.06A0.746,0.746,0,0,0,791.386,1669.33Zm11.329-18.3a0.73,0.73,0,0,0,.548-0.24,0.74,0.74,0,0,0-.034-1.05,0.751,0.751,0,0,0-1.057.04,0.74,0.74,0,0,0,.035,1.05A0.767,0.767,0,0,0,802.715,1651.03Zm22.972-3.09a0.759,0.759,0,0,0,.528-0.21,0.745,0.745,0,1,0-1.056-1.05,0.735,0.735,0,0,0,0,1.05A0.752,0.752,0,0,0,825.687,1647.94Zm-21.626-7.32a0.751,0.751,0,0,0,.583-1.21,0.756,0.756,0,0,0-1.051-.11,0.732,0.732,0,0,0-.115,1.04A0.754,0.754,0,0,0,804.061,1640.62Zm25,9.09a0.739,0.739,0,0,0,.019,1.05,0.745,0.745,0,0,0,1.057-.02,0.736,0.736,0,0,0-.02-1.05A0.759,0.759,0,0,0,829.062,1649.71Zm3.309,5.32a0.886,0.886,0,0,0,.279-0.05,0.744,0.744,0,1,0-.972-0.41A0.762,0.762,0,0,0,832.371,1655.03Zm-9.993-10.77a0.752,0.752,0,0,0,.578-1.22,0.764,0.764,0,0,0-1.057-.1,0.741,0.741,0,0,0-.094,1.05A0.761,0.761,0,0,0,822.378,1644.26Zm-21.656.01a0.747,0.747,0,0,0,.578-0.27,0.743,0.743,0,1,0-1.057.1A0.779,0.779,0,0,0,800.722,1644.27Zm-3.838,3.47a0.77,0.77,0,0,0,.528.21,0.752,0.752,0,0,0,.528-0.21,0.735,0.735,0,0,0,0-1.05A0.745,0.745,0,0,0,796.884,1647.74Zm-6.429,7.25a0.68,0.68,0,0,0,.279.06,0.748,0.748,0,0,0,.692-0.47,0.735,0.735,0,0,0-.413-0.96,0.75,0.75,0,0,0-.972.41A0.732,0.732,0,0,0,790.455,1654.99Zm0.019,3.72a0.754,0.754,0,0,0-1.041-.2,0.737,0.737,0,0,0-.195,1.03,0.756,0.756,0,0,0,.618.33,0.726,0.726,0,0,0,.419-0.13A0.742,0.742,0,0,0,790.474,1658.71Zm42.769-.34a0.745,0.745,0,1,0,.747.75A0.751,0.751,0,0,0,833.243,1658.37Zm-40.282-7.62a0.725,0.725,0,0,0,.539.23,0.739,0.739,0,0,0,.518-0.21,0.728,0.728,0,0,0,.02-1.04,0.751,0.751,0,0,0-1.057-.02A0.728,0.728,0,0,0,792.961,1650.75Zm18.594-5.86a0.745,0.745,0,1,1-.747.75A0.752,0.752,0,0,1,811.555,1644.89Z" transform="translate(-788 -1638)"/>
</svg>
