<svg xmlns="http://www.w3.org/2000/svg" width="55" height="40" viewBox="0 0 55 40">
  <metadata><?xpacket begin="﻿" id="W5M0MpCehiHzreSzNTczkc9d"?>
<x:xmpmeta xmlns:x="adobe:ns:meta/" x:xmptk="Adobe XMP Core 5.6-c142 79.160924, 2017/07/13-01:06:39        ">
   <rdf:RDF xmlns:rdf="http://www.w3.org/1999/02/22-rdf-syntax-ns#">
      <rdf:Description rdf:about=""/>
   </rdf:RDF>
</x:xmpmeta>
                                                                                                    
                                                                                                    
                                                                                                    
                                                                                                    
                                                                                                    
                                                                                                    
                                                                                                    
                                                                                                    
                                                                                                    
                                                                                                    
                                                                                                    
                                                                                                    
                                                                                                    
                                                                                                    
                                                                                                    
                                                                                                    
                                                                                                    
                                                                                                    
                                                                                                    
                                                                                                    
                           
<?xpacket end="w"?></metadata>
<defs>
    <style>
      .cls-1 {
        fill: #f3da95;
        fill-rule: evenodd;
      }
    </style>
  </defs>
  <path id="Forma_1" data-name="Forma 1" class="cls-1" d="M835.208,1480.64H834.2v-1.97a1.848,1.848,0,0,0-1.842-1.85h-5.7a1.848,1.848,0,0,0-1.841,1.85v1.97h-4.4l-0.476-3.05c0-.01,0-0.01,0-0.01h0c0-.01,0-0.02,0-0.03-0.007-.03-0.016-0.07-0.028-0.11a0.159,0.159,0,0,0-.007-0.02c0-.01-0.008-0.02-0.012-0.03s-0.013-.03-0.02-0.05-0.009-.02-0.014-0.03a0.28,0.28,0,0,1-.026-0.05c0-.01-0.01-0.01-0.016-0.02s-0.02-.03-0.032-0.05a0.07,0.07,0,0,0-.008-0.01l-2.851-3.82a0.877,0.877,0,0,0-.712-0.36H804.8a0.878,0.878,0,0,0-.713.36l-2.851,3.82s0,0.01-.008.01c-0.011.02-.022,0.03-0.032,0.05a0.034,0.034,0,0,1-.016.02,0.287,0.287,0,0,1-.025.05l-0.015.03c-0.007.02-.013,0.03-0.019,0.05l-0.013.03c0,0.01,0,.01-0.006.02-0.012.04-.021,0.08-0.028,0.11,0,0.01,0,.02,0,0.03h0a0.016,0.016,0,0,0,0,.01l-0.477,3.05h-1.551v-1.97a1.848,1.848,0,0,0-1.842-1.85h-3.8a1.848,1.848,0,0,0-1.841,1.85v1.97h-1.069v-1.01a1.848,1.848,0,0,0-1.842-1.85h-1.9a1.848,1.848,0,0,0-1.842,1.85v1.16a2.8,2.8,0,0,0-1.9,2.66v26.74a2.8,2.8,0,0,0,2.791,2.81h49.417a2.8,2.8,0,0,0,2.792-2.81v-26.74A2.8,2.8,0,0,0,835.208,1480.64Zm-50.426,11.34H791.7a2.786,2.786,0,0,0,5.29,0h1.829l-0.2,1.27a23.144,23.144,0,0,0,0,7.14l1.092,7h-14.93v-15.41Zm8.553-.89a1.01,1.01,0,1,1,1.009,1.01A1.017,1.017,0,0,1,793.335,1491.09Zm9.374-12.48h15.582l1.671,10.71a12,12,0,0,0-18.925,0Zm-2.485,18.21a10.276,10.276,0,1,1,10.276,10.33A10.312,10.312,0,0,1,800.224,1496.82Zm22.156,3.57a23.144,23.144,0,0,0,0-7.14l-0.2-1.27h14.036v15.41H821.287Zm4.216-21.72a0.062,0.062,0,0,1,.059-0.06h5.7a0.062,0.062,0,0,1,.06.06v1.97H826.6v-1.97Zm8.612,3.76a1.018,1.018,0,0,1,1.01,1.02v6.74H821.9l-1.212-7.76h14.517Zm-29.965-7.64h10.513l1.515,2.03H803.729Zm-11.908,3.88a0.061,0.061,0,0,1,.059-0.06h3.8a0.062,0.062,0,0,1,.06.06v1.97h-3.92v-1.97Zm-6.593.9h1.9a0.056,0.056,0,0,1,.06.06v1.01h-2.02v-1.01A0.056,0.056,0,0,1,786.742,1479.57Zm-0.951,2.86h14.518l-1.212,7.76h-2.108a2.786,2.786,0,0,0-5.29,0h-6.917v-6.74A1.017,1.017,0,0,1,785.791,1482.43Zm-1.009,27.76v-1.01h15.21l0.1,0.64a3.777,3.777,0,0,0,.5,1.39H785.791A1.017,1.017,0,0,1,784.782,1510.19Zm20.016,1.02h-1.01a1.954,1.954,0,0,1-1.936-1.67l-0.815-5.22a12,12,0,0,0,18.925,0l-0.815,5.22a1.953,1.953,0,0,1-1.936,1.67H804.8Zm30.41,0H820.4a3.759,3.759,0,0,0,.5-1.39l0.1-.64h15.21v1.01A1.018,1.018,0,0,1,835.208,1511.21Zm-24.708-5.85a8.54,8.54,0,1,0-8.494-8.54A8.526,8.526,0,0,0,810.5,1505.36Zm0-15.29a6.75,6.75,0,1,1-6.712,6.75A6.739,6.739,0,0,1,810.5,1490.07Zm0,10.51a3.76,3.76,0,1,0-3.742-3.76A3.758,3.758,0,0,0,810.5,1500.58Zm0-5.73a1.97,1.97,0,1,1-1.96,1.97A1.965,1.965,0,0,1,810.5,1494.85Z" transform="translate(-783 -1473)"/>
</svg>
