<svg xmlns="http://www.w3.org/2000/svg" width="58" height="55" viewBox="0 0 58 55">
  <metadata><?xpacket begin="﻿" id="W5M0MpCehiHzreSzNTczkc9d"?>
<x:xmpmeta xmlns:x="adobe:ns:meta/" x:xmptk="Adobe XMP Core 5.6-c142 79.160924, 2017/07/13-01:06:39        ">
   <rdf:RDF xmlns:rdf="http://www.w3.org/1999/02/22-rdf-syntax-ns#">
      <rdf:Description rdf:about=""/>
   </rdf:RDF>
</x:xmpmeta>
                                                                                                    
                                                                                                    
                                                                                                    
                                                                                                    
                                                                                                    
                                                                                                    
                                                                                                    
                                                                                                    
                                                                                                    
                                                                                                    
                                                                                                    
                                                                                                    
                                                                                                    
                                                                                                    
                                                                                                    
                                                                                                    
                                                                                                    
                                                                                                    
                                                                                                    
                                                                                                    
                           
<?xpacket end="w"?></metadata>
<defs>
    <style>
      .cls-1 {
        fill: #f3da95;
        fill-rule: evenodd;
      }
    </style>
  </defs>
  <path id="Forma_1" data-name="Forma 1" class="cls-1" d="M1087.78,1497.19a1,1,0,0,0,.99-1.01v-5.13a6.083,6.083,0,0,1,.42.5,3.373,3.373,0,0,0,5.88,0,1.512,1.512,0,0,1,2.83,0,3.373,3.373,0,0,0,5.88,0,1.512,1.512,0,0,1,2.83,0,3.373,3.373,0,0,0,5.88,0,1.512,1.512,0,0,1,2.83,0,3.373,3.373,0,0,0,5.88,0,1.5,1.5,0,0,1,2.82,0,3.373,3.373,0,0,0,5.88,0c0.16-.2.3-0.36,0.43-0.5v3.71a0.99,0.99,0,1,0,1.98,0v-7.78a3.949,3.949,0,0,0-3.89-3.99h-6.39v-7.91a1,1,0,0,0-.99-1.01h-3.36a1,1,0,0,0-.99,1.01v7.91h-5.05v-7.91a1,1,0,0,0-.99-1.01h-3.36a1,1,0,0,0-.99,1.01v7.91h-5.05v-7.91a1,1,0,0,0-.99-1.01h-3.36a1,1,0,0,0-.99,1.01v7.91h-5.23a3.942,3.942,0,0,0-3.89,3.99v9.2A1,1,0,0,0,1087.78,1497.19Zm30.89-21.09h1.38v6.89h-1.38v-6.89Zm-10.39,0h1.38v6.89h-1.38v-6.89Zm-10.39,0h1.38v6.89h-1.38v-6.89Zm-7.21,8.92h37.74a1.94,1.94,0,0,1,1.91,1.96v1.71a4.3,4.3,0,0,0-1.95,1.57,1.512,1.512,0,0,1-2.83,0,3.373,3.373,0,0,0-5.88,0,1.512,1.512,0,0,1-2.83,0,3.373,3.373,0,0,0-5.88,0,1.512,1.512,0,0,1-2.83,0,3.373,3.373,0,0,0-5.88,0,1.5,1.5,0,0,1-2.82,0,3.373,3.373,0,0,0-5.88,0,1.512,1.512,0,0,1-2.83,0,4.3,4.3,0,0,0-1.95-1.57v-1.71A1.94,1.94,0,0,1,1090.68,1485.02Zm18.89,19.88h-6.14a1.015,1.015,0,0,0,0,2.03h6.14A1.016,1.016,0,0,0,1109.57,1504.9Zm-2.91-32.22a3.213,3.213,0,0,0,4.62,0,3.412,3.412,0,0,0,0-4.73l-1.61-1.65a0.976,0.976,0,0,0-.7-0.3,0.994,0.994,0,0,0-.7.3l-1.61,1.65a3.412,3.412,0,0,0,0,4.73h0Zm1.4-3.3,0.91-.93,0.91,0.93a1.353,1.353,0,0,1,0,1.87,1.274,1.274,0,0,1-1.82,0h0A1.353,1.353,0,0,1,1108.06,1469.38Zm-11.79,3.3a3.213,3.213,0,0,0,4.62,0,3.412,3.412,0,0,0,0-4.73l-1.61-1.65a0.976,0.976,0,0,0-.7-0.3,0.994,0.994,0,0,0-.7.3l-1.61,1.65a3.412,3.412,0,0,0,0,4.73h0Zm1.4-3.3,0.91-.93,0.91,0.93a1.353,1.353,0,0,1,0,1.87,1.274,1.274,0,0,1-1.82,0h0A1.353,1.353,0,0,1,1097.67,1469.38Zm19.38,3.3a3.213,3.213,0,0,0,4.62,0,3.412,3.412,0,0,0,0-4.73l-1.61-1.65a0.976,0.976,0,0,0-.7-0.3,0.994,0.994,0,0,0-.7.3l-1.61,1.65a3.412,3.412,0,0,0,0,4.73h0Zm1.4-3.3,0.91-.93,0.91,0.93a1.353,1.353,0,0,1,0,1.87,1.274,1.274,0,0,1-1.82,0h0A1.353,1.353,0,0,1,1118.45,1469.38Zm-28.28,46.54h-7.2v-10.34h15.83v0.75a0.99,0.99,0,1,0,1.98,0v-7.24a1,1,0,0,0-.99-1.02h-17.81a1.012,1.012,0,0,0-.99,1.02v17.85a1,1,0,0,0,.99,1.01h8.19A1.015,1.015,0,0,0,1090.17,1515.92Zm8.63-15.82v3.45h-15.83v-3.45h15.83Zm39.21-3.19h-25.42a1,1,0,0,0-.99,1.01v13.54a1,1,0,0,0,.99,1.01h25.42a1,1,0,0,0,.99-1.01v-13.54A1,1,0,0,0,1138.01,1496.91Zm-0.99,5.22h-10.73v-3.19h10.73v3.19h0Zm-12.71-3.19v3.19h-10.73v-3.19h10.73Zm-10.73,5.22h10.73v6.28h-10.73v-6.28Zm12.71,6.28v-6.28h10.73v6.28h-10.73Zm-18.39-1.53h-14.2a1,1,0,0,0-.99,1.02v10.05a1,1,0,0,0,.99,1.01h14.2a1,1,0,0,0,.99-1.01v-10.05A1.012,1.012,0,0,0,1107.9,1508.91Zm-0.99,5.03h-5.12v-3h5.12v3Zm-7.1-3v3h-5.12v-3h5.12Zm-5.12,5.03h5.12v2.99h-5.12v-2.99Zm7.1,2.99v-2.99h5.12v2.99h-5.12Z" transform="translate(-1081 -1466)"/>
</svg>
