<svg xmlns="http://www.w3.org/2000/svg" width="40" height="37" viewBox="0 0 40 37">
  <metadata><?xpacket begin="﻿" id="W5M0MpCehiHzreSzNTczkc9d"?>
<x:xmpmeta xmlns:x="adobe:ns:meta/" x:xmptk="Adobe XMP Core 5.6-c142 79.160924, 2017/07/13-01:06:39        ">
   <rdf:RDF xmlns:rdf="http://www.w3.org/1999/02/22-rdf-syntax-ns#">
      <rdf:Description rdf:about=""/>
   </rdf:RDF>
</x:xmpmeta>
                                                                                                    
                                                                                                    
                                                                                                    
                                                                                                    
                                                                                                    
                                                                                                    
                                                                                                    
                                                                                                    
                                                                                                    
                                                                                                    
                                                                                                    
                                                                                                    
                                                                                                    
                                                                                                    
                                                                                                    
                                                                                                    
                                                                                                    
                                                                                                    
                                                                                                    
                                                                                                    
                           
<?xpacket end="w"?></metadata>
<defs>
    <style>
      .cls-1 {
        fill: #fff;
        fill-rule: evenodd;
      }
    </style>
  </defs>
  <path class="cls-1" d="M849.969,5154.98a0.592,0.592,0,0,0-.037-0.2,1,1,0,0,0-.4-0.56l-5.726-3.94v-4.23a1.015,1.015,0,0,0-1.024-1.01h-6.587l-5.605-3.86a1.036,1.036,0,0,0-1.167,0l-5.641,3.86h-6.558a1.016,1.016,0,0,0-1.025,1.01v4.18l-5.753,3.93a1.029,1.029,0,0,0-.442.82c0,0.01,0,.02,0,0.02l0.03,21.99a1.014,1.014,0,0,0,.3.71,1.034,1.034,0,0,0,.724.3h0l37.92-.05a1.022,1.022,0,0,0,1.023-1.02Zm-6.166-2.23,3.273,2.25-3.273,2.25v-4.5Zm-13.8-9.5,2.6,1.79h-5.22Zm-11.756,3.82h23.509v11.59l-7.893,5.44-3.218-2.48a0.013,0.013,0,0,1-.014-0.01,1.054,1.054,0,0,0-1.242.01l-3.241,2.49-7.9-5.4v-11.64Zm-2.049,5.62v4.62l-3.371-2.31Zm-4.145,4.25,12.4,8.48-12.371,9.5Zm2,19.03,15.962-12.26,15.9,12.21Zm21.5-10.57,12.365-8.51,0.025,18.02Zm1.377-14.28h-13.87a1.015,1.015,0,1,0,0,2.03h13.87A1.015,1.015,0,1,0,836.935,5151.12Zm0,5.28h-13.87a1.015,1.015,0,1,0,0,2.03h13.87A1.015,1.015,0,1,0,836.935,5156.4Z" transform="translate(-810 -5141)"/>
</svg>
