<svg xmlns="http://www.w3.org/2000/svg" width="45" height="45.03" viewBox="0 0 45 45.03">
  <metadata><?xpacket begin="﻿" id="W5M0MpCehiHzreSzNTczkc9d"?>
<x:xmpmeta xmlns:x="adobe:ns:meta/" x:xmptk="Adobe XMP Core 5.6-c142 79.160924, 2017/07/13-01:06:39        ">
   <rdf:RDF xmlns:rdf="http://www.w3.org/1999/02/22-rdf-syntax-ns#">
      <rdf:Description rdf:about=""/>
   </rdf:RDF>
</x:xmpmeta>
                                                                                                    
                                                                                                    
                                                                                                    
                                                                                                    
                                                                                                    
                                                                                                    
                                                                                                    
                                                                                                    
                                                                                                    
                                                                                                    
                                                                                                    
                                                                                                    
                                                                                                    
                                                                                                    
                                                                                                    
                                                                                                    
                                                                                                    
                                                                                                    
                                                                                                    
                                                                                                    
                           
<?xpacket end="w"?></metadata>
<defs>
    <style>
      .cls-1 {
        fill: #f5dfa2;
        fill-rule: evenodd;
      }
    </style>
  </defs>
  <path id="Forma_1" data-name="Forma 1" class="cls-1" d="M530.815,1644.6c-0.208-.25-0.428-0.5-0.661-0.73s-0.475-.46-0.724-0.67a9.3,9.3,0,0,0-8.872-1.79,10.271,10.271,0,0,0-6.857,6.93,32.713,32.713,0,0,1-1.266,3.54c-6.053-5.13-13.7-9.71-16.626-6.74-1.551,1.57-1.139,4.68,1.195,8.99,0.244,0.45.509,0.91,0.788,1.38a15.346,15.346,0,0,0-5.232,3.46,16.016,16.016,0,0,0,0,22.4,15.49,15.49,0,0,0,22.091,0,15.678,15.678,0,0,0,3.414-5.31c0.458,0.28.911,0.55,1.355,0.8a14.044,14.044,0,0,0,6.334,2.15,3.4,3.4,0,0,0,2.541-.94c2.822-2.86-1.179-10.07-6.113-16.2a29.252,29.252,0,0,1,3.562-1.32,10.262,10.262,0,0,0,6.832-6.95A9.639,9.639,0,0,0,530.815,1644.6Zm-22.526,23.69c0.057,0.05.114,0.11,0.172,0.17s0.138,0.12.206,0.19c0.019,0.02.039,0.03,0.058,0.05,0.349,0.33.7,0.66,1.049,0.98,0.107,0.1.213,0.2,0.32,0.29l0.026,0.03,0.113,0.09c0.416,0.38.832,0.74,1.249,1.1,0.072,0.06.145,0.12,0.216,0.19,0.46,0.39.918,0.76,1.376,1.13l0.309,0.24a10.183,10.183,0,0,1-2.632,4.66,10.014,10.014,0,0,1-14.295,0,10.359,10.359,0,0,1,0-14.49,10.1,10.1,0,0,1,4.6-2.67c0.08,0.11.162,0.21,0.244,0.32,0.361,0.46.731,0.92,1.115,1.39,0.06,0.07.124,0.15,0.184,0.22,0.351,0.42.711,0.84,1.079,1.27a1.084,1.084,0,0,1,.1.11l0.022,0.03c0.1,0.11.2,0.21,0.292,0.32,0.315,0.36.636,0.71,0.962,1.07a0.243,0.243,0,0,1,.053.05c0.064,0.07.125,0.14,0.189,0.21s0.112,0.12.167,0.18c0.456,0.48.919,0.97,1.394,1.45S507.808,1667.83,508.289,1668.29Zm5.062,11.76a13.661,13.661,0,0,1-19.491,0,14.125,14.125,0,0,1,0-19.76,13.509,13.509,0,0,1,4.928-3.2c0.12,0.18.25,0.37,0.375,0.55,0.194,0.28.39,0.57,0.594,0.86,0.041,0.06.079,0.11,0.12,0.17a11.878,11.878,0,0,0-4.718,2.93,12.248,12.248,0,0,0,0,17.13,11.846,11.846,0,0,0,16.892,0,12.122,12.122,0,0,0,2.894-4.78l0.171,0.12c0.284,0.21.565,0.4,0.847,0.6,0.181,0.13.364,0.26,0.543,0.38A13.824,13.824,0,0,1,513.351,1680.05Zm13.644-3.3c-0.675.69-2.786,0.65-6.692-1.52-0.806-.45-1.643-0.98-2.5-1.54-0.243-.17-0.486-0.33-0.731-0.5-0.2-.14-0.4-0.29-0.607-0.43-0.253-.18-0.5-0.37-0.761-0.56s-0.507-.38-0.762-0.58l-0.114-.09c-0.451-.35-0.9-0.72-1.354-1.09l-0.334-.27c-0.43-.36-0.86-0.74-1.289-1.12-0.1-.09-0.205-0.17-0.306-0.27l-0.238-.21c-0.371-.33-0.74-0.68-1.109-1.02-0.057-.06-0.114-0.11-0.171-0.16-0.12-.11-0.239-0.23-0.359-0.34-0.509-.49-1.016-0.98-1.52-1.49s-0.993-1.03-1.474-1.55c-0.113-.12-0.224-0.24-0.335-0.36-0.053-.06-0.1-0.12-0.157-0.17-0.342-.38-0.679-0.75-1.008-1.13l-0.212-.24c-0.09-.1-0.176-0.21-0.266-0.31-0.373-.44-0.741-0.87-1.1-1.31-0.093-.11-0.18-0.22-0.272-0.33-0.367-.46-0.727-0.92-1.074-1.38a1.056,1.056,0,0,0-.087-0.11c-0.195-.26-0.392-0.52-0.578-0.78s-0.366-.51-0.545-0.77c-0.144-.2-0.289-0.41-0.426-0.61-0.169-.25-0.33-0.5-0.49-0.74-0.562-.87-1.077-1.72-1.52-2.53-2.141-3.96-2.182-6.1-1.507-6.79a1.76,1.76,0,0,1,1.275-.41c2.412,0,7.316,2.47,13.224,7.55-0.092.17-.182,0.36-0.276,0.52-0.008.01-.017,0.03-0.025,0.04q-0.322.555-.658,1.02l-0.022.03a10.757,10.757,0,0,1-.679.85l-0.029.03a6.407,6.407,0,0,1-.691.66,0.162,0.162,0,0,0-.045.04,4.7,4.7,0,0,1-.708.48l-1.154.63,0.978,0.89c1.052,0.95,2.081,1.93,3.057,2.92,1.388,1.41,2.739,2.9,4.013,4.42l0.9,1.07h0l0.625-1.25a4.455,4.455,0,0,1,.463-0.73c0.011-.02.02-0.03,0.031-0.05a6.276,6.276,0,0,1,.645-0.71l0.033-.03a8.968,8.968,0,0,1,.829-0.7l0.035-.03c0.307-.23.642-0.45,1-0.67l0.046-.03c0.16-.1.345-0.19,0.515-0.29C526.268,1669.79,528.349,1675.38,527,1676.75Zm3.82-23.69a8.413,8.413,0,0,1-5.6,5.7,31.941,31.941,0,0,0-4.253,1.62l-0.016-.02-0.645.33c-0.039.02-.07,0.04-0.108,0.06-0.209.11-.409,0.23-0.614,0.34a14.077,14.077,0,0,0-2.617,1.84c-0.05.05-.107,0.09-0.155,0.13a9.119,9.119,0,0,0-.839.91c-0.426-.49-0.864-0.97-1.3-1.46-0.659-.72-1.327-1.43-2.008-2.12-0.73-.74-1.488-1.48-2.262-2.2a8.479,8.479,0,0,0,.886-0.86,2.319,2.319,0,0,0,.152-0.18,14.61,14.61,0,0,0,1.721-2.54c0.13-.24.262-0.47,0.383-0.71,0.018-.04.038-0.07,0.055-0.11l0.316-.64-0.016-.02a32.836,32.836,0,0,0,1.571-4.26,8.411,8.411,0,0,1,5.626-5.67,7.5,7.5,0,0,1,7.166,1.43,7.665,7.665,0,0,1,.6.56,7.241,7.241,0,0,1,.549.6h0A7.8,7.8,0,0,1,530.815,1653.06Zm-7.924-7.71a5.845,5.845,0,0,0-4.366,2.18,0.948,0.948,0,0,0,.083,1.32,0.907,0.907,0,0,0,1.3-.09,3.7,3.7,0,0,1,5.971,0,0.914,0.914,0,0,0,.69.32,0.931,0.931,0,0,0,.689-1.55A5.837,5.837,0,0,0,522.891,1645.35Z" transform="translate(-488 -1640.97)"/>
</svg>
