<svg xmlns="http://www.w3.org/2000/svg" width="54" height="41" viewBox="0 0 54 41">
  <metadata><?xpacket begin="﻿" id="W5M0MpCehiHzreSzNTczkc9d"?>
<x:xmpmeta xmlns:x="adobe:ns:meta/" x:xmptk="Adobe XMP Core 5.6-c142 79.160924, 2017/07/13-01:06:39        ">
   <rdf:RDF xmlns:rdf="http://www.w3.org/1999/02/22-rdf-syntax-ns#">
      <rdf:Description rdf:about=""/>
   </rdf:RDF>
</x:xmpmeta>
                                                                                                    
                                                                                                    
                                                                                                    
                                                                                                    
                                                                                                    
                                                                                                    
                                                                                                    
                                                                                                    
                                                                                                    
                                                                                                    
                                                                                                    
                                                                                                    
                                                                                                    
                                                                                                    
                                                                                                    
                                                                                                    
                                                                                                    
                                                                                                    
                                                                                                    
                                                                                                    
                           
<?xpacket end="w"?></metadata>
<defs>
    <style>
      .cls-1 {
        fill: #f3da95;
        fill-rule: evenodd;
      }
    </style>
  </defs>
  <path class="cls-1" d="M1436.75,1494.19a16.913,16.913,0,0,0-3.33-7.54l0.47-.17a3.919,3.919,0,0,0,2.34-5.02l-1.18-3.27a7.879,7.879,0,0,0-10.1-4.71l-3.25,1.18a3.942,3.942,0,0,0-2.34,5.03l0.18,0.48a16.779,16.779,0,0,0-7.96,2.32,15.464,15.464,0,0,0-1.58,1.05,17.107,17.107,0,0,0-9.54-3.37l0.18-.48a3.948,3.948,0,0,0-2.35-5.03l-3.24-1.18a7.879,7.879,0,0,0-10.1,4.71l-1.18,3.27a3.919,3.919,0,0,0,2.34,5.02l0.47,0.17a16.942,16.942,0,0,0-2,17.57,16.873,16.873,0,0,0,22.43,8.18,17.53,17.53,0,0,0,2.99-1.79A16.887,16.887,0,0,0,1436.75,1494.19Zm-2.63-11.97a1.692,1.692,0,0,1-1,2.15l-6.97,2.54c-0.02.01-.05,0.02-0.07,0.03l2.29-4.94a8.883,8.883,0,0,0,5.65-.04Zm-8.4-6.63a5.605,5.605,0,0,1,7.21,3.37l0.32,0.88a6.686,6.686,0,0,1-4.97-.28h-0.01v-0.01a6.632,6.632,0,0,1-3.42-3.64Zm-3.24,1.18,0.25-.09a8.952,8.952,0,0,0,3.6,4.37l-2.29,4.93c-0.01-.02-0.02-0.05-0.03-0.07l-2.53-6.99A1.675,1.675,0,0,1,1422.48,1476.77Zm-25.22-.09,0.26,0.09a1.675,1.675,0,0,1,1,2.15l-2.54,6.99a0.185,0.185,0,0,1-.02.07l-2.3-4.93A8.846,8.846,0,0,0,1397.26,1476.68Zm-10.19,2.28a5.605,5.605,0,0,1,7.21-3.37l0.87,0.32a6.746,6.746,0,0,1-8.41,3.93Zm-1.19,3.26,0.1-.26a8.883,8.883,0,0,0,5.65.04l2.29,4.94a0.689,0.689,0,0,0-.08-0.03l-6.96-2.54A1.684,1.684,0,0,1,1385.88,1482.22Zm20.17,28.15a14.621,14.621,0,0,1-19.43-7.1,14.656,14.656,0,0,1,2.2-15.8l4.25,1.55a3.92,3.92,0,0,0,5.03-2.35l1.55-4.27a14.484,14.484,0,0,1,8.61,2.64,16.956,16.956,0,0,0-.01,24.05A14.385,14.385,0,0,1,1406.05,1510.37Zm0.82-19.5a14.667,14.667,0,0,1,3.13-4.4,14.732,14.732,0,0,1,0,21.19A14.731,14.731,0,0,1,1406.87,1490.87Zm26.5,12.4a14.613,14.613,0,0,1-19.43,7.1,15.413,15.413,0,0,1-2.2-1.28,16.948,16.948,0,0,0,0-24.05,14.505,14.505,0,0,1,8.61-2.64l1.55,4.27a3.92,3.92,0,0,0,5.03,2.35l4.25-1.55A14.591,14.591,0,0,1,1433.37,1503.27Z" transform="translate(-1383 -1473)"/>
</svg>
