<svg xmlns="http://www.w3.org/2000/svg" width="17" height="16" viewBox="0 0 17 16">
  <defs>
    <style>
      .cls-1 {
        fill: #fff;
        fill-rule: evenodd;
      }
    </style>
  </defs>
  <path id="ic_profile_birthday" class="cls-1" d="M202.891,280.108h-1.237a1.789,1.789,0,0,0,.3-0.806,2.042,2.042,0,0,0-1.3-2.12,2.273,2.273,0,0,0-2.369.359l-1.563,1.335a1.729,1.729,0,0,0-2.456,0l-1.565-1.337a2.276,2.276,0,0,0-2.369-.359,2.041,2.041,0,0,0-1.3,2.12,1.8,1.8,0,0,0,.3.806h-1.233A1.078,1.078,0,0,0,187,281.153v1.568a0.539,0.539,0,0,0,.554.522h15.892a0.538,0.538,0,0,0,.554-0.522v-1.568A1.078,1.078,0,0,0,202.891,280.108Zm-9.054-.175v0.175h-2.608a1.021,1.021,0,0,1-.46-1.963,1.115,1.115,0,0,1,1.193.171l1.875,1.6v0.015Zm7.018-.77a1.1,1.1,0,0,1-1.139.945h-2.553v-0.175c0-.006,0-0.012,0-0.018,0.425-.363,1.347-1.15,1.846-1.578a1.157,1.157,0,0,1,1.049-.252A1.022,1.022,0,0,1,200.855,279.163Zm-12.746,5.126v7.666A1.078,1.078,0,0,0,189.217,293h5.174v-8.711h-6.282Zm8.5,0V293h5.173a1.078,1.078,0,0,0,1.109-1.045v-7.666h-6.282Z" transform="translate(-187 -277)"/>
</svg>
