<svg xmlns="http://www.w3.org/2000/svg" width="21" height="16" viewBox="0 0 21 16">
  <defs>
    <style>
      .cls-1 {
        fill: #fff;
        fill-rule: evenodd;
      }
    </style>
  </defs>
  <path id="ic_profile_gender" class="cls-1" d="M229.681,282.442v-1.381h0.848v-1.747h-0.848v-1.248h-2.12v1.248h-0.933v1.747h0.933v1.366A5.418,5.418,0,1,0,229.681,282.442Zm-1.072,8.42a3.226,3.226,0,1,1,3.288-3.225A3.261,3.261,0,0,1,228.609,290.862Zm-4.788-8.557a5.411,5.411,0,1,0-6.439,5.211v2.328l-0.694-.587-1.143,1.335L218.454,293l3-2.4-1.139-1.353-0.809.637V287.5A5.347,5.347,0,0,0,223.821,282.305Zm-8.683,0a3.289,3.289,0,1,1,3.288,3.226A3.261,3.261,0,0,1,215.138,282.305Z" transform="translate(-213 -277)"/>
</svg>
