<svg xmlns="http://www.w3.org/2000/svg" width="12" height="16" viewBox="0 0 12 16">
  <defs>
    <style>
      .cls-1 {
        fill: #fff;
        fill-rule: evenodd;
      }
    </style>
  </defs>
  <path id="ic_profile_user" class="cls-1" d="M61,290.9C61,290.651,61,290.866,61,290.9ZM55,293c-5.116,0-6-1.806-6-1.806,0-.21,0-0.33,0-0.4a0.874,0.874,0,0,0,.009-0.28c0.068-3.666.582-4.722,4.251-5.394a2.578,2.578,0,0,0,3.479,0c3.71,0.679,4.194,1.752,4.253,5.516A2.392,2.392,0,0,0,61,290.9c0,0.064,0,.157,0,0.292C61,291.194,60.115,293,55,293Zm0-8.175c-1.754,0-3.176-1.752-3.176-3.913S52.29,277,55,277s3.176,1.752,3.176,3.912S56.754,284.825,55,284.825ZM49,290.8C49,290.762,49,290.667,49,290.8Z" transform="translate(-49 -277)"/>
</svg>
