<svg xmlns="http://www.w3.org/2000/svg" width="16" height="24" viewBox="0 0 16 24">
  <defs>
    <style>
      .cls-1 {
        fill: #e3a3cc;
        fill-rule: evenodd;
      }
    </style>
  </defs>
  <path id="ic_password" class="cls-1" d="M719.479,981.983v-5.144a4.728,4.728,0,0,0-4.6-4.84h-1.764a4.728,4.728,0,0,0-4.6,4.84v5.144A8,8,0,1,0,719.479,981.983Zm-9.43-1.148v-4a3.215,3.215,0,0,1,3.069-3.339h1.764a3.216,3.216,0,0,1,3.069,3.339v4c-0.208-.12-0.422-0.23-0.64-0.331l-0.023-.01-0.092-.041c-0.045-.02-0.091-0.041-0.137-0.06l-0.065-.026c-0.068-.028-0.136-0.056-0.205-0.082l0,0a7.864,7.864,0,0,0-2.239-.488l-0.054,0c-0.063,0-.125-0.007-0.188-0.009l-0.063,0c-0.08,0-.159,0-0.24,0l-0.24,0-0.063,0c-0.063,0-.125,0-0.188.009l-0.054,0a7.864,7.864,0,0,0-2.239.488l0,0c-0.069.026-.137,0.054-0.205,0.082l-0.065.026c-0.046.019-.092,0.04-0.137,0.06l-0.092.041-0.023.01C710.471,980.605,710.257,980.715,710.049,980.835ZM714,994.5a6.551,6.551,0,0,1-6.473-6.612,6.639,6.639,0,0,1,3.307-5.764l0.092-.053,0.1-.055c0.06-.031.12-0.063,0.181-0.092l0.058-.028a6.357,6.357,0,0,1,2.148-.592l0.019,0c0.089-.008.178-0.014,0.266-0.018h0.031c0.09,0,.179-0.006.269-0.006s0.179,0,.268.006H714.3c0.088,0,.177.01,0.266,0.018l0.019,0a6.357,6.357,0,0,1,2.148.592l0.058,0.028c0.061,0.029.121,0.061,0.181,0.092l0.1,0.055,0.092,0.053a6.639,6.639,0,0,1,3.307,5.764A6.552,6.552,0,0,1,714,994.5Zm2.253-7.833a2.254,2.254,0,0,0-4.507,0,2.185,2.185,0,0,0,.714,1.616l-0.54,2.38a0.694,0.694,0,0,0-.019.164,1.333,1.333,0,0,0,1.508,1.14h1.182a1.333,1.333,0,0,0,1.508-1.14,0.757,0.757,0,0,0-.019-0.164l-0.54-2.38A2.184,2.184,0,0,0,716.253,986.667Zm-2.724,3.8L714,988.4l0.47,2.072h-0.941Zm0.8-3.167a0.333,0.333,0,1,1-.666,0,0.71,0.71,0,0,1-.393-0.633,0.726,0.726,0,0,1,1.452,0A0.71,0.71,0,0,1,714.333,987.3Z" transform="translate(-706 -972)"/>
</svg>
