<svg xmlns="http://www.w3.org/2000/svg" width="10.75" height="10" viewBox="0 0 10.75 10">
  <defs>
    <style>
      .cls-1 {
        fill: #e6d197;
        fill-rule: evenodd;
      }
    </style>
  </defs>
  <path id="ic_stat" class="cls-1" d="M405.756,887.874a0.335,0.335,0,0,0-.362-0.291l-3.245-.459-1.454-2.867a0.324,0.324,0,0,0-.634,0l-1.454,2.867-3.245.459a0.335,0.335,0,0,0-.362.291,0.481,0.481,0,0,0,.161.3l2.353,2.23-0.556,3.15a1.125,1.125,0,0,0-.013.126,0.367,0.367,0,0,0,.068.223,0.236,0.236,0,0,0,.2.092,0.548,0.548,0,0,0,.258-0.076l2.9-1.487,2.9,1.487a0.53,0.53,0,0,0,.259.076,0.259,0.259,0,0,0,.265-0.315,1,1,0,0,0-.006-0.126l-0.556-3.15,2.346-2.23A0.454,0.454,0,0,0,405.756,887.874Z" transform="translate(-395 -884)"/>
</svg>
