<svg xmlns="http://www.w3.org/2000/svg" width="56" height="56" viewBox="0 0 56 56">
  <defs>
    <style>
      .cls-1 {
        fill: #f3da95;
        fill-rule: evenodd;
      }
    </style>
  </defs>
  <path id="ic_surprise" class="cls-1" d="M699.613,588.909a3.868,3.868,0,0,0-2.227.7,3.622,3.622,0,0,0-2.227-.7,4.072,4.072,0,0,0-3.986,4.2c0,2.45,4.1,6.652,5.392,7.818a1.136,1.136,0,0,0,1.642,0c1.288-1.282,5.392-5.368,5.392-7.818A4.072,4.072,0,0,0,699.613,588.909Zm-2.227,9.451c-1.992-1.983-3.869-4.434-3.869-5.368a1.732,1.732,0,0,1,1.64-1.866,1.619,1.619,0,0,1,1.29.7,1.07,1.07,0,0,0,.939.467h0a1.45,1.45,0,0,0,.938-0.467,1.622,1.622,0,0,1,1.291-.7,1.732,1.732,0,0,1,1.64,1.866C701.253,593.81,699.378,596.26,697.386,598.36Zm-1.992-13.77a1.138,1.138,0,0,0,1.642,0c1.286-1.282,5.39-5.368,5.39-7.818a4.071,4.071,0,0,0-3.987-4.2,3.86,3.86,0,0,0-2.226.7,3.611,3.611,0,0,0-2.227-.7,4.072,4.072,0,0,0-3.986,4.2C690,579.339,694.1,583.424,695.394,584.59Zm-1.408-9.568a1.625,1.625,0,0,1,1.291.7,1.067,1.067,0,0,0,.936.465h0a1.45,1.45,0,0,0,.938-0.467,1.625,1.625,0,0,1,1.291-.7,1.732,1.732,0,0,1,1.64,1.866c0,0.818-1.875,3.268-3.869,5.368-1.992-1.983-3.869-4.433-3.869-5.368A1.735,1.735,0,0,1,693.986,575.022Zm51.925,19.372a3.084,3.084,0,0,0-.586-0.7l-9.963-4.434c0.235,0,.47.117,0.7,0.117a4.72,4.72,0,0,0,1.758-.35,5.06,5.06,0,0,0,2.813-2.567,4.905,4.905,0,0,0-2.461-6.536c-1.406-.584-4.336-0.467-6.331-0.234a22.247,22.247,0,0,0-3.986,1.051,15.581,15.581,0,0,0-1.757-3.735c-1.173-1.749-2.931-3.968-4.336-4.55a4.935,4.935,0,0,0-3.869-.117,5.061,5.061,0,0,0-2.813,2.567,4.868,4.868,0,0,0-.117,3.852,6.11,6.11,0,0,0,1.4,1.983L706.41,576.3a1.284,1.284,0,0,0-.937,0,3.073,3.073,0,0,0-.7.584l-3.635,8.051a1.154,1.154,0,0,0,.587,1.516l33.99,15.286H700.668a1.106,1.106,0,0,0-1.173,1.168v23.922A1.106,1.106,0,0,0,700.668,628H739a1.106,1.106,0,0,0,1.173-1.168V603.611l0.586,0.234a0.712,0.712,0,0,0,.469.116,1.126,1.126,0,0,0,1.056-.7l3.635-8.052A0.994,0.994,0,0,0,745.911,594.394Zm-44.072,9.684h13.245v21.588H701.839V604.078Zm15.589,21.588V604.078h4.8v21.588h-4.8Zm20.4,0H724.579V604.078h13.245v21.588ZM727.04,588.091l-2.7,5.835-4.335-1.983,2.695-5.835,2.931,1.285Zm-0.938-3.735a7.907,7.907,0,0,0,1.4,1.4l-3.4-1.516a5.946,5.946,0,0,0,1.405.233A1.293,1.293,0,0,1,726.1,584.356Zm11.018-2.45a2.7,2.7,0,0,1,1.29,3.5,2.28,2.28,0,0,1-1.523,1.4,2.368,2.368,0,0,1-1.991-.117,7.5,7.5,0,0,1-1.056-.467c-3.4-1.4-5.392-2.451-5.744-3.151C729.15,582.14,735.48,581.208,737.12,581.906Zm-19.927-6.066a2.281,2.281,0,0,1,1.523-1.4,2.608,2.608,0,0,1,.938-0.116,3.432,3.432,0,0,1,1.056.233c1.64,0.7,5.157,6.069,5.04,7.468-0.7.117-2.813-.584-6.1-2.217-0.469-.233-0.821-0.35-1.055-0.467a2.276,2.276,0,0,1-1.406-1.516A2,2,0,0,1,717.193,575.84Zm-10.783,3.032,14.066,6.3-2.7,5.952-14.066-6.3Zm34.227,22.406-14.066-6.3,2.7-5.951,14.066,6.3Z" transform="translate(-690 -572)"/>
</svg>
