<svg xmlns="http://www.w3.org/2000/svg" width="33.562" height="34" viewBox="0 0 33.562 34">
  <defs>
    <style>
      .cls-1 {
        fill: #ddd;
        fill-rule: evenodd;
      }
    </style>
  </defs>
  <path id="ic_twitter_link" class="cls-1" d="M349.219,1021a17,17,0,1,1-16.782,17A16.891,16.891,0,0,1,349.219,1021Zm6.6,11.81a5.328,5.328,0,0,1-1.707.66,2.661,2.661,0,0,0-1.96-.86,2.705,2.705,0,0,0-2.687,2.72,2.839,2.839,0,0,0,.069.62,7.6,7.6,0,0,1-5.537-2.84,2.689,2.689,0,0,0-.364,1.36,2.735,2.735,0,0,0,1.195,2.27,2.778,2.778,0,0,1-1.217-.34v0.03a2.716,2.716,0,0,0,2.155,2.67,2.743,2.743,0,0,1-.707.1,2.82,2.82,0,0,1-.507-0.05,2.7,2.7,0,0,0,2.51,1.89,5.342,5.342,0,0,1-3.337,1.16c-0.217,0-.43-0.01-0.641-0.03a7.552,7.552,0,0,0,4.119,1.22,7.648,7.648,0,0,0,7.644-7.75l-0.009-.35a5.351,5.351,0,0,0,1.343-1.41,5.04,5.04,0,0,1-1.543.43A2.707,2.707,0,0,0,355.816,1032.81Z" transform="translate(-332.438 -1021)"/>
</svg>
