<svg xmlns="http://www.w3.org/2000/svg" width="20" height="26" viewBox="0 0 20 26">
  <defs>
    <style>
      .cls-1 {
        fill: #e3a3cc;
        fill-rule: evenodd;
      }
    </style>
  </defs>
  <path id="ic_user_filled" class="cls-1" d="M785,989.59C785,989.183,785,989.532,785,989.59ZM775,993c-8.527,0-10-2.934-10-2.934,0-.342,0-0.537,0-0.643a1.3,1.3,0,0,0,.016-0.456c0.112-5.955.969-7.673,7.085-8.764a4.381,4.381,0,0,0,5.8,0c6.183,1.1,6.991,2.847,7.089,8.963,0.006,0.391.01,0.459,0.011,0.424v0.476S783.526,993,775,993Zm0-13.285c-2.924,0-5.294-2.846-5.294-6.357S770.484,967,775,967s5.294,2.847,5.294,6.359S777.923,979.715,775,979.715Zm-10,9.708C765,989.362,765,989.209,765,989.423Z" transform="translate(-765 -967)"/>
</svg>
