<svg xmlns="http://www.w3.org/2000/svg" width="33.563" height="34" viewBox="0 0 33.563 34">
  <defs>
    <style>
      .cls-1 {
        fill: #ddd;
        fill-rule: evenodd;
      }
    </style>
  </defs>
  <path id="ic_vk_link" class="cls-1" d="M255.906,1021a17,17,0,1,1-16.781,17A16.891,16.891,0,0,1,255.906,1021Zm8.51,20.68c-0.02-.04-0.038-0.08-0.056-0.11a8.394,8.394,0,0,0-1.627-1.84l-0.017-.01-0.009-.01-0.008-.01H262.69c-0.364-.34-0.594-0.57-0.69-0.68a0.64,0.64,0,0,1-.12-0.68,6.566,6.566,0,0,1,.767-1.09c0.233-.29.418-0.53,0.554-0.71,0.983-1.27,1.409-2.09,1.279-2.45l-0.051-.08a0.565,0.565,0,0,0-.264-0.14,1.576,1.576,0,0,0-.546-0.02l-2.454.02a0.48,0.48,0,0,0-.171,0l-0.11.03-0.043.02-0.034.03a0.266,0.266,0,0,0-.094.08,0.512,0.512,0,0,0-.085.15,13.091,13.091,0,0,1-.912,1.87c-0.21.35-.4,0.64-0.58,0.9a4.647,4.647,0,0,1-.442.56,4.172,4.172,0,0,1-.324.28,0.287,0.287,0,0,1-.222.09l-0.145-.03a0.6,0.6,0,0,1-.192-0.2,0.965,0.965,0,0,1-.1-0.33q-0.026-.195-0.03-0.33c0-.1,0-0.23,0-0.4s0.008-.29.008-0.36c0-.21,0-0.44.013-0.68s0.016-.44.021-0.59,0.009-.3.009-0.46a1.943,1.943,0,0,0-.03-0.38,1.191,1.191,0,0,0-.089-0.26,0.445,0.445,0,0,0-.175-0.2,0.981,0.981,0,0,0-.286-0.12,5.947,5.947,0,0,0-1.15-.1,5.6,5.6,0,0,0-2.037.2,1.062,1.062,0,0,0-.324.25c-0.1.12-.116,0.19-0.042,0.2a1.086,1.086,0,0,1,.724.35l0.051,0.1a1.621,1.621,0,0,1,.119.39,3.592,3.592,0,0,1,.077.61,6.408,6.408,0,0,1,0,1.04c-0.028.29-.055,0.51-0.081,0.67a1.312,1.312,0,0,1-.115.39c-0.051.1-.085,0.16-0.1,0.19a0.349,0.349,0,0,1-.043.04,0.6,0.6,0,0,1-.23.04,0.539,0.539,0,0,1-.29-0.12,1.967,1.967,0,0,1-.353-0.32,3.659,3.659,0,0,1-.414-0.57,9.688,9.688,0,0,1-.477-0.86l-0.136-.25c-0.086-.15-0.2-0.38-0.35-0.68s-0.278-.58-0.392-0.86a0.555,0.555,0,0,0-.2-0.26l-0.043-.03a1.137,1.137,0,0,0-.136-0.07,1.25,1.25,0,0,0-.2-0.05l-2.335.01a0.621,0.621,0,0,0-.486.16l-0.034.05a0.259,0.259,0,0,0-.026.13,0.642,0.642,0,0,0,.051.23c0.341,0.78.712,1.54,1.112,2.26s0.749,1.32,1.044,1.76,0.6,0.87.9,1.26,0.51,0.65.609,0.76,0.178,0.19.234,0.25l0.214,0.2a5.844,5.844,0,0,0,.6.48q0.4,0.27.878,0.54a4.684,4.684,0,0,0,1.121.45,3.834,3.834,0,0,0,1.244.13h0.98a0.633,0.633,0,0,0,.452-0.18l0.034-.04a0.551,0.551,0,0,0,.064-0.16,0.732,0.732,0,0,0,.03-0.22,2.677,2.677,0,0,1,.055-0.65,1.557,1.557,0,0,1,.145-0.43,1.106,1.106,0,0,1,.183-0.25c0.068-.06.117-0.1,0.145-0.12a0.411,0.411,0,0,0,.068-0.03,0.567,0.567,0,0,1,.482.13,2.806,2.806,0,0,1,.52.48c0.162,0.2.356,0.41,0.583,0.65a3.576,3.576,0,0,0,.6.53l0.17,0.1a2.152,2.152,0,0,0,.444.19,1.161,1.161,0,0,0,.477.04l2.181-.04a1,1,0,0,0,.5-0.1,0.423,0.423,0,0,0,.213-0.23,0.61,0.61,0,0,0,0-.28A0.9,0.9,0,0,0,264.416,1041.68Z" transform="translate(-239.125 -1021)"/>
</svg>
