<svg xmlns="http://www.w3.org/2000/svg" width="88.969" height="32" viewBox="0 0 88.969 32">
  <defs>
    <style>
      .cls-1 {
        fill: #f3da95;
        fill-rule: evenodd;
      }
    </style>
  </defs>
  <path id="ic_valentinesday" class="cls-1" d="M1000.97,598.4a1.2,1.2,0,0,0-.6-0.77c-0.12-.063-11.873-6.4-17.644-9.314-5.581-2.818-9.5-1.2-11.261-.058a10.1,10.1,0,0,0-5.444-3.077,9.651,9.651,0,0,0-9.521,3.8,9.646,9.646,0,0,0-9.521-3.8,10.11,10.11,0,0,0-5.444,3.077c-1.763-1.137-5.678-2.76-11.261.058-5.771,2.914-17.528,9.251-17.646,9.314a1.2,1.2,0,0,0-.6.77,1.183,1.183,0,0,0,.179.952,10.382,10.382,0,0,0,8.023,4.454,8.2,8.2,0,0,0,1.317-.108,7.242,7.242,0,0,0,3.554,2.478,8.817,8.817,0,0,0,2.715.41,11.763,11.763,0,0,0,2.333-.247,8.28,8.28,0,0,0,3.041,2.129,9.08,9.08,0,0,0,3.433.643,14.614,14.614,0,0,0,6.682-1.842c2.614,3.061,6.6,6.345,12.609,9.588a1.222,1.222,0,0,0,.577.145l0-.019,0,0.019a1.222,1.222,0,0,0,.577-0.145c6.013-3.243,10-6.527,12.608-9.587a14.615,14.615,0,0,0,6.683,1.841,9.075,9.075,0,0,0,3.432-.643,8.3,8.3,0,0,0,3.042-2.129,11.756,11.756,0,0,0,2.333.247,8.822,8.822,0,0,0,2.715-.41,7.243,7.243,0,0,0,3.553-2.477,8.186,8.186,0,0,0,1.317.108,10.392,10.392,0,0,0,8.025-4.455A1.191,1.191,0,0,0,1000.97,598.4Zm-68.15,7.146a24.642,24.642,0,0,0,2.873-1.337,1.184,1.184,0,0,0,.477-1.618,1.212,1.212,0,0,0-1.636-.472c-3.441,1.867-6.424,2.491-8.626,1.808a4.968,4.968,0,0,1-1.841-1.026l0.015-.007,7.092-3.432a1.186,1.186,0,0,0,.553-1.594,1.211,1.211,0,0,0-1.613-.546l-7.087,3.429c-3.678,1.761-6.566-.34-7.946-1.726,3.228-1.734,11.684-6.26,16.29-8.585,4.42-2.232,7.418-1.07,8.739-.256a11.341,11.341,0,0,0-1.412,3.994c-0.332,2.146-.295,6.272,3.12,11.168C937.116,607.645,934.262,606.6,932.82,605.545Zm23.68,8.9c-15.365-8.479-15.91-16.732-15.419-19.913a8.286,8.286,0,0,1,6.369-7.018c3.1-.611,6.024.9,8.015,4.153l0.006,0a1.178,1.178,0,0,0,.409.406,1.213,1.213,0,0,0,1.655-.4c1.991-3.25,4.913-4.763,8.015-4.153a8.285,8.285,0,0,1,6.369,7.018C972.411,597.717,971.865,605.97,956.5,614.449Zm33.478-13.7-7.092-3.432a1.211,1.211,0,0,0-1.612.547,1.184,1.184,0,0,0,.553,1.594l7.1,3.434,0.011,0a4.961,4.961,0,0,1-1.785,1.008c-2.207.711-5.21,0.092-8.681-1.79a1.213,1.213,0,0,0-1.637.471,1.185,1.185,0,0,0,.477,1.618,24.474,24.474,0,0,0,2.867,1.335,5.939,5.939,0,0,1-1.285.719c-2.1.852-4.744,0.527-7.705-.92,3.413-4.894,3.45-9.019,3.119-11.165a11.336,11.336,0,0,0-1.412-3.993c1.318-.807,4.324-1.974,8.738.255,4.606,2.325,13.061,6.851,16.29,8.585C996.538,600.411,993.652,602.51,989.978,600.752Z" transform="translate(-912.031 -585)"/>
</svg>
