<svg xmlns="http://www.w3.org/2000/svg" width="18" height="18" viewBox="0 0 18 18">
  <defs>
    <style>
      .cls-1 {
        fill: #fff;
        fill-rule: evenodd;
      }
    </style>
  </defs>
  <path id="ic_whatsapp_alt" class="cls-1" d="M549,1045.77a8.838,8.838,0,0,1-13.108,7.67L531,1055l1.6-4.7A8.816,8.816,0,1,1,549,1045.77Zm-8.836-7.37a7.4,7.4,0,0,0-7.43,7.37,7.308,7.308,0,0,0,1.415,4.32l-0.928,2.74,2.855-.91A7.39,7.39,0,1,0,540.164,1038.4Zm4.462,9.39a1.012,1.012,0,0,0-.416-0.25c-0.216-.11-1.282-0.63-1.48-0.7a0.342,0.342,0,0,0-.487.1c-0.145.22-.56,0.7-0.686,0.85a0.335,0.335,0,0,1-.47.05,5.844,5.844,0,0,1-1.741-1.07,6.385,6.385,0,0,1-1.205-1.48,0.313,0.313,0,0,1,.1-0.44c0.1-.1.216-0.25,0.325-0.38a1.277,1.277,0,0,0,.216-0.36,0.378,0.378,0,0,0-.018-0.37c-0.054-.11-0.488-1.17-0.668-1.6s-0.361-.36-0.487-0.36-0.271-.02-0.415-0.02a0.82,0.82,0,0,0-.578.27,2.427,2.427,0,0,0-.758,1.8,4.17,4.17,0,0,0,.884,2.22,8.888,8.888,0,0,0,3.7,3.24c2.2,0.86,2.2.58,2.6,0.54a2.206,2.206,0,0,0,1.462-1.02A1.776,1.776,0,0,0,544.626,1047.79Z" transform="translate(-531 -1037)"/>
</svg>
