<svg xmlns="http://www.w3.org/2000/svg" width="33.563" height="34" viewBox="0 0 33.563 34">
  <defs>
    <style>
      .cls-1 {
        fill: #ddd;
        fill-rule: evenodd;
      }
    </style>
  </defs>
  <path id="ic_youtube_link" class="cls-1" d="M302.562,1021a17,17,0,1,1-16.781,17A16.892,16.892,0,0,1,302.562,1021Zm7.522,13.34a1.9,1.9,0,0,0-1.593-1.52,72.548,72.548,0,0,0-11.032,0,1.9,1.9,0,0,0-1.592,1.52,25.969,25.969,0,0,0,0,7.31,1.888,1.888,0,0,0,1.592,1.52,69.261,69.261,0,0,0,11.032,0,1.89,1.89,0,0,0,1.593-1.52A26.27,26.27,0,0,0,310.084,1034.34Zm-9.012,6.06v-5.12c1.561,0.86,3.112,1.71,4.683,2.57C304.189,1038.7,302.637,1039.54,301.072,1040.4Z" transform="translate(-285.781 -1021)"/>
</svg>
