<svg
        xmlns="http://www.w3.org/2000/svg"
        xmlns:xlink="http://www.w3.org/1999/xlink"
        width="14px" height="14px">
    <path fill-rule="evenodd"  fill="rgb(0, 0, 0)"
          d="M5.125,14.000 L5.125,10.781 L13.344,10.781 L13.344,14.000 L5.125,14.000 ZM5.125,5.375 L13.344,5.375 L13.344,8.625 L5.125,8.625 L5.125,5.375 ZM5.125,-0.000 L13.344,-0.000 L13.344,3.219 L5.125,3.219 L5.125,-0.000 ZM-0.000,10.781 L3.062,10.781 L3.062,14.000 L-0.000,14.000 L-0.000,10.781 ZM-0.000,5.375 L3.062,5.375 L3.062,8.625 L-0.000,8.625 L-0.000,5.375 ZM-0.000,-0.000 L3.062,-0.000 L3.062,3.219 L-0.000,3.219 L-0.000,-0.000 Z"/>
</svg>