<svg
        xmlns="http://www.w3.org/2000/svg"
        xmlns:xlink="http://www.w3.org/1999/xlink"
        width="45px" height="35px">
    <path fill-rule="evenodd"  fill-opacity="0.98" opacity="0.2" fill="rgb(0, 0, 0)"
          d="M39.351,35.000 L5.649,35.000 C2.534,35.000 -0.000,32.427 -0.000,29.264 L-0.000,11.083 C-0.000,8.363 1.875,6.080 4.381,5.494 L4.381,1.458 C4.381,0.653 5.024,-0.000 5.817,-0.000 L12.136,-0.000 C12.929,-0.000 13.572,0.653 13.572,1.458 L13.572,5.347 L15.004,5.347 L15.826,1.172 C15.960,0.490 16.550,-0.000 17.234,-0.000 L27.766,-0.000 C28.451,-0.000 29.040,0.490 29.174,1.172 L29.996,5.347 L39.351,5.347 C42.466,5.347 45.000,7.920 45.000,11.083 L45.000,29.264 C45.000,32.427 42.466,35.000 39.351,35.000 ZM10.700,2.916 L7.253,2.916 L7.253,5.347 L10.700,5.347 L10.700,2.916 ZM42.128,29.264 L42.128,11.083 C42.128,9.528 40.882,8.264 39.351,8.264 L28.819,8.264 C28.134,8.264 27.545,7.773 27.411,7.091 L26.589,2.916 L18.411,2.916 L17.589,7.091 C17.455,7.773 16.865,8.264 16.181,8.264 C14.991,8.264 6.695,8.264 5.649,8.264 C4.118,8.264 2.872,9.528 2.872,11.083 L2.872,29.264 C2.872,30.818 4.118,32.083 5.649,32.083 L39.351,32.083 C40.882,32.083 42.128,30.818 42.128,29.264 L42.128,29.264 ZM38.298,13.611 L35.894,13.611 C35.101,13.611 34.458,12.958 34.458,12.152 C34.458,11.347 35.101,10.694 35.894,10.694 L38.298,10.694 C39.091,10.694 39.734,11.347 39.734,12.152 C39.734,12.958 39.091,13.611 38.298,13.611 ZM22.500,31.257 C16.481,31.257 11.585,26.285 11.585,20.173 C11.585,14.062 16.481,9.090 22.500,9.090 C28.518,9.090 33.415,14.062 33.415,20.173 C33.415,26.285 28.518,31.257 22.500,31.257 ZM22.500,12.007 C18.065,12.007 14.457,15.670 14.457,20.173 C14.457,24.677 18.065,28.340 22.500,28.340 C26.935,28.340 30.542,24.677 30.542,20.173 C30.542,15.670 26.935,12.007 22.500,12.007 ZM22.500,25.909 C19.385,25.909 16.851,23.336 16.851,20.173 C16.851,17.010 19.385,14.437 22.500,14.437 C25.615,14.437 28.149,17.010 28.149,20.173 C28.149,23.336 25.615,25.909 22.500,25.909 ZM22.500,17.354 C20.969,17.354 19.723,18.619 19.723,20.173 C19.723,21.728 20.969,22.993 22.500,22.993 C24.031,22.993 25.277,21.728 25.277,20.173 C25.277,18.619 24.031,17.354 22.500,17.354 Z"/>
</svg>