<svg
        xmlns="http://www.w3.org/2000/svg"
        xmlns:xlink="http://www.w3.org/1999/xlink"
        width="16px" height="15px">
    <path fill-rule="evenodd"  opacity="0.329" fill="rgb(0, 0, 0)"
          d="M15.457,6.801 C15.095,6.433 14.661,6.249 14.154,6.249 L13.539,6.249 L13.539,3.749 C13.539,3.489 13.475,3.202 13.346,2.890 C13.218,2.577 13.064,2.330 12.885,2.148 L11.423,0.663 C11.244,0.481 11.000,0.324 10.692,0.194 C10.385,0.064 10.103,-0.001 9.846,-0.001 L3.384,-0.001 C3.128,-0.001 2.910,0.090 2.730,0.272 C2.551,0.454 2.461,0.676 2.461,0.936 L2.461,6.249 L1.846,6.249 C1.339,6.249 0.905,6.433 0.543,6.801 C0.180,7.169 -0.001,7.610 -0.001,8.125 L-0.001,12.188 C-0.001,12.273 0.030,12.346 0.091,12.408 C0.152,12.469 0.224,12.500 0.307,12.500 L2.461,12.500 L2.461,14.063 C2.461,14.323 2.551,14.545 2.730,14.727 C2.910,14.910 3.128,15.001 3.384,15.001 L12.616,15.001 C12.872,15.001 13.090,14.910 13.270,14.727 C13.449,14.545 13.539,14.323 13.539,14.063 L13.539,12.500 L15.693,12.500 C15.776,12.500 15.848,12.469 15.909,12.408 C15.970,12.346 16.000,12.273 16.000,12.188 L16.000,8.125 C16.000,7.610 15.820,7.169 15.457,6.801 ZM12.308,13.750 L3.692,13.750 L3.692,11.250 L12.308,11.250 L12.308,13.750 ZM12.308,7.500 L3.692,7.500 L3.692,1.249 L9.846,1.249 L9.846,2.812 C9.846,3.072 9.936,3.293 10.116,3.476 C10.295,3.658 10.513,3.749 10.769,3.749 L12.308,3.749 L12.308,7.500 ZM14.587,8.564 C14.465,8.688 14.321,8.750 14.154,8.750 C13.988,8.750 13.843,8.688 13.722,8.564 C13.600,8.441 13.539,8.294 13.539,8.125 C13.539,7.956 13.600,7.809 13.722,7.685 C13.843,7.562 13.988,7.500 14.154,7.500 C14.321,7.500 14.465,7.562 14.587,7.685 C14.709,7.809 14.770,7.956 14.770,8.125 C14.770,8.294 14.709,8.441 14.587,8.564 Z"/>
</svg>