<svg
        xmlns="http://www.w3.org/2000/svg"
        xmlns:xlink="http://www.w3.org/1999/xlink"
        width="38px" height="34px">
    <path fill-rule="evenodd"  fill="rgb(242, 242, 242)"
          d="M37.280,13.171 C37.280,12.643 36.864,12.313 36.030,12.184 L24.832,10.622 L19.812,0.874 C19.530,0.289 19.165,-0.004 18.719,-0.004 C18.273,-0.004 17.909,0.289 17.626,0.874 L12.606,10.622 L1.407,12.184 C0.574,12.313 0.158,12.643 0.158,13.171 C0.158,13.471 0.344,13.814 0.716,14.201 L8.836,21.781 L6.918,32.493 C6.888,32.694 6.873,32.836 6.873,32.922 C6.873,33.221 6.951,33.475 7.107,33.682 C7.263,33.890 7.498,33.993 7.810,33.993 C8.078,33.993 8.375,33.907 8.702,33.737 L18.719,28.678 L28.736,33.737 C29.048,33.907 29.345,33.993 29.628,33.993 C30.238,33.993 30.543,33.636 30.543,32.923 C30.543,32.734 30.536,32.594 30.520,32.493 L28.602,21.781 L36.700,14.201 C37.087,13.828 37.280,13.487 37.280,13.171 Z"/>
</svg>