<svg xmlns="http://www.w3.org/2000/svg" width="6.594" height="6.125" viewBox="0 0 6.594 6.125">
  <metadata><?xpacket begin="﻿" id="W5M0MpCehiHzreSzNTczkc9d"?>
<x:xmpmeta xmlns:x="adobe:ns:meta/" x:xmptk="Adobe XMP Core 5.6-c138 79.159824, 2016/09/14-01:09:01        ">
   <rdf:RDF xmlns:rdf="http://www.w3.org/1999/02/22-rdf-syntax-ns#">
      <rdf:Description rdf:about=""/>
   </rdf:RDF>
</x:xmpmeta>
                                                                                                    
                                                                                                    
                                                                                                    
                                                                                                    
                                                                                                    
                                                                                                    
                                                                                                    
                                                                                                    
                                                                                                    
                                                                                                    
                                                                                                    
                                                                                                    
                                                                                                    
                                                                                                    
                                                                                                    
                                                                                                    
                                                                                                    
                                                                                                    
                                                                                                    
                                                                                                    
                           
<?xpacket end="w"?></metadata>
<defs>
    <style>
      .cls-1 {
        fill: #e6d197;
        fill-rule: evenodd;
      }
    </style>
  </defs>
  <path id="Forma_1_копия_7" data-name="Forma 1 копия 7" class="cls-1" d="M263.7,309.933a0.206,0.206,0,0,0-.223-0.179l-1.991-.282-0.893-1.758a0.2,0.2,0,0,0-.389,0l-0.893,1.758-1.992.282a0.205,0.205,0,0,0-.222.179,0.29,0.29,0,0,0,.1.185l1.445,1.368-0.342,1.934a0.661,0.661,0,0,0-.008.077,0.218,0.218,0,0,0,.042.136,0.145,0.145,0,0,0,.125.057,0.341,0.341,0,0,0,.159-0.046l1.781-.913,1.782,0.913a0.323,0.323,0,0,0,.159.046,0.158,0.158,0,0,0,.162-0.193,0.5,0.5,0,0,0,0-.077l-0.341-1.934,1.44-1.368A0.276,0.276,0,0,0,263.7,309.933Z" transform="translate(-257.094 -307.563)"/>
</svg>
