<svg xmlns="http://www.w3.org/2000/svg" width="10.75" height="10" viewBox="0 0 10.75 10">
  <metadata><?xpacket begin="﻿" id="W5M0MpCehiHzreSzNTczkc9d"?>
<x:xmpmeta xmlns:x="adobe:ns:meta/" x:xmptk="Adobe XMP Core 5.6-c138 79.159824, 2016/09/14-01:09:01        ">
   <rdf:RDF xmlns:rdf="http://www.w3.org/1999/02/22-rdf-syntax-ns#">
      <rdf:Description rdf:about=""/>
   </rdf:RDF>
</x:xmpmeta>
                                                                                                    
                                                                                                    
                                                                                                    
                                                                                                    
                                                                                                    
                                                                                                    
                                                                                                    
                                                                                                    
                                                                                                    
                                                                                                    
                                                                                                    
                                                                                                    
                                                                                                    
                                                                                                    
                                                                                                    
                                                                                                    
                                                                                                    
                                                                                                    
                                                                                                    
                                                                                                    
                           
<?xpacket end="w"?></metadata>
<defs>
    <style>
      .cls-1 {
        fill: #e6d197;
        fill-rule: evenodd;
      }
    </style>
  </defs>
  <path id="Forma_1_копия_7" data-name="Forma 1 копия 7" class="cls-1" d="M763.873,464.874a0.334,0.334,0,0,0-.362-0.291l-3.245-.46-1.454-2.866a0.323,0.323,0,0,0-.634,0l-1.454,2.866-3.245.46a0.334,0.334,0,0,0-.362.291,0.477,0.477,0,0,0,.161.3l2.353,2.23-0.556,3.151a1.044,1.044,0,0,0-.012.126,0.361,0.361,0,0,0,.067.222,0.236,0.236,0,0,0,.2.092,0.552,0.552,0,0,0,.259-0.075l2.9-1.488,2.9,1.488a0.528,0.528,0,0,0,.259.075,0.258,0.258,0,0,0,.265-0.314,0.98,0.98,0,0,0-.006-0.126l-0.556-3.151,2.346-2.23A0.452,0.452,0,0,0,763.873,464.874Z" transform="translate(-753.125 -461)"/>
</svg>
