<svg
        xmlns="http://www.w3.org/2000/svg"
        xmlns:xlink="http://www.w3.org/1999/xlink"
        width="38px" height="34px">
    <path fill-rule="evenodd"  fill="rgb(230, 209, 151)"
          d="M37.840,13.171 C37.840,12.643 37.424,12.313 36.590,12.184 L25.392,10.622 L20.372,0.874 C20.090,0.289 19.725,-0.004 19.279,-0.004 C18.833,-0.004 18.469,0.289 18.186,0.874 L13.166,10.622 L1.967,12.184 C1.134,12.313 0.718,12.643 0.718,13.171 C0.718,13.471 0.904,13.814 1.276,14.201 L9.396,21.781 L7.478,32.493 C7.448,32.694 7.433,32.836 7.433,32.922 C7.433,33.221 7.511,33.475 7.667,33.682 C7.823,33.890 8.058,33.993 8.370,33.993 C8.638,33.993 8.935,33.907 9.262,33.737 L19.279,28.678 L29.296,33.737 C29.608,33.907 29.905,33.993 30.188,33.993 C30.798,33.993 31.103,33.636 31.103,32.923 C31.103,32.734 31.096,32.594 31.080,32.493 L29.162,21.781 L37.260,14.201 C37.647,13.828 37.840,13.487 37.840,13.171 Z"/>
</svg>