<svg
        xmlns="http://www.w3.org/2000/svg"
        xmlns:xlink="http://www.w3.org/1999/xlink"
        width="15px" height="14px">
    <path fill-rule="evenodd"  fill="rgb(0, 0, 0)"
          d="M2.065,1.711 C2.852,0.904 3.775,0.330 4.763,-0.013 L4.763,2.156 C4.287,2.398 3.837,2.714 3.443,3.121 C1.472,5.146 1.472,8.440 3.443,10.464 C5.413,12.486 8.618,12.486 10.592,10.464 C12.561,8.438 12.561,5.146 10.592,3.121 C10.587,3.114 10.571,3.104 10.564,3.095 L10.562,3.095 L9.394,4.293 L9.401,0.490 L13.102,0.484 L11.939,1.679 C11.946,1.691 11.957,1.704 11.966,1.711 C14.698,4.517 14.698,9.069 11.966,11.875 C9.229,14.683 4.801,14.683 2.065,11.875 C-0.665,9.069 -0.668,4.517 2.065,1.711 Z"/>
</svg>